FiraSans-CondensedSemiLight.ufo
<glyph name="exclam" format="2">
  <advance width="218"/>
  <unicode hex="0021"/>
  <outline>
    <contour>
      <point x="124" y="682" type="line"/>
      <point x="94" y="682" type="line"/>
      <point x="95" y="208" type="line"/>
      <point x="123" y="208" type="line"/>
    </contour>
    <contour>
      <point x="109" y="48" type="curve" smooth="yes"/>
      <point x="91" y="48"/>
      <point x="80" y="34"/>
      <point x="80" y="19" type="curve" smooth="yes"/>
      <point x="80" y="4"/>
      <point x="91" y="-10"/>
      <point x="109" y="-10" type="curve" smooth="yes"/>
      <point x="127" y="-10"/>
      <point x="138" y="4"/>
      <point x="138" y="19" type="curve" smooth="yes"/>
      <point x="138" y="34"/>
      <point x="127" y="48"/>
    </contour>
  </outline>
</glyph>
<glyph name="numbersign" format="2">
  <advance width="404"/>
  <unicode hex="0023"/>
  <outline>
    <contour>
      <point x="356" y="662" type="line"/>
      <point x="326" y="662" type="line"/>
      <point x="238" y="0" type="line"/>
      <point x="268" y="0" type="line"/>
    </contour>
    <contour>
      <point x="362" y="222" type="line"/>
      <point x="12" y="222" type="line"/>
      <point x="12" y="194" type="line"/>
      <point x="362" y="194" type="line"/>
    </contour>
    <contour>
      <point x="166" y="662" type="line"/>
      <point x="136" y="662" type="line"/>
      <point x="48" y="0" type="line"/>
      <point x="78" y="0" type="line"/>
    </contour>
    <contour>
      <point x="392" y="484" type="line"/>
      <point x="42" y="484" type="line"/>
      <point x="42" y="456" type="line"/>
      <point x="392" y="456" type="line"/>
    </contour>
  </outline>
</glyph>
<glyph name="dollar" format="2">
  <advance width="429"/>
  <unicode hex="0024"/>
  <outline>
    <contour>
      <point x="227" y="1" type="line"/>
      <point x="200" y="0" type="line"/>
      <point x="200" y="-147" type="line"/>
      <point x="227" y="-147" type="line"/>
    </contour>
    <contour>
      <point x="227" y="814" type="line"/>
      <point x="200" y="814" type="line"/>
      <point x="200" y="664" type="line"/>
      <point x="227" y="664" type="line"/>
    </contour>
    <contour>
      <point x="213" y="671" type="curve" smooth="yes"/>
      <point x="123" y="671"/>
      <point x="60" y="599"/>
      <point x="60" y="516" type="curve" smooth="yes"/>
      <point x="60" y="434"/>
      <point x="101" y="386"/>
      <point x="212" y="343" type="curve" smooth="yes"/>
      <point x="312" y="303"/>
      <point x="348" y="264"/>
      <point x="348" y="176" type="curve" smooth="yes"/>
      <point x="348" y="83"/>
      <point x="292" y="17"/>
      <point x="205" y="17" type="curve" smooth="yes"/>
      <point x="139" y="17"/>
      <point x="98" y="47"/>
      <point x="58" y="88" type="curve"/>
      <point x="39" y="70" type="line"/>
      <point x="83" y="21"/>
      <point x="134" y="-11"/>
      <point x="206" y="-11" type="curve" smooth="yes"/>
      <point x="306" y="-11"/>
      <point x="378" y="70"/>
      <point x="378" y="177" type="curve" smooth="yes"/>
      <point x="378" y="280"/>
      <point x="327" y="327"/>
      <point x="223" y="368" type="curve" smooth="yes"/>
      <point x="126" y="405"/>
      <point x="91" y="443"/>
      <point x="91" y="516" type="curve" smooth="yes"/>
      <point x="91" y="588"/>
      <point x="139" y="643"/>
      <point x="213" y="643" type="curve" smooth="yes"/>
      <point x="266" y="643"/>
      <point x="301" y="624"/>
      <point x="342" y="582" type="curve"/>
      <point x="361" y="601" type="line"/>
      <point x="321" y="644"/>
      <point x="281" y="671"/>
    </contour>
  </outline>
</glyph>
<glyph name="percent" format="2">
  <advance width="648"/>
  <unicode hex="0025"/>
  <outline>
    <contour>
      <point x="506" y="697" type="line"/>
      <point x="126" y="-5" type="line"/>
      <point x="150" y="-18" type="line"/>
      <point x="530" y="684" type="line"/>
    </contour>
    <contour>
      <point x="171" y="648" type="curve"/>
      <point x="232" y="648"/>
      <point x="257" y="593"/>
      <point x="257" y="518" type="curve" smooth="yes"/>
      <point x="257" y="440"/>
      <point x="232" y="385"/>
      <point x="171" y="385" type="curve"/>
      <point x="110" y="385"/>
      <point x="85" y="440"/>
      <point x="85" y="515" type="curve" smooth="yes"/>
      <point x="85" y="593"/>
      <point x="110" y="648"/>
    </contour>
    <contour>
      <point x="171" y="674" type="curve"/>
      <point x="99" y="674"/>
      <point x="55" y="616"/>
      <point x="55" y="515" type="curve" smooth="yes"/>
      <point x="55" y="415"/>
      <point x="102" y="359"/>
      <point x="171" y="359" type="curve"/>
      <point x="243" y="359"/>
      <point x="287" y="417"/>
      <point x="287" y="518" type="curve" smooth="yes"/>
      <point x="287" y="618"/>
      <point x="240" y="674"/>
    </contour>
    <contour>
      <point x="477" y="279" type="curve"/>
      <point x="538" y="279"/>
      <point x="563" y="224"/>
      <point x="563" y="149" type="curve" smooth="yes"/>
      <point x="563" y="71"/>
      <point x="538" y="16"/>
      <point x="477" y="16" type="curve"/>
      <point x="415" y="16"/>
      <point x="390" y="71"/>
      <point x="390" y="146" type="curve" smooth="yes"/>
      <point x="390" y="224"/>
      <point x="415" y="279"/>
    </contour>
    <contour>
      <point x="477" y="305" type="curve"/>
      <point x="405" y="305"/>
      <point x="361" y="247"/>
      <point x="361" y="146" type="curve" smooth="yes"/>
      <point x="361" y="46"/>
      <point x="408" y="-10"/>
      <point x="477" y="-10" type="curve"/>
      <point x="549" y="-10"/>
      <point x="593" y="48"/>
      <point x="593" y="149" type="curve" smooth="yes"/>
      <point x="593" y="249"/>
      <point x="546" y="305"/>
    </contour>
  </outline>
</glyph>
<glyph name="ampersand" format="2">
  <advance width="609"/>
  <unicode hex="0026"/>
  <outline>
    <contour>
      <point x="252" y="692" type="curve" smooth="yes"/>
      <point x="174" y="692"/>
      <point x="120" y="632"/>
      <point x="120" y="542" type="curve" smooth="yes"/>
      <point x="120" y="472"/>
      <point x="148" y="433"/>
      <point x="204" y="367" type="curve"/>
      <point x="130" y="313"/>
      <point x="84" y="261"/>
      <point x="84" y="168" type="curve" smooth="yes"/>
      <point x="84" y="57"/>
      <point x="157" y="-10"/>
      <point x="249" y="-10" type="curve" smooth="yes"/>
      <point x="339" y="-10"/>
      <point x="392" y="39"/>
      <point x="434" y="104" type="curve"/>
      <point x="535" y="-10" type="line"/>
      <point x="557" y="7" type="line"/>
      <point x="449" y="130" type="line"/>
      <point x="479" y="194"/>
      <point x="501" y="263"/>
      <point x="516" y="348" type="curve"/>
      <point x="488" y="354" type="line"/>
      <point x="475" y="275"/>
      <point x="456" y="214"/>
      <point x="430" y="149" type="curve"/>
      <point x="247" y="361" type="line"/>
      <point x="335" y="422"/>
      <point x="379" y="470"/>
      <point x="379" y="547" type="curve" smooth="yes"/>
      <point x="379" y="634"/>
      <point x="329" y="692"/>
    </contour>
    <contour>
      <point x="222" y="348" type="curve"/>
      <point x="414" y="123" type="line"/>
      <point x="374" y="59"/>
      <point x="328" y="18"/>
      <point x="249" y="18" type="curve" smooth="yes"/>
      <point x="172" y="18"/>
      <point x="115" y="77"/>
      <point x="115" y="168" type="curve" smooth="yes"/>
      <point x="115" y="247"/>
      <point x="154" y="300"/>
    </contour>
    <contour>
      <point x="252" y="665" type="curve" smooth="yes"/>
      <point x="308" y="665"/>
      <point x="349" y="625"/>
      <point x="349" y="547" type="curve" smooth="yes"/>
      <point x="349" y="481"/>
      <point x="311" y="435"/>
      <point x="228" y="381" type="curve"/>
      <point x="159" y="466"/>
      <point x="150" y="494"/>
      <point x="150" y="543" type="curve" smooth="yes"/>
      <point x="150" y="614"/>
      <point x="189" y="665"/>
    </contour>
  </outline>
</glyph>
<glyph name="quotesingle" format="2">
  <advance width="170"/>
  <unicode hex="0027"/>
  <outline>
    <contour>
      <point x="73" y="439" type="line"/>
      <point x="97" y="439" type="line"/>
      <point x="100" y="682" type="line"/>
      <point x="70" y="682" type="line"/>
    </contour>
  </outline>
</glyph>
<glyph name="parenleft" format="2">
  <advance width="265"/>
  <unicode hex="0028"/>
  <outline>
    <contour>
      <point x="195" y="831" type="line"/>
      <point x="116" y="699"/>
      <point x="51" y="579"/>
      <point x="51" y="350" type="curve"/>
      <point x="51" y="121"/>
      <point x="116" y="1"/>
      <point x="195" y="-131" type="curve"/>
      <point x="214" y="-119" type="line"/>
      <point x="141" y="12"/>
      <point x="81" y="125"/>
      <point x="81" y="350" type="curve"/>
      <point x="81" y="574"/>
      <point x="141" y="688"/>
      <point x="214" y="819" type="curve"/>
    </contour>
  </outline>
</glyph>
<glyph name="parenright" format="2">
  <advance width="265"/>
  <unicode hex="0029"/>
  <outline>
    <contour>
      <point x="70" y="831" type="curve"/>
      <point x="51" y="819" type="line"/>
      <point x="124" y="688"/>
      <point x="184" y="575"/>
      <point x="184" y="350" type="curve"/>
      <point x="184" y="126"/>
      <point x="124" y="12"/>
      <point x="51" y="-119" type="curve"/>
      <point x="70" y="-131" type="line"/>
      <point x="149" y="1"/>
      <point x="214" y="121"/>
      <point x="214" y="350" type="curve"/>
      <point x="214" y="579"/>
      <point x="149" y="699"/>
    </contour>
  </outline>
</glyph>
<glyph name="asterisk" format="2">
  <advance width="366"/>
  <unicode hex="002A"/>
  <outline>
    <contour>
      <point x="183" y="559" type="line"/>
      <point x="181" y="543" type="line"/>
      <point x="256" y="414" type="line"/>
      <point x="280" y="429" type="line"/>
      <point x="199" y="556" type="line"/>
    </contour>
    <contour>
      <point x="197" y="734" type="line"/>
      <point x="169" y="734" type="line"/>
      <point x="171" y="569" type="line"/>
      <point x="183" y="559" type="line"/>
      <point x="195" y="569" type="line"/>
    </contour>
    <contour>
      <point x="315" y="625" type="line"/>
      <point x="191" y="572" type="line"/>
      <point x="183" y="559" type="line"/>
      <point x="197" y="552" type="line"/>
      <point x="326" y="599" type="line"/>
    </contour>
    <contour>
      <point x="51" y="625" type="line"/>
      <point x="40" y="599" type="line"/>
      <point x="169" y="551" type="line"/>
      <point x="183" y="559" type="line"/>
      <point x="175" y="571" type="line"/>
    </contour>
    <contour>
      <point x="183" y="559" type="line"/>
      <point x="168" y="554" type="line"/>
      <point x="86" y="429" type="line"/>
      <point x="110" y="414" type="line"/>
      <point x="186" y="543" type="line"/>
    </contour>
  </outline>
</glyph>
<glyph name="plus" format="2">
  <advance width="400"/>
  <unicode hex="002B"/>
  <outline>
    <contour>
      <point x="216" y="496" type="line"/>
      <point x="186" y="496" type="line"/>
      <point x="186" y="345" type="line"/>
      <point x="60" y="345" type="line"/>
      <point x="60" y="316" type="line"/>
      <point x="186" y="316" type="line"/>
      <point x="186" y="165" type="line"/>
      <point x="216" y="165" type="line"/>
      <point x="216" y="316" type="line"/>
      <point x="340" y="316" type="line"/>
      <point x="340" y="345" type="line"/>
      <point x="216" y="345" type="line"/>
    </contour>
  </outline>
</glyph>
<glyph name="comma" format="2">
  <advance width="174"/>
  <unicode hex="002C"/>
  <outline>
    <contour>
      <point x="90" y="48" type="curve" smooth="yes"/>
      <point x="74" y="48"/>
      <point x="61" y="36"/>
      <point x="61" y="19" type="curve" smooth="yes"/>
      <point x="61" y="7"/>
      <point x="68" y="-3"/>
      <point x="80" y="-8" type="curve"/>
      <point x="45" y="-139" type="line"/>
      <point x="67" y="-139" type="line"/>
      <point x="108" y="-23" type="line" smooth="yes"/>
      <point x="114" y="-7"/>
      <point x="119" y="5"/>
      <point x="119" y="19" type="curve" smooth="yes"/>
      <point x="119" y="36"/>
      <point x="108" y="48"/>
    </contour>
  </outline>
</glyph>
<glyph name="hyphen" format="2">
  <advance width="327"/>
  <unicode hex="002D"/>
  <outline>
    <contour>
      <point x="60" y="299" type="line"/>
      <point x="267" y="299" type="line"/>
      <point x="267" y="327" type="line"/>
      <point x="60" y="327" type="line"/>
    </contour>
  </outline>
</glyph>
<glyph name="period" format="2">
  <advance width="168"/>
  <unicode hex="002E"/>
  <outline>
    <contour>
      <point x="84" y="48" type="curve" smooth="yes"/>
      <point x="66" y="48"/>
      <point x="55" y="34"/>
      <point x="55" y="19" type="curve" smooth="yes"/>
      <point x="55" y="4"/>
      <point x="66" y="-10"/>
      <point x="84" y="-10" type="curve" smooth="yes"/>
      <point x="102" y="-10"/>
      <point x="113" y="4"/>
      <point x="113" y="19" type="curve" smooth="yes"/>
      <point x="113" y="34"/>
      <point x="102" y="48"/>
    </contour>
  </outline>
</glyph>
<glyph name="slash" format="2">
  <advance width="426"/>
  <unicode hex="002F"/>
  <outline>
    <contour>
      <point x="296" y="799" type="line"/>
      <point x="104" y="-90" type="line"/>
      <point x="129" y="-96" type="line"/>
      <point x="321" y="793" type="line"/>
    </contour>
  </outline>
</glyph>
<glyph name="zero" format="2">
  <advance width="457"/>
  <unicode hex="0030"/>
  <outline>
    <contour>
      <point x="229" y="674" type="curve" smooth="yes"/>
      <point x="123" y="674"/>
      <point x="65" y="570"/>
      <point x="65" y="332" type="curve" smooth="yes"/>
      <point x="65" y="95"/>
      <point x="123" y="-10"/>
      <point x="229" y="-10" type="curve" smooth="yes"/>
      <point x="334" y="-10"/>
      <point x="392" y="93"/>
      <point x="392" y="330" type="curve" smooth="yes"/>
      <point x="392" y="570"/>
      <point x="334" y="674"/>
    </contour>
    <contour>
      <point x="229" y="646" type="curve" smooth="yes"/>
      <point x="315" y="646"/>
      <point x="361" y="554"/>
      <point x="361" y="330" type="curve" smooth="yes"/>
      <point x="361" y="107"/>
      <point x="314" y="18"/>
      <point x="229" y="18" type="curve" smooth="yes"/>
      <point x="144" y="18"/>
      <point x="96" y="109"/>
      <point x="96" y="332" type="curve" smooth="yes"/>
      <point x="96" y="556"/>
      <point x="145" y="646"/>
    </contour>
  </outline>
</glyph>
<glyph name="one" format="2">
  <advance width="328"/>
  <unicode hex="0031"/>
  <outline>
    <contour>
      <point x="218" y="662" type="line"/>
      <point x="194" y="662" type="line"/>
      <point x="35" y="542" type="line"/>
      <point x="50" y="520" type="line"/>
      <point x="188" y="626" type="line"/>
      <point x="188" y="0" type="line"/>
      <point x="218" y="0" type="line"/>
    </contour>
  </outline>
</glyph>
<glyph name="two" format="2">
  <advance width="373"/>
  <unicode hex="0032"/>
  <outline>
    <contour>
      <point x="171" y="674" type="curve" smooth="yes"/>
      <point x="110" y="674"/>
      <point x="64" y="644"/>
      <point x="20" y="584" type="curve"/>
      <point x="42" y="568" type="line"/>
      <point x="75" y="615"/>
      <point x="115" y="646"/>
      <point x="171" y="646" type="curve" smooth="yes"/>
      <point x="239" y="646"/>
      <point x="282" y="597"/>
      <point x="282" y="513" type="curve" smooth="yes"/>
      <point x="282" y="392"/>
      <point x="234" y="307"/>
      <point x="26" y="29" type="curve"/>
      <point x="26" y="0" type="line"/>
      <point x="322" y="0" type="line"/>
      <point x="328" y="30" type="line"/>
      <point x="61" y="30" type="line"/>
      <point x="252" y="290"/>
      <point x="312" y="382"/>
      <point x="312" y="513" type="curve" smooth="yes"/>
      <point x="312" y="608"/>
      <point x="259" y="674"/>
    </contour>
  </outline>
</glyph>
<glyph name="three" format="2">
  <advance width="393"/>
  <unicode hex="0033"/>
  <outline>
    <contour>
      <point x="178" y="674" type="curve" smooth="yes"/>
      <point x="121" y="674"/>
      <point x="77" y="650"/>
      <point x="35" y="601" type="curve"/>
      <point x="54" y="585" type="line"/>
      <point x="95" y="629"/>
      <point x="130" y="647"/>
      <point x="178" y="647" type="curve" smooth="yes"/>
      <point x="249" y="647"/>
      <point x="293" y="596"/>
      <point x="293" y="510" type="curve" smooth="yes"/>
      <point x="293" y="408"/>
      <point x="222" y="364"/>
      <point x="162" y="364" type="curve" smooth="yes"/>
      <point x="131" y="364" type="line"/>
      <point x="128" y="338" type="line"/>
      <point x="164" y="338" type="line" smooth="yes"/>
      <point x="245" y="338"/>
      <point x="307" y="295"/>
      <point x="307" y="185" type="curve" smooth="yes"/>
      <point x="307" y="83"/>
      <point x="257" y="17"/>
      <point x="174" y="17" type="curve" smooth="yes"/>
      <point x="119" y="17"/>
      <point x="83" y="36"/>
      <point x="41" y="88" type="curve"/>
      <point x="20" y="73" type="line"/>
      <point x="62" y="18"/>
      <point x="106" y="-10"/>
      <point x="175" y="-10" type="curve" smooth="yes"/>
      <point x="271" y="-10"/>
      <point x="337" y="67"/>
      <point x="337" y="186" type="curve" smooth="yes"/>
      <point x="337" y="297"/>
      <point x="276" y="346"/>
      <point x="202" y="353" type="curve"/>
      <point x="273" y="368"/>
      <point x="322" y="416"/>
      <point x="322" y="510" type="curve" smooth="yes"/>
      <point x="322" y="607"/>
      <point x="267" y="674"/>
    </contour>
  </outline>
</glyph>
<glyph name="four" format="2">
  <advance width="418"/>
  <unicode hex="0034"/>
  <outline>
    <contour>
      <point x="207" y="674" type="line"/>
      <point x="40" y="208" type="line"/>
      <point x="40" y="183" type="line"/>
      <point x="386" y="183" type="line"/>
      <point x="386" y="211" type="line"/>
      <point x="71" y="211" type="line"/>
      <point x="233" y="665" type="line"/>
    </contour>
    <contour>
      <point x="311" y="418" type="line"/>
      <point x="286" y="418" type="line"/>
      <point x="282" y="204" type="line"/>
      <point x="282" y="0" type="line"/>
      <point x="311" y="0" type="line"/>
    </contour>
  </outline>
</glyph>
<glyph name="five" format="2">
  <advance width="392"/>
  <unicode hex="0035"/>
  <outline>
    <contour>
      <point x="331" y="662" type="line"/>
      <point x="70" y="662" type="line"/>
      <point x="70" y="351" type="line"/>
      <point x="93" y="351" type="line"/>
      <point x="127" y="377"/>
      <point x="152" y="389"/>
      <point x="193" y="389" type="curve" smooth="yes"/>
      <point x="266" y="389"/>
      <point x="317" y="336"/>
      <point x="317" y="214" type="curve" smooth="yes"/>
      <point x="317" y="91"/>
      <point x="265" y="18"/>
      <point x="182" y="18" type="curve" smooth="yes"/>
      <point x="125" y="18"/>
      <point x="88" y="41"/>
      <point x="54" y="83" type="curve"/>
      <point x="32" y="66" type="line"/>
      <point x="71" y="18"/>
      <point x="117" y="-10"/>
      <point x="181" y="-10" type="curve" smooth="yes"/>
      <point x="284" y="-10"/>
      <point x="348" y="79"/>
      <point x="348" y="214" type="curve" smooth="yes"/>
      <point x="348" y="345"/>
      <point x="289" y="417"/>
      <point x="197" y="417" type="curve" smooth="yes"/>
      <point x="154" y="417"/>
      <point x="123" y="400"/>
      <point x="98" y="381" type="curve"/>
      <point x="98" y="634" type="line"/>
      <point x="325" y="634" type="line"/>
    </contour>
  </outline>
</glyph>
<glyph name="six" format="2">
  <advance width="432"/>
  <unicode hex="0036"/>
  <outline>
    <contour>
      <point x="255" y="674" type="curve"/>
      <point x="138" y="674"/>
      <point x="65" y="541"/>
      <point x="65" y="289" type="curve" smooth="yes"/>
      <point x="65" y="117"/>
      <point x="109" y="-10"/>
      <point x="231" y="-10" type="curve" smooth="yes"/>
      <point x="319" y="-10"/>
      <point x="382" y="65"/>
      <point x="382" y="222" type="curve" smooth="yes"/>
      <point x="382" y="366"/>
      <point x="319" y="428"/>
      <point x="240" y="428" type="curve" smooth="yes"/>
      <point x="170" y="428"/>
      <point x="121" y="377"/>
      <point x="89" y="312" type="curve"/>
      <point x="90" y="266" type="line"/>
      <point x="126" y="349"/>
      <point x="175" y="400"/>
      <point x="240" y="400" type="curve" smooth="yes"/>
      <point x="304" y="400"/>
      <point x="352" y="347"/>
      <point x="352" y="221" type="curve" smooth="yes"/>
      <point x="352" y="95"/>
      <point x="311" y="18"/>
      <point x="231" y="18" type="curve" smooth="yes"/>
      <point x="131" y="18"/>
      <point x="95" y="124"/>
      <point x="95" y="293" type="curve"/>
      <point x="95" y="308" type="line"/>
      <point x="96" y="514"/>
      <point x="153" y="646"/>
      <point x="254" y="646" type="curve"/>
      <point x="286" y="646"/>
      <point x="309" y="635"/>
      <point x="333" y="615" type="curve"/>
      <point x="350" y="636" type="line"/>
      <point x="323" y="659"/>
      <point x="295" y="674"/>
    </contour>
  </outline>
</glyph>
<glyph name="seven" format="2">
  <advance width="355"/>
  <unicode hex="0037"/>
  <outline>
    <contour>
      <point x="323" y="662" type="line"/>
      <point x="28" y="662" type="line"/>
      <point x="28" y="634" type="line"/>
      <point x="292" y="634" type="line"/>
      <point x="74" y="4" type="line"/>
      <point x="102" y="-6" type="line"/>
      <point x="323" y="637" type="line"/>
    </contour>
  </outline>
</glyph>
<glyph name="eight" format="2">
  <advance width="438"/>
  <unicode hex="0038"/>
  <outline>
    <contour>
      <point x="220" y="674" type="curve" smooth="yes"/>
      <point x="143" y="674"/>
      <point x="74" y="621"/>
      <point x="74" y="512" type="curve" smooth="yes"/>
      <point x="74" y="432"/>
      <point x="108" y="395"/>
      <point x="186" y="359" type="curve"/>
      <point x="193" y="352" type="line"/>
      <point x="235" y="332" type="line" smooth="yes"/>
      <point x="324" y="290"/>
      <point x="358" y="257"/>
      <point x="358" y="168" type="curve" smooth="yes"/>
      <point x="358" y="62"/>
      <point x="299" y="18"/>
      <point x="218" y="18" type="curve" smooth="yes"/>
      <point x="138" y="18"/>
      <point x="80" y="64"/>
      <point x="80" y="167" type="curve" smooth="yes"/>
      <point x="80" y="258"/>
      <point x="119" y="313"/>
      <point x="212" y="352" type="curve"/>
      <point x="189" y="366" type="line"/>
      <point x="97" y="330"/>
      <point x="50" y="262"/>
      <point x="50" y="167" type="curve" smooth="yes"/>
      <point x="50" y="57"/>
      <point x="115" y="-10"/>
      <point x="218" y="-10" type="curve" smooth="yes"/>
      <point x="319" y="-10"/>
      <point x="388" y="53"/>
      <point x="388" y="168" type="curve" smooth="yes"/>
      <point x="388" y="263"/>
      <point x="348" y="305"/>
      <point x="257" y="349" type="curve"/>
      <point x="245" y="355" type="line"/>
      <point x="205" y="375" type="line" smooth="yes"/>
      <point x="121" y="417"/>
      <point x="104" y="449"/>
      <point x="104" y="512" type="curve" smooth="yes"/>
      <point x="104" y="605"/>
      <point x="156" y="647"/>
      <point x="220" y="647" type="curve" smooth="yes"/>
      <point x="285" y="647"/>
      <point x="335" y="607"/>
      <point x="335" y="511" type="curve" smooth="yes"/>
      <point x="335" y="442"/>
      <point x="303" y="398"/>
      <point x="231" y="354" type="curve"/>
      <point x="251" y="342" type="line"/>
      <point x="331" y="389"/>
      <point x="365" y="436"/>
      <point x="365" y="511" type="curve" smooth="yes"/>
      <point x="365" y="626"/>
      <point x="294" y="674"/>
    </contour>
  </outline>
</glyph>
<glyph name="nine" format="2">
  <advance width="423"/>
  <unicode hex="0039"/>
  <outline>
    <contour>
      <point x="342" y="366" type="curve"/>
      <point x="339" y="401" type="line"/>
      <point x="300" y="324"/>
      <point x="258" y="281"/>
      <point x="198" y="281" type="curve" smooth="yes"/>
      <point x="126" y="281"/>
      <point x="80" y="341"/>
      <point x="80" y="457" type="curve" smooth="yes"/>
      <point x="80" y="589"/>
      <point x="130" y="646"/>
      <point x="208" y="646" type="curve" smooth="yes"/>
      <point x="300" y="646"/>
      <point x="335" y="563"/>
      <point x="335" y="390" type="curve"/>
      <point x="335" y="367" type="line"/>
      <point x="330" y="157"/>
      <point x="242" y="67"/>
      <point x="94" y="8" type="curve"/>
      <point x="103" y="-17" type="line"/>
      <point x="270" y="48"/>
      <point x="365" y="148"/>
      <point x="365" y="399" type="curve" smooth="yes"/>
      <point x="365" y="581"/>
      <point x="317" y="674"/>
      <point x="207" y="674" type="curve" smooth="yes"/>
      <point x="114" y="674"/>
      <point x="48" y="601"/>
      <point x="48" y="458" type="curve" smooth="yes"/>
      <point x="48" y="326"/>
      <point x="110" y="253"/>
      <point x="197" y="253" type="curve" smooth="yes"/>
      <point x="258" y="253"/>
      <point x="307" y="294"/>
    </contour>
  </outline>
</glyph>
<glyph name="greater" format="2">
  <advance width="404"/>
  <unicode hex="003E"/>
  <outline>
    <contour>
      <point x="73" y="508" type="line"/>
      <point x="57" y="485" type="line"/>
      <point x="318" y="333" type="line"/>
      <point x="57" y="177" type="line"/>
      <point x="72" y="153" type="line"/>
      <point x="347" y="322" type="line"/>
      <point x="347" y="344" type="line"/>
    </contour>
  </outline>
</glyph>
<glyph name="question" format="2">
  <advance width="372"/>
  <unicode hex="003F"/>
  <outline>
    <contour>
      <point x="193" y="692" type="curve" smooth="yes"/>
      <point x="132" y="692"/>
      <point x="87" y="664"/>
      <point x="45" y="605" type="curve"/>
      <point x="67" y="588" type="line"/>
      <point x="104" y="640"/>
      <point x="138" y="664"/>
      <point x="193" y="664" type="curve" smooth="yes"/>
      <point x="256" y="664"/>
      <point x="297" y="620"/>
      <point x="297" y="554" type="curve" smooth="yes"/>
      <point x="297" y="418"/>
      <point x="149" y="439"/>
      <point x="149" y="274" type="curve" smooth="yes"/>
      <point x="149" y="208" type="line"/>
      <point x="177" y="208" type="line"/>
      <point x="177" y="271" type="line" smooth="yes"/>
      <point x="177" y="426"/>
      <point x="327" y="407"/>
      <point x="327" y="554" type="curve" smooth="yes"/>
      <point x="327" y="630"/>
      <point x="277" y="692"/>
    </contour>
    <contour>
      <point x="163" y="48" type="curve" smooth="yes"/>
      <point x="145" y="48"/>
      <point x="134" y="34"/>
      <point x="134" y="19" type="curve" smooth="yes"/>
      <point x="134" y="4"/>
      <point x="145" y="-10"/>
      <point x="163" y="-10" type="curve" smooth="yes"/>
      <point x="181" y="-10"/>
      <point x="192" y="4"/>
      <point x="192" y="19" type="curve" smooth="yes"/>
      <point x="192" y="34"/>
      <point x="181" y="48"/>
    </contour>
  </outline>
</glyph>
<glyph name="at" format="2">
  <advance width="846"/>
  <unicode hex="0040"/>
  <outline>
    <contour>
      <point x="437" y="692" type="curve" smooth="yes"/>
      <point x="224" y="692"/>
      <point x="82" y="496"/>
      <point x="82" y="244" type="curve" smooth="yes"/>
      <point x="82" y="-45"/>
      <point x="231" y="-199"/>
      <point x="435" y="-199" type="curve" smooth="yes"/>
      <point x="507" y="-199"/>
      <point x="550" y="-184"/>
      <point x="596" y="-165" type="curve"/>
      <point x="587" y="-139" type="line"/>
      <point x="543" y="-159"/>
      <point x="498" y="-171"/>
      <point x="435" y="-171" type="curve" smooth="yes"/>
      <point x="244" y="-171"/>
      <point x="113" y="-29"/>
      <point x="113" y="244" type="curve" smooth="yes"/>
      <point x="113" y="479"/>
      <point x="243" y="664"/>
      <point x="437" y="664" type="curve" smooth="yes"/>
      <point x="628" y="664"/>
      <point x="733" y="514"/>
      <point x="733" y="307" type="curve" smooth="yes"/>
      <point x="733" y="97"/>
      <point x="682" y="41"/>
      <point x="625" y="41" type="curve" smooth="yes"/>
      <point x="573" y="41"/>
      <point x="548" y="89"/>
      <point x="548" y="187" type="curve"/>
      <point x="524" y="149" type="line"/>
      <point x="531" y="72"/>
      <point x="560" y="15"/>
      <point x="625" y="15" type="curve" smooth="yes"/>
      <point x="696" y="15"/>
      <point x="764" y="80"/>
      <point x="764" y="309" type="curve" smooth="yes"/>
      <point x="764" y="522"/>
      <point x="650" y="692"/>
    </contour>
    <contour>
      <point x="435" y="478" type="curve" smooth="yes"/>
      <point x="343" y="478"/>
      <point x="268" y="402"/>
      <point x="268" y="232" type="curve" smooth="yes"/>
      <point x="268" y="88"/>
      <point x="327" y="17"/>
      <point x="405" y="17" type="curve" smooth="yes"/>
      <point x="466" y="17"/>
      <point x="506" y="61"/>
      <point x="532" y="132" type="curve"/>
      <point x="520" y="173" type="line"/>
      <point x="506" y="104"/>
      <point x="464" y="45"/>
      <point x="406" y="45" type="curve" smooth="yes"/>
      <point x="340" y="45"/>
      <point x="299" y="107"/>
      <point x="299" y="232" type="curve" smooth="yes"/>
      <point x="299" y="370"/>
      <point x="351" y="450"/>
      <point x="436" y="450" type="curve" smooth="yes"/>
      <point x="468" y="450"/>
      <point x="492" y="441"/>
      <point x="519" y="429" type="curve"/>
      <point x="519" y="161" type="line"/>
      <point x="532" y="132" type="line"/>
      <point x="548" y="172" type="line"/>
      <point x="548" y="444" type="line"/>
      <point x="516" y="462"/>
      <point x="477" y="478"/>
    </contour>
  </outline>
</glyph>
<glyph name="A" format="2">
  <advance width="471"/>
  <unicode hex="0041"/>
  <anchor x="236" y="0" name="bottom"/>
  <anchor x="456" y="0" name="ogonek"/>
  <anchor x="236" y="682" name="top"/>
  <anchor x="146" y="682" name="topleft"/>
  <outline>
    <contour>
      <point x="255" y="682" type="line"/>
      <point x="216" y="682" type="line"/>
      <point x="25" y="0" type="line"/>
      <point x="54" y="0" type="line"/>
      <point x="235" y="657" type="line"/>
      <point x="415" y="0" type="line"/>
      <point x="446" y="0" type="line"/>
    </contour>
    <contour>
      <point x="360" y="227" type="line"/>
      <point x="110" y="227" type="line"/>
      <point x="100" y="199" type="line"/>
      <point x="369" y="199" type="line"/>
    </contour>
  </outline>
</glyph>
<glyph name="B" format="2">
  <advance width="485"/>
  <unicode hex="0042"/>
  <anchor x="255" y="0" name="bottom"/>
  <anchor x="240" y="682" name="top"/>
  <outline>
    <contour>
      <point x="212" y="682" type="curve" smooth="yes"/>
      <point x="97" y="682" type="line"/>
      <point x="97" y="0" type="line"/>
      <point x="243" y="0" type="line" smooth="yes"/>
      <point x="365" y="0"/>
      <point x="437" y="67"/>
      <point x="437" y="185" type="curve" smooth="yes"/>
      <point x="437" y="304"/>
      <point x="376" y="352"/>
      <point x="293" y="362" type="curve"/>
      <point x="369" y="379"/>
      <point x="410" y="427"/>
      <point x="410" y="513" type="curve" smooth="yes"/>
      <point x="410" y="621"/>
      <point x="339" y="682"/>
    </contour>
    <contour>
      <point x="216" y="653" type="line" smooth="yes"/>
      <point x="321" y="653"/>
      <point x="378" y="604"/>
      <point x="378" y="512" type="curve" smooth="yes"/>
      <point x="378" y="431"/>
      <point x="330" y="374"/>
      <point x="239" y="374" type="curve" smooth="yes"/>
      <point x="121" y="374" type="line"/>
      <point x="121" y="346" type="line"/>
      <point x="243" y="346" type="line" smooth="yes"/>
      <point x="348" y="346"/>
      <point x="405" y="295"/>
      <point x="405" y="185" type="curve" smooth="yes"/>
      <point x="405" y="81"/>
      <point x="346" y="29"/>
      <point x="244" y="29" type="curve" smooth="yes"/>
      <point x="128" y="29" type="line"/>
      <point x="128" y="653" type="line"/>
    </contour>
  </outline>
</glyph>
<glyph name="C" format="2">
  <advance width="446"/>
  <unicode hex="0043"/>
  <anchor x="280" y="0" name="bottom"/>
  <anchor x="270" y="344" name="center"/>
  <anchor x="281" y="682" name="top"/>
  <outline>
    <contour>
      <point x="283" y="692" type="curve" smooth="yes"/>
      <point x="160" y="692"/>
      <point x="60" y="587"/>
      <point x="60" y="341" type="curve" smooth="yes"/>
      <point x="60" y="102"/>
      <point x="155" y="-10"/>
      <point x="282" y="-10" type="curve" smooth="yes"/>
      <point x="346" y="-10"/>
      <point x="391" y="17"/>
      <point x="426" y="55" type="curve"/>
      <point x="407" y="76" type="line"/>
      <point x="375" y="44"/>
      <point x="342" y="20"/>
      <point x="282" y="20" type="curve" smooth="yes"/>
      <point x="175" y="20"/>
      <point x="92" y="116"/>
      <point x="92" y="341" type="curve" smooth="yes"/>
      <point x="92" y="578"/>
      <point x="178" y="663"/>
      <point x="285" y="663" type="curve" smooth="yes"/>
      <point x="334" y="663"/>
      <point x="364" y="647"/>
      <point x="402" y="613" type="curve"/>
      <point x="420" y="633" type="line"/>
      <point x="383" y="669"/>
      <point x="344" y="692"/>
    </contour>
  </outline>
</glyph>
<glyph name="D" format="2">
  <advance width="513"/>
  <unicode hex="0044"/>
  <anchor x="246" y="0" name="bottom"/>
  <anchor x="261" y="341" name="center"/>
  <anchor x="244" y="682" name="top"/>
  <outline>
    <contour>
      <point x="204" y="682" type="curve" smooth="yes"/>
      <point x="97" y="682" type="line"/>
      <point x="97" y="0" type="line"/>
      <point x="208" y="0" type="line" smooth="yes"/>
      <point x="321" y="0"/>
      <point x="453" y="63"/>
      <point x="453" y="348" type="curve" smooth="yes"/>
      <point x="453" y="625"/>
      <point x="327" y="682"/>
    </contour>
    <contour>
      <point x="204" y="653" type="line" smooth="yes"/>
      <point x="306" y="653"/>
      <point x="420" y="614"/>
      <point x="420" y="348" type="curve" smooth="yes"/>
      <point x="420" y="87"/>
      <point x="312" y="29"/>
      <point x="209" y="29" type="curve" smooth="yes"/>
      <point x="128" y="29" type="line"/>
      <point x="128" y="653" type="line"/>
    </contour>
  </outline>
</glyph>
<glyph name="E" format="2">
  <advance width="408"/>
  <unicode hex="0045"/>
  <anchor x="233" y="0" name="bottom"/>
  <anchor x="361" y="0" name="ogonek"/>
  <anchor x="237" y="682" name="top"/>
  <anchor x="74" y="682" name="topleft"/>
  <outline>
    <contour>
      <point x="369" y="682" type="line"/>
      <point x="97" y="682" type="line"/>
      <point x="97" y="0" type="line"/>
      <point x="374" y="0" type="line"/>
      <point x="374" y="29" type="line"/>
      <point x="128" y="29" type="line"/>
      <point x="128" y="345" type="line"/>
      <point x="333" y="345" type="line"/>
      <point x="333" y="373" type="line"/>
      <point x="128" y="373" type="line"/>
      <point x="128" y="653" type="line"/>
      <point x="365" y="653" type="line"/>
    </contour>
  </outline>
</glyph>
<glyph name="F" format="2">
  <advance width="389"/>
  <unicode hex="0046"/>
  <anchor x="113" y="0" name="bottom"/>
  <anchor x="239" y="682" name="top"/>
  <outline>
    <contour>
      <point x="97" y="0" type="line"/>
      <point x="128" y="0" type="line"/>
      <point x="128" y="331" type="line"/>
      <point x="329" y="331" type="line"/>
      <point x="329" y="359" type="line"/>
      <point x="128" y="359" type="line"/>
      <point x="128" y="653" type="line"/>
      <point x="361" y="653" type="line"/>
      <point x="365" y="682" type="line"/>
      <point x="97" y="682" type="line"/>
    </contour>
  </outline>
</glyph>
<glyph name="G" format="2">
  <advance width="501"/>
  <unicode hex="0047"/>
  <anchor x="277" y="0" name="bottom"/>
  <anchor x="287" y="682" name="top"/>
  <outline>
    <contour>
      <point x="286" y="692" type="curve" smooth="yes"/>
      <point x="175" y="692"/>
      <point x="60" y="583"/>
      <point x="60" y="345" type="curve" smooth="yes"/>
      <point x="60" y="109"/>
      <point x="153" y="-10"/>
      <point x="291" y="-10" type="curve" smooth="yes"/>
      <point x="343" y="-10"/>
      <point x="397" y="8"/>
      <point x="444" y="42" type="curve"/>
      <point x="444" y="359" type="line"/>
      <point x="294" y="359" type="line"/>
      <point x="298" y="330" type="line"/>
      <point x="414" y="330" type="line"/>
      <point x="414" y="58" type="line"/>
      <point x="377" y="33"/>
      <point x="341" y="19"/>
      <point x="289" y="19" type="curve" smooth="yes"/>
      <point x="171" y="19"/>
      <point x="92" y="125"/>
      <point x="92" y="345" type="curve" smooth="yes"/>
      <point x="92" y="574"/>
      <point x="193" y="663"/>
      <point x="286" y="663" type="curve" smooth="yes"/>
      <point x="338" y="663"/>
      <point x="373" y="647"/>
      <point x="413" y="610" type="curve"/>
      <point x="432" y="631" type="line"/>
      <point x="388" y="672"/>
      <point x="348" y="692"/>
    </contour>
  </outline>
</glyph>
<glyph name="H" format="2">
  <advance width="545"/>
  <unicode hex="0048"/>
  <anchor x="273" y="0" name="bottom"/>
  <anchor x="456" y="0" name="bottomright"/>
  <anchor x="271" y="341" name="center"/>
  <anchor x="271" y="682" name="top"/>
  <anchor x="74" y="682" name="topleft"/>
  <outline>
    <contour>
      <point x="417" y="0" type="line"/>
      <point x="448" y="0" type="line"/>
      <point x="448" y="682" type="line"/>
      <point x="417" y="682" type="line"/>
      <point x="417" y="373" type="line"/>
      <point x="128" y="373" type="line"/>
      <point x="128" y="682" type="line"/>
      <point x="97" y="682" type="line"/>
      <point x="97" y="0" type="line"/>
      <point x="128" y="0" type="line"/>
      <point x="128" y="345" type="line"/>
      <point x="417" y="345" type="line"/>
    </contour>
  </outline>
</glyph>
<glyph name="I" format="2">
  <advance width="225"/>
  <unicode hex="0049"/>
  <anchor x="113" y="0" name="bottom"/>
  <anchor x="136" y="0" name="ogonek"/>
  <anchor x="112" y="682" name="top"/>
  <anchor x="74" y="682" name="topleft"/>
  <outline>
    <contour>
      <point x="128" y="682" type="line"/>
      <point x="97" y="682" type="line"/>
      <point x="97" y="0" type="line"/>
      <point x="128" y="0" type="line"/>
    </contour>
  </outline>
</glyph>
<glyph name="J" format="2">
  <advance width="231"/>
  <unicode hex="004A"/>
  <anchor x="115" y="-193" name="bottom"/>
  <anchor x="122" y="682" name="top"/>
  <outline>
    <contour>
      <point x="139" y="682" type="line"/>
      <point x="108" y="682" type="line"/>
      <point x="108" y="90" type="line" smooth="yes"/>
      <point x="108" y="-4"/>
      <point x="90" y="-37"/>
      <point x="15" y="-83" type="curve"/>
      <point x="24" y="-104" type="line"/>
      <point x="116" y="-54"/>
      <point x="139" y="-15"/>
      <point x="139" y="88" type="curve" smooth="yes"/>
    </contour>
  </outline>
</glyph>
<glyph name="K" format="2">
  <advance width="438"/>
  <unicode hex="004B"/>
  <anchor x="248" y="0" name="bottom"/>
  <anchor x="241" y="682" name="top"/>
  <outline>
    <contour>
      <point x="414" y="682" type="line"/>
      <point x="380" y="682" type="line"/>
      <point x="131" y="367" type="line"/>
      <point x="393" y="0" type="line"/>
      <point x="428" y="0" type="line"/>
      <point x="167" y="367" type="line"/>
    </contour>
    <contour>
      <point x="128" y="682" type="line"/>
      <point x="97" y="682" type="line"/>
      <point x="97" y="0" type="line"/>
      <point x="128" y="0" type="line"/>
    </contour>
  </outline>
</glyph>
<glyph name="L" format="2">
  <advance width="380"/>
  <unicode hex="004C"/>
  <anchor x="231" y="0" name="bottom"/>
  <anchor x="292" y="354" name="center"/>
  <anchor x="113" y="682" name="top"/>
  <anchor x="152" y="682" name="topright"/>
  <outline>
    <contour>
      <point x="128" y="682" type="line"/>
      <point x="97" y="682" type="line"/>
      <point x="97" y="0" type="line"/>
      <point x="359" y="0" type="line"/>
      <point x="364" y="30" type="line"/>
      <point x="128" y="30" type="line"/>
    </contour>
  </outline>
</glyph>
<glyph name="M" format="2">
  <advance width="631"/>
  <unicode hex="004D"/>
  <anchor x="316" y="0" name="bottom"/>
  <anchor x="577" y="0" name="bottomright"/>
  <anchor x="315" y="682" name="top"/>
  <outline>
    <contour>
      <point x="510" y="682" type="line"/>
      <point x="465" y="682" type="line"/>
      <point x="316" y="121" type="line"/>
      <point x="164" y="682" type="line"/>
      <point x="119" y="682" type="line"/>
      <point x="62" y="0" type="line"/>
      <point x="91" y="0" type="line"/>
      <point x="118" y="351" type="line"/>
      <point x="127" y="459"/>
      <point x="139" y="597"/>
      <point x="142" y="655" type="curve"/>
      <point x="300" y="83" type="line"/>
      <point x="331" y="83" type="line"/>
      <point x="485" y="655" type="line"/>
      <point x="490" y="588"/>
      <point x="500" y="454"/>
      <point x="510" y="342" type="curve" smooth="yes"/>
      <point x="540" y="0" type="line"/>
      <point x="569" y="0" type="line"/>
    </contour>
  </outline>
</glyph>
<glyph name="N" format="2">
  <advance width="547"/>
  <unicode hex="004E"/>
  <anchor x="274" y="0" name="bottom"/>
  <anchor x="280" y="682" name="top"/>
  <outline>
    <contour>
      <point x="450" y="682" type="line"/>
      <point x="420" y="682" type="line"/>
      <point x="420" y="232" type="line"/>
      <point x="420" y="140"/>
      <point x="423" y="76"/>
      <point x="424" y="36" type="curve"/>
      <point x="137" y="682" type="line"/>
      <point x="97" y="682" type="line"/>
      <point x="97" y="0" type="line"/>
      <point x="127" y="0" type="line"/>
      <point x="127" y="438" type="line"/>
      <point x="127" y="557"/>
      <point x="125" y="607"/>
      <point x="123" y="646" type="curve"/>
      <point x="410" y="0" type="line"/>
      <point x="450" y="0" type="line"/>
    </contour>
  </outline>
</glyph>
<glyph name="O" format="2">
  <advance width="566"/>
  <unicode hex="004F"/>
  <anchor x="283" y="0" name="bottom"/>
  <anchor x="354" y="0" name="ogonek"/>
  <anchor x="283" y="682" name="top"/>
  <anchor x="86" y="682" name="topleft"/>
  <anchor x="441" y="682" name="topright"/>
  <outline>
    <contour>
      <point x="283" y="692" type="curve" smooth="yes"/>
      <point x="152" y="692"/>
      <point x="60" y="574"/>
      <point x="60" y="339" type="curve" smooth="yes"/>
      <point x="60" y="105"/>
      <point x="151" y="-10"/>
      <point x="283" y="-10" type="curve" smooth="yes"/>
      <point x="420" y="-10"/>
      <point x="506" y="109"/>
      <point x="506" y="340" type="curve" smooth="yes"/>
      <point x="506" y="580"/>
      <point x="416" y="692"/>
    </contour>
    <contour>
      <point x="283" y="663" type="curve"/>
      <point x="398" y="663"/>
      <point x="474" y="566"/>
      <point x="474" y="340" type="curve" smooth="yes"/>
      <point x="474" y="119"/>
      <point x="402" y="19"/>
      <point x="283" y="19" type="curve" smooth="yes"/>
      <point x="171" y="19"/>
      <point x="92" y="119"/>
      <point x="92" y="339" type="curve" smooth="yes"/>
      <point x="92" y="564"/>
      <point x="170" y="663"/>
    </contour>
  </outline>
</glyph>
<glyph name="P" format="2">
  <advance width="457"/>
  <unicode hex="0050"/>
  <anchor x="113" y="0" name="bottom"/>
  <anchor x="232" y="682" name="top"/>
  <anchor x="74" y="682" name="topleft"/>
  <outline>
    <contour>
      <point x="128" y="0" type="line"/>
      <point x="128" y="653" type="line"/>
      <point x="188" y="653" type="line" smooth="yes"/>
      <point x="326" y="653"/>
      <point x="387" y="606"/>
      <point x="387" y="482" type="curve" smooth="yes"/>
      <point x="387" y="352"/>
      <point x="316" y="307"/>
      <point x="187" y="307" type="curve" smooth="yes"/>
      <point x="121" y="307" type="line"/>
      <point x="121" y="278" type="line"/>
      <point x="185" y="278" type="line" smooth="yes"/>
      <point x="334" y="278"/>
      <point x="419" y="338"/>
      <point x="419" y="483" type="curve" smooth="yes"/>
      <point x="419" y="619"/>
      <point x="346" y="682"/>
      <point x="188" y="682" type="curve" smooth="yes"/>
      <point x="97" y="682" type="line"/>
      <point x="97" y="0" type="line"/>
    </contour>
  </outline>
</glyph>
<glyph name="Q" format="2">
  <advance width="566"/>
  <unicode hex="0051"/>
  <anchor x="277" y="0" name="bottom"/>
  <anchor x="277" y="682" name="top"/>
  <outline>
    <contour>
      <point x="283" y="692" type="curve" smooth="yes"/>
      <point x="152" y="692"/>
      <point x="60" y="575"/>
      <point x="60" y="339" type="curve" smooth="yes"/>
      <point x="60" y="104"/>
      <point x="151" y="-8"/>
      <point x="283" y="-8" type="curve" smooth="yes"/>
      <point x="295" y="-8"/>
      <point x="307" y="-7"/>
      <point x="319" y="-5" type="curve"/>
      <point x="356" y="11" type="line"/>
      <point x="440" y="40"/>
      <point x="506" y="126"/>
      <point x="506" y="340" type="curve" smooth="yes"/>
      <point x="506" y="581"/>
      <point x="416" y="692"/>
    </contour>
    <contour>
      <point x="356" y="11" type="curve"/>
      <point x="283" y="-8" type="line"/>
      <point x="382" y="-8"/>
      <point x="443" y="-22"/>
      <point x="503" y="-84" type="curve"/>
      <point x="525" y="-61" type="line"/>
      <point x="476" y="-7"/>
      <point x="416" y="9"/>
    </contour>
    <contour>
      <point x="283" y="663" type="curve"/>
      <point x="398" y="663"/>
      <point x="474" y="566"/>
      <point x="474" y="340" type="curve" smooth="yes"/>
      <point x="474" y="119"/>
      <point x="402" y="19"/>
      <point x="283" y="19" type="curve" smooth="yes"/>
      <point x="171" y="19"/>
      <point x="92" y="119"/>
      <point x="92" y="339" type="curve" smooth="yes"/>
      <point x="92" y="564"/>
      <point x="170" y="663"/>
    </contour>
  </outline>
</glyph>
<glyph name="R" format="2">
  <advance width="475"/>
  <unicode hex="0052"/>
  <anchor x="251" y="0" name="bottom"/>
  <anchor x="239" y="682" name="top"/>
  <outline>
    <contour>
      <point x="206" y="682" type="curve" smooth="yes"/>
      <point x="97" y="682" type="line"/>
      <point x="97" y="0" type="line"/>
      <point x="128" y="0" type="line"/>
      <point x="128" y="653" type="line"/>
      <point x="203" y="653" type="line" smooth="yes"/>
      <point x="340" y="653"/>
      <point x="383" y="599"/>
      <point x="383" y="503" type="curve" smooth="yes"/>
      <point x="383" y="397"/>
      <point x="327" y="349"/>
      <point x="211" y="349" type="curve" smooth="yes"/>
      <point x="121" y="349" type="line"/>
      <point x="121" y="320" type="line"/>
      <point x="217" y="320" type="line" smooth="yes"/>
      <point x="337" y="320"/>
      <point x="416" y="385"/>
      <point x="416" y="503" type="curve" smooth="yes"/>
      <point x="416" y="615"/>
      <point x="357" y="682"/>
    </contour>
    <contour>
      <point x="286" y="332" type="line"/>
      <point x="253" y="327" type="line"/>
      <point x="409" y="0" type="line"/>
      <point x="444" y="0" type="line"/>
    </contour>
  </outline>
</glyph>
<glyph name="S" format="2">
  <advance width="439"/>
  <unicode hex="0053"/>
  <anchor x="215" y="0" name="bottom"/>
  <anchor x="221" y="682" name="top"/>
  <outline>
    <contour>
      <point x="218" y="692" type="curve" smooth="yes"/>
      <point x="125" y="692"/>
      <point x="61" y="618"/>
      <point x="61" y="533" type="curve" smooth="yes"/>
      <point x="61" y="448"/>
      <point x="103" y="399"/>
      <point x="217" y="354" type="curve" smooth="yes"/>
      <point x="320" y="313"/>
      <point x="357" y="273"/>
      <point x="357" y="182" type="curve" smooth="yes"/>
      <point x="357" y="87"/>
      <point x="299" y="19"/>
      <point x="210" y="19" type="curve" smooth="yes"/>
      <point x="142" y="19"/>
      <point x="100" y="49"/>
      <point x="59" y="91" type="curve"/>
      <point x="39" y="73" type="line"/>
      <point x="84" y="23"/>
      <point x="137" y="-10"/>
      <point x="211" y="-10" type="curve" smooth="yes"/>
      <point x="314" y="-10"/>
      <point x="388" y="73"/>
      <point x="388" y="183" type="curve" smooth="yes"/>
      <point x="388" y="289"/>
      <point x="336" y="338"/>
      <point x="228" y="380" type="curve" smooth="yes"/>
      <point x="129" y="418"/>
      <point x="92" y="457"/>
      <point x="92" y="533" type="curve" smooth="yes"/>
      <point x="92" y="606"/>
      <point x="142" y="663"/>
      <point x="218" y="663" type="curve" smooth="yes"/>
      <point x="273" y="663"/>
      <point x="309" y="644"/>
      <point x="351" y="601" type="curve"/>
      <point x="371" y="620" type="line"/>
      <point x="329" y="664"/>
      <point x="288" y="692"/>
    </contour>
  </outline>
</glyph>
<glyph name="T" format="2">
  <advance width="394"/>
  <unicode hex="0054"/>
  <anchor x="197" y="0" name="bottom"/>
  <anchor x="221" y="0" name="bottomright"/>
  <anchor x="197" y="348" name="center"/>
  <anchor x="197" y="682" name="top"/>
  <outline>
    <contour>
      <point x="386" y="682" type="line"/>
      <point x="12" y="682" type="line"/>
      <point x="12" y="653" type="line"/>
      <point x="182" y="653" type="line"/>
      <point x="182" y="0" type="line"/>
      <point x="213" y="0" type="line"/>
      <point x="213" y="653" type="line"/>
      <point x="382" y="653" type="line"/>
    </contour>
  </outline>
</glyph>
<glyph name="U" format="2">
  <advance width="526"/>
  <unicode hex="0055"/>
  <anchor x="263" y="0" name="bottom"/>
  <anchor x="334" y="0" name="ogonek"/>
  <anchor x="263" y="682" name="top"/>
  <anchor x="447" y="682" name="topright"/>
  <outline>
    <contour>
      <point x="439" y="682" type="line"/>
      <point x="408" y="682" type="line"/>
      <point x="408" y="181" type="line" smooth="yes"/>
      <point x="408" y="89"/>
      <point x="366" y="19"/>
      <point x="263" y="19" type="curve" smooth="yes"/>
      <point x="161" y="19"/>
      <point x="118" y="86"/>
      <point x="118" y="181" type="curve" smooth="yes"/>
      <point x="118" y="682" type="line"/>
      <point x="87" y="682" type="line"/>
      <point x="87" y="178" type="line" smooth="yes"/>
      <point x="87" y="73"/>
      <point x="141" y="-10"/>
      <point x="263" y="-10" type="curve" smooth="yes"/>
      <point x="385" y="-10"/>
      <point x="439" y="73"/>
      <point x="439" y="178" type="curve" smooth="yes"/>
    </contour>
  </outline>
</glyph>
<glyph name="V" format="2">
  <advance width="443"/>
  <unicode hex="0056"/>
  <anchor x="222" y="0" name="bottom"/>
  <anchor x="222" y="682" name="top"/>
  <outline>
    <contour>
      <point x="424" y="682" type="line"/>
      <point x="393" y="682" type="line"/>
      <point x="222" y="29" type="line"/>
      <point x="50" y="682" type="line"/>
      <point x="19" y="682" type="line"/>
      <point x="203" y="0" type="line"/>
      <point x="240" y="0" type="line"/>
    </contour>
  </outline>
</glyph>
<glyph name="W" format="2">
  <advance width="664"/>
  <unicode hex="0057"/>
  <anchor x="332" y="0" name="bottom"/>
  <anchor x="332" y="682" name="top"/>
  <outline>
    <contour>
      <point x="632" y="682" type="line"/>
      <point x="602" y="682" type="line"/>
      <point x="484" y="32" type="line"/>
      <point x="351" y="682" type="line"/>
      <point x="312" y="682" type="line"/>
      <point x="181" y="32" type="line"/>
      <point x="63" y="682" type="line"/>
      <point x="32" y="682" type="line"/>
      <point x="161" y="0" type="line"/>
      <point x="199" y="0" type="line"/>
      <point x="332" y="652" type="line"/>
      <point x="464" y="0" type="line"/>
      <point x="503" y="0" type="line"/>
    </contour>
  </outline>
</glyph>
<glyph name="X" format="2">
  <advance width="407"/>
  <unicode hex="0058"/>
  <anchor x="202" y="0" name="bottom"/>
  <anchor x="374" y="0" name="bottomright"/>
  <anchor x="202" y="682" name="top"/>
  <outline>
    <contour>
      <point x="61" y="682" type="line"/>
      <point x="29" y="682" type="line"/>
      <point x="183" y="369" type="line"/>
      <point x="201" y="350" type="line"/>
      <point x="364" y="0" type="line"/>
      <point x="396" y="0" type="line"/>
      <point x="219" y="370" type="line"/>
      <point x="201" y="388" type="line"/>
    </contour>
    <contour>
      <point x="371" y="682" type="line"/>
      <point x="339" y="682" type="line"/>
      <point x="201" y="388" type="line"/>
      <point x="183" y="369" type="line"/>
      <point x="11" y="0" type="line"/>
      <point x="43" y="0" type="line"/>
      <point x="201" y="350" type="line"/>
      <point x="219" y="370" type="line"/>
    </contour>
  </outline>
</glyph>
<glyph name="Y" format="2">
  <advance width="414"/>
  <unicode hex="0059"/>
  <anchor x="209" y="0" name="bottom"/>
  <anchor x="207" y="682" name="top"/>
  <anchor x="11" y="682" name="topleft"/>
  <outline>
    <contour>
      <point x="399" y="682" type="line"/>
      <point x="367" y="682" type="line"/>
      <point x="209" y="299" type="line"/>
      <point x="48" y="682" type="line"/>
      <point x="15" y="682" type="line"/>
      <point x="193" y="269" type="line"/>
      <point x="193" y="0" type="line"/>
      <point x="224" y="0" type="line"/>
      <point x="224" y="270" type="line"/>
    </contour>
  </outline>
</glyph>
<glyph name="Z" format="2">
  <advance width="420"/>
  <unicode hex="005A"/>
  <anchor x="212" y="0" name="bottom"/>
  <anchor x="211" y="682" name="top"/>
  <outline>
    <contour>
      <point x="379" y="682" type="line"/>
      <point x="63" y="682" type="line"/>
      <point x="63" y="653" type="line"/>
      <point x="347" y="653" type="line"/>
      <point x="32" y="28" type="line"/>
      <point x="32" y="0" type="line"/>
      <point x="367" y="0" type="line"/>
      <point x="371" y="30" type="line"/>
      <point x="64" y="30" type="line"/>
      <point x="379" y="655" type="line"/>
    </contour>
  </outline>
</glyph>
<glyph name="bracketleft" format="2">
  <advance width="258"/>
  <unicode hex="005B"/>
  <outline>
    <contour>
      <point x="195" y="799" type="line"/>
      <point x="79" y="799" type="line"/>
      <point x="79" y="-109" type="line"/>
      <point x="195" y="-109" type="line"/>
      <point x="195" y="-86" type="line"/>
      <point x="105" y="-86" type="line"/>
      <point x="105" y="776" type="line"/>
      <point x="195" y="776" type="line"/>
    </contour>
  </outline>
</glyph>
<glyph name="backslash" format="2">
  <advance width="426"/>
  <unicode hex="005C"/>
  <outline>
    <contour>
      <point x="129" y="799" type="line"/>
      <point x="104" y="793" type="line"/>
      <point x="296" y="-96" type="line"/>
      <point x="321" y="-90" type="line"/>
    </contour>
  </outline>
</glyph>
<glyph name="bracketright" format="2">
  <advance width="258"/>
  <unicode hex="005D"/>
  <outline>
    <contour>
      <point x="179" y="799" type="line"/>
      <point x="63" y="799" type="line"/>
      <point x="63" y="776" type="line"/>
      <point x="152" y="776" type="line"/>
      <point x="152" y="-86" type="line"/>
      <point x="63" y="-86" type="line"/>
      <point x="63" y="-109" type="line"/>
      <point x="179" y="-109" type="line"/>
    </contour>
  </outline>
</glyph>
<glyph name="asciicircum" format="2">
  <advance width="431"/>
  <unicode hex="005E"/>
  <outline>
    <contour>
      <point x="227" y="826" type="line"/>
      <point x="204" y="826" type="line"/>
      <point x="55" y="527" type="line"/>
      <point x="91" y="527" type="line"/>
      <point x="215" y="788" type="line"/>
      <point x="338" y="527" type="line"/>
      <point x="376" y="527" type="line"/>
    </contour>
  </outline>
</glyph>
<glyph name="underscore" format="2">
  <advance width="432"/>
  <unicode hex="005F"/>
  <outline>
    <contour>
      <point x="32" y="-105" type="line"/>
      <point x="400" y="-105" type="line"/>
      <point x="400" y="-77" type="line"/>
      <point x="32" y="-77" type="line"/>
    </contour>
  </outline>
</glyph>
<glyph name="a" format="2">
  <advance width="437"/>
  <unicode hex="0061"/>
  <anchor x="211" y="0" name="bottom"/>
  <anchor x="382" y="-10" name="ogonek"/>
  <anchor x="211" y="520" name="top"/>
  <outline>
    <contour>
      <point x="216" y="530" type="curve" smooth="yes"/>
      <point x="168" y="530"/>
      <point x="128" y="517"/>
      <point x="85" y="496" type="curve"/>
      <point x="94" y="472" type="line"/>
      <point x="135" y="491"/>
      <point x="173" y="503"/>
      <point x="215" y="503" type="curve" smooth="yes"/>
      <point x="288" y="503"/>
      <point x="315" y="458"/>
      <point x="315" y="379" type="curve"/>
      <point x="315" y="112" type="line"/>
      <point x="318" y="88" type="line"/>
      <point x="318" y="31"/>
      <point x="335" y="3"/>
      <point x="374" y="-10" type="curve"/>
      <point x="381" y="11" type="line"/>
      <point x="356" y="23"/>
      <point x="345" y="43"/>
      <point x="345" y="90" type="curve" smooth="yes"/>
      <point x="345" y="382" type="line" smooth="yes"/>
      <point x="345" y="476"/>
      <point x="304" y="530"/>
    </contour>
    <contour>
      <point x="321" y="309" type="line"/>
      <point x="232" y="309" type="line" smooth="yes"/>
      <point x="120" y="309"/>
      <point x="52" y="251"/>
      <point x="52" y="144" type="curve" smooth="yes"/>
      <point x="52" y="52"/>
      <point x="101" y="-10"/>
      <point x="182" y="-10" type="curve" smooth="yes"/>
      <point x="246" y="-10"/>
      <point x="292" y="26"/>
      <point x="323" y="94" type="curve"/>
      <point x="318" y="130" type="line"/>
      <point x="291" y="61"/>
      <point x="249" y="18"/>
      <point x="184" y="18" type="curve" smooth="yes"/>
      <point x="123" y="18"/>
      <point x="84" y="61"/>
      <point x="84" y="144" type="curve" smooth="yes"/>
      <point x="84" y="237"/>
      <point x="134" y="282"/>
      <point x="234" y="282" type="curve" smooth="yes"/>
      <point x="321" y="282" type="line"/>
    </contour>
  </outline>
</glyph>
<glyph name="b" format="2">
  <advance width="466"/>
  <unicode hex="0062"/>
  <anchor x="246" y="0" name="bottom"/>
  <anchor x="243" y="734" name="top"/>
  <outline>
    <contour>
      <point x="257" y="530" type="curve" smooth="yes"/>
      <point x="354" y="530"/>
      <point x="410" y="446"/>
      <point x="410" y="264" type="curve" smooth="yes"/>
      <point x="410" y="84"/>
      <point x="352" y="-10"/>
      <point x="249" y="-10" type="curve" smooth="yes"/>
      <point x="187" y="-10"/>
      <point x="141" y="36"/>
      <point x="116" y="83" type="curve"/>
      <point x="118" y="119" type="line"/>
      <point x="151" y="60"/>
      <point x="192" y="18"/>
      <point x="248" y="18" type="curve" smooth="yes"/>
      <point x="332" y="18"/>
      <point x="378" y="95"/>
      <point x="378" y="264" type="curve" smooth="yes"/>
      <point x="378" y="432"/>
      <point x="334" y="502"/>
      <point x="255" y="502" type="curve" smooth="yes"/>
      <point x="192" y="502"/>
      <point x="154" y="460"/>
      <point x="118" y="398" type="curve"/>
      <point x="117" y="434" type="line"/>
      <point x="147" y="488"/>
      <point x="191" y="530"/>
    </contour>
    <contour>
      <point x="123" y="738" type="line"/>
      <point x="123" y="96" type="line"/>
      <point x="119" y="0" type="line"/>
      <point x="93" y="0" type="line"/>
      <point x="93" y="734" type="line"/>
    </contour>
  </outline>
</glyph>
<glyph name="c" format="2">
  <advance width="374"/>
  <unicode hex="0063"/>
  <anchor x="232" y="0" name="bottom"/>
  <anchor x="232" y="520" name="top"/>
  <outline>
    <contour>
      <point x="234" y="530" type="curve" smooth="yes"/>
      <point x="127" y="530"/>
      <point x="56" y="436"/>
      <point x="56" y="257" type="curve" smooth="yes"/>
      <point x="56" y="79"/>
      <point x="127" y="-10"/>
      <point x="234" y="-10" type="curve" smooth="yes"/>
      <point x="281" y="-10"/>
      <point x="320" y="11"/>
      <point x="352" y="44" type="curve"/>
      <point x="335" y="62" type="line"/>
      <point x="308" y="36"/>
      <point x="275" y="18"/>
      <point x="233" y="18" type="curve" smooth="yes"/>
      <point x="148" y="18"/>
      <point x="88" y="89"/>
      <point x="88" y="257" type="curve" smooth="yes"/>
      <point x="88" y="429"/>
      <point x="150" y="502"/>
      <point x="234" y="502" type="curve" smooth="yes"/>
      <point x="275" y="502"/>
      <point x="303" y="487"/>
      <point x="330" y="460" type="curve"/>
      <point x="347" y="480" type="line"/>
      <point x="313" y="515"/>
      <point x="279" y="530"/>
    </contour>
  </outline>
</glyph>
<glyph name="d" format="2">
  <advance width="470"/>
  <unicode hex="0064"/>
  <anchor x="241" y="0" name="bottom"/>
  <anchor x="237" y="260" name="center"/>
  <anchor x="226" y="734" name="top"/>
  <anchor x="399" y="734" name="topright"/>
  <outline>
    <contour>
      <point x="225" y="530" type="curve" smooth="yes"/>
      <point x="121" y="530"/>
      <point x="56" y="426"/>
      <point x="56" y="258" type="curve" smooth="yes"/>
      <point x="56" y="84"/>
      <point x="119" y="-10"/>
      <point x="217" y="-10" type="curve" smooth="yes"/>
      <point x="287" y="-10"/>
      <point x="327" y="37"/>
      <point x="351" y="91" type="curve"/>
      <point x="351" y="141" type="line"/>
      <point x="321" y="63"/>
      <point x="282" y="18"/>
      <point x="217" y="18" type="curve" smooth="yes"/>
      <point x="138" y="18"/>
      <point x="89" y="99"/>
      <point x="88" y="258" type="curve" smooth="yes"/>
      <point x="87" y="420"/>
      <point x="144" y="502"/>
      <point x="225" y="502" type="curve" smooth="yes"/>
      <point x="289" y="502"/>
      <point x="327" y="454"/>
      <point x="352" y="403" type="curve"/>
      <point x="353" y="446" type="line"/>
      <point x="330" y="486"/>
      <point x="292" y="530"/>
    </contour>
    <contour>
      <point x="347" y="738" type="line"/>
      <point x="347" y="117" type="line"/>
      <point x="347" y="96" type="line"/>
      <point x="350" y="0" type="line"/>
      <point x="377" y="0" type="line"/>
      <point x="377" y="734" type="line"/>
    </contour>
  </outline>
</glyph>
<glyph name="e" format="2">
  <advance width="434"/>
  <unicode hex="0065"/>
  <anchor x="235" y="0" name="bottom"/>
  <anchor x="309" y="5" name="ogonek"/>
  <anchor x="225" y="520" name="top"/>
  <outline>
    <contour>
      <point x="225" y="530" type="curve" smooth="yes"/>
      <point x="123" y="530"/>
      <point x="56" y="436"/>
      <point x="56" y="256" type="curve" smooth="yes"/>
      <point x="56" y="78"/>
      <point x="126" y="-10"/>
      <point x="233" y="-10" type="curve" smooth="yes"/>
      <point x="287" y="-10"/>
      <point x="327" y="13"/>
      <point x="366" y="52" type="curve"/>
      <point x="349" y="71" type="line"/>
      <point x="313" y="38"/>
      <point x="282" y="18"/>
      <point x="232" y="18" type="curve" smooth="yes"/>
      <point x="150" y="18"/>
      <point x="89" y="81"/>
      <point x="87" y="256" type="curve"/>
      <point x="87" y="438"/>
      <point x="149" y="502"/>
      <point x="225" y="502" type="curve" smooth="yes"/>
      <point x="313" y="502"/>
      <point x="353" y="426"/>
      <point x="353" y="294" type="curve" smooth="yes"/>
      <point x="353" y="280"/>
      <point x="353" y="276"/>
      <point x="353" y="270" type="curve"/>
      <point x="82" y="270" type="line"/>
      <point x="82" y="244" type="line"/>
      <point x="381" y="244" type="line"/>
      <point x="382" y="253"/>
      <point x="383" y="268"/>
      <point x="383" y="283" type="curve" smooth="yes"/>
      <point x="383" y="441"/>
      <point x="329" y="530"/>
    </contour>
  </outline>
</glyph>
<glyph name="f" format="2">
  <advance width="256"/>
  <unicode hex="0066"/>
  <anchor x="111" y="0" name="bottom"/>
  <anchor x="206" y="734" name="top"/>
  <outline>
    <contour>
      <point x="205" y="738" type="curve" smooth="yes"/>
      <point x="140" y="738"/>
      <point x="96" y="698"/>
      <point x="96" y="627" type="curve" smooth="yes"/>
      <point x="96" y="0" type="line"/>
      <point x="126" y="0" type="line"/>
      <point x="126" y="623" type="line" smooth="yes"/>
      <point x="126" y="687"/>
      <point x="158" y="710"/>
      <point x="207" y="710" type="curve" smooth="yes"/>
      <point x="237" y="710"/>
      <point x="261" y="702"/>
      <point x="289" y="686" type="curve"/>
      <point x="302" y="709" type="line"/>
      <point x="273" y="727"/>
      <point x="240" y="738"/>
    </contour>
    <contour>
      <point x="244" y="520" type="line"/>
      <point x="23" y="520" type="line"/>
      <point x="23" y="493" type="line"/>
      <point x="239" y="493" type="line"/>
    </contour>
  </outline>
</glyph>
<glyph name="g" format="2">
  <advance width="403"/>
  <unicode hex="0067"/>
  <anchor x="206" y="-193" name="bottom"/>
  <anchor x="202" y="520" name="top"/>
  <outline>
    <contour>
      <point x="383" y="552" type="line"/>
      <point x="346" y="538"/>
      <point x="320" y="530"/>
      <point x="202" y="530" type="curve" smooth="yes"/>
      <point x="107" y="530"/>
      <point x="49" y="466"/>
      <point x="49" y="359" type="curve" smooth="yes"/>
      <point x="49" y="288"/>
      <point x="73" y="240"/>
      <point x="121" y="210" type="curve"/>
      <point x="92" y="189"/>
      <point x="74" y="161"/>
      <point x="74" y="125" type="curve" smooth="yes"/>
      <point x="74" y="76"/>
      <point x="109" y="39"/>
      <point x="187" y="39" type="curve" smooth="yes"/>
      <point x="237" y="39" type="line" smooth="yes"/>
      <point x="312" y="39"/>
      <point x="350" y="3"/>
      <point x="350" y="-58" type="curve" smooth="yes"/>
      <point x="350" y="-124"/>
      <point x="309" y="-171"/>
      <point x="205" y="-171" type="curve" smooth="yes"/>
      <point x="98" y="-171"/>
      <point x="61" y="-137"/>
      <point x="59" y="-57" type="curve"/>
      <point x="31" y="-57" type="line"/>
      <point x="31" y="-155"/>
      <point x="83" y="-199"/>
      <point x="205" y="-199" type="curve" smooth="yes"/>
      <point x="325" y="-199"/>
      <point x="381" y="-140"/>
      <point x="381" y="-56" type="curve" smooth="yes"/>
      <point x="381" y="17"/>
      <point x="331" y="66"/>
      <point x="240" y="66" type="curve" smooth="yes"/>
      <point x="190" y="66" type="line" smooth="yes"/>
      <point x="124" y="66"/>
      <point x="103" y="93"/>
      <point x="103" y="130" type="curve" smooth="yes"/>
      <point x="103" y="159"/>
      <point x="119" y="183"/>
      <point x="144" y="200" type="curve"/>
      <point x="160" y="193"/>
      <point x="179" y="189"/>
      <point x="200" y="189" type="curve" smooth="yes"/>
      <point x="293" y="189"/>
      <point x="350" y="250"/>
      <point x="350" y="356" type="curve" smooth="yes"/>
      <point x="350" y="437"/>
      <point x="320" y="482"/>
      <point x="278" y="506" type="curve"/>
      <point x="332" y="507"/>
      <point x="367" y="512"/>
      <point x="392" y="520" type="curve"/>
    </contour>
    <contour>
      <point x="201" y="503" type="curve" smooth="yes"/>
      <point x="281" y="503"/>
      <point x="319" y="442"/>
      <point x="319" y="356" type="curve" smooth="yes"/>
      <point x="319" y="262"/>
      <point x="276" y="216"/>
      <point x="200" y="216" type="curve" smooth="yes"/>
      <point x="130" y="216"/>
      <point x="80" y="264"/>
      <point x="80" y="359" type="curve" smooth="yes"/>
      <point x="80" y="448"/>
      <point x="119" y="503"/>
    </contour>
  </outline>
</glyph>
<glyph name="h" format="2">
  <advance width="478"/>
  <unicode hex="0068"/>
  <anchor x="242" y="0" name="bottom"/>
  <anchor x="243" y="260" name="center"/>
  <anchor x="243" y="734" name="top"/>
  <outline>
    <contour>
      <point x="360" y="0" type="line"/>
      <point x="390" y="0" type="line"/>
      <point x="390" y="370" type="line" smooth="yes"/>
      <point x="390" y="472"/>
      <point x="351" y="530"/>
      <point x="274" y="530" type="curve" smooth="yes"/>
      <point x="200" y="530"/>
      <point x="153" y="479"/>
      <point x="115" y="407" type="curve"/>
      <point x="123" y="379" type="line"/>
      <point x="162" y="453"/>
      <point x="209" y="503"/>
      <point x="271" y="503" type="curve" smooth="yes"/>
      <point x="330" y="503"/>
      <point x="360" y="459"/>
      <point x="360" y="366" type="curve" smooth="yes"/>
    </contour>
    <contour>
      <point x="93" y="0" type="line"/>
      <point x="123" y="0" type="line"/>
      <point x="123" y="739" type="line"/>
      <point x="93" y="734" type="line"/>
    </contour>
  </outline>
</glyph>
<glyph name="k" format="2">
  <advance width="388"/>
  <unicode hex="006B"/>
  <anchor x="219" y="0" name="bottom"/>
  <anchor x="215" y="734" name="top"/>
  <outline>
    <contour>
      <point x="358" y="520" type="line"/>
      <point x="323" y="520" type="line"/>
      <point x="128" y="284" type="line"/>
      <point x="343" y="0" type="line"/>
      <point x="378" y="0" type="line"/>
      <point x="163" y="285" type="line"/>
    </contour>
    <contour>
      <point x="123" y="738" type="line"/>
      <point x="93" y="734" type="line"/>
      <point x="93" y="0" type="line"/>
      <point x="123" y="0" type="line"/>
    </contour>
  </outline>
</glyph>
<glyph name="l" format="2">
  <advance width="228"/>
  <unicode hex="006C"/>
  <anchor x="146" y="0" name="bottom"/>
  <anchor x="217" y="375" name="center"/>
  <anchor x="103" y="734" name="top"/>
  <anchor x="141" y="734" name="topright"/>
  <outline>
    <contour>
      <point x="155" y="-10" type="curve" smooth="yes"/>
      <point x="170" y="-10"/>
      <point x="186" y="-5"/>
      <point x="197" y="1" type="curve"/>
      <point x="188" y="24" type="line"/>
      <point x="178" y="20"/>
      <point x="168" y="17"/>
      <point x="157" y="17" type="curve" smooth="yes"/>
      <point x="131" y="17"/>
      <point x="118" y="34"/>
      <point x="118" y="66" type="curve" smooth="yes"/>
      <point x="118" y="738" type="line"/>
      <point x="88" y="734" type="line"/>
      <point x="88" y="65" type="line" smooth="yes"/>
      <point x="88" y="16"/>
      <point x="116" y="-10"/>
    </contour>
  </outline>
</glyph>
<glyph name="m" format="2">
  <advance width="697"/>
  <unicode hex="006D"/>
  <anchor x="349" y="0" name="bottom"/>
  <anchor x="349" y="520" name="top"/>
  <outline>
    <contour>
      <point x="256" y="530" type="curve" smooth="yes"/>
      <point x="195" y="530"/>
      <point x="149" y="480"/>
      <point x="115" y="411" type="curve"/>
      <point x="123" y="383" type="line"/>
      <point x="158" y="453"/>
      <point x="201" y="503"/>
      <point x="255" y="503" type="curve" smooth="yes"/>
      <point x="307" y="503"/>
      <point x="336" y="457"/>
      <point x="336" y="366" type="curve" smooth="yes"/>
      <point x="336" y="0" type="line"/>
      <point x="366" y="0" type="line"/>
      <point x="366" y="389" type="line"/>
      <point x="364" y="406" type="line"/>
      <point x="356" y="484"/>
      <point x="317" y="530"/>
    </contour>
    <contour>
      <point x="119" y="520" type="line"/>
      <point x="93" y="520" type="line"/>
      <point x="93" y="0" type="line"/>
      <point x="123" y="0" type="line"/>
      <point x="123" y="389" type="line"/>
    </contour>
    <contour>
      <point x="499" y="530" type="curve" smooth="yes"/>
      <point x="437" y="530"/>
      <point x="392" y="480"/>
      <point x="358" y="411" type="curve"/>
      <point x="366" y="383" type="line"/>
      <point x="401" y="453"/>
      <point x="444" y="503"/>
      <point x="498" y="503" type="curve" smooth="yes"/>
      <point x="550" y="503"/>
      <point x="579" y="457"/>
      <point x="579" y="366" type="curve" smooth="yes"/>
      <point x="579" y="0" type="line"/>
      <point x="609" y="0" type="line"/>
      <point x="609" y="370" type="line" smooth="yes"/>
      <point x="609" y="470"/>
      <point x="569" y="530"/>
    </contour>
  </outline>
</glyph>
<glyph name="n" format="2">
  <advance width="478"/>
  <unicode hex="006E"/>
  <anchor x="238" y="0" name="bottom"/>
  <anchor x="244" y="520" name="top"/>
  <anchor x="85" y="520" name="topleft"/>
  <outline>
    <contour>
      <point x="274" y="530" type="curve" smooth="yes"/>
      <point x="200" y="530"/>
      <point x="153" y="480"/>
      <point x="115" y="408" type="curve"/>
      <point x="123" y="379" type="line"/>
      <point x="162" y="453"/>
      <point x="209" y="503"/>
      <point x="271" y="503" type="curve" smooth="yes"/>
      <point x="330" y="503"/>
      <point x="360" y="459"/>
      <point x="360" y="366" type="curve" smooth="yes"/>
      <point x="360" y="0" type="line"/>
      <point x="390" y="0" type="line"/>
      <point x="390" y="370" type="line" smooth="yes"/>
      <point x="390" y="472"/>
      <point x="351" y="530"/>
    </contour>
    <contour>
      <point x="119" y="520" type="line"/>
      <point x="93" y="520" type="line"/>
      <point x="93" y="0" type="line"/>
      <point x="123" y="0" type="line"/>
      <point x="123" y="389" type="line"/>
    </contour>
  </outline>
</glyph>
<glyph name="o" format="2">
  <advance width="461"/>
  <unicode hex="006F"/>
  <anchor x="231" y="0" name="bottom"/>
  <anchor x="293" y="0" name="ogonek"/>
  <anchor x="231" y="520" name="top"/>
  <anchor x="373" y="520" name="topright"/>
  <outline>
    <contour>
      <point x="231" y="530" type="curve" smooth="yes"/>
      <point x="125" y="530"/>
      <point x="56" y="440"/>
      <point x="56" y="259" type="curve" smooth="yes"/>
      <point x="56" y="82"/>
      <point x="122" y="-10"/>
      <point x="230" y="-10" type="curve" smooth="yes"/>
      <point x="337" y="-10"/>
      <point x="405" y="80"/>
      <point x="405" y="262" type="curve" smooth="yes"/>
      <point x="405" y="445"/>
      <point x="339" y="530"/>
    </contour>
    <contour>
      <point x="231" y="502" type="curve" smooth="yes"/>
      <point x="321" y="502"/>
      <point x="374" y="428"/>
      <point x="374" y="262" type="curve" smooth="yes"/>
      <point x="374" y="93"/>
      <point x="319" y="18"/>
      <point x="230" y="18" type="curve" smooth="yes"/>
      <point x="141" y="18"/>
      <point x="87" y="95"/>
      <point x="87" y="259" type="curve" smooth="yes"/>
      <point x="87" y="429"/>
      <point x="144" y="502"/>
    </contour>
  </outline>
</glyph>
<glyph name="p" format="2">
  <advance width="466"/>
  <unicode hex="0070"/>
  <anchor x="235" y="-193" name="bottom"/>
  <anchor x="235" y="520" name="top"/>
  <outline>
    <contour>
      <point x="255" y="530" type="curve" smooth="yes"/>
      <point x="193" y="530"/>
      <point x="148" y="490"/>
      <point x="116" y="434" type="curve"/>
      <point x="118" y="398" type="line"/>
      <point x="154" y="460"/>
      <point x="194" y="502"/>
      <point x="255" y="502" type="curve" smooth="yes"/>
      <point x="334" y="502"/>
      <point x="378" y="429"/>
      <point x="378" y="264" type="curve" smooth="yes"/>
      <point x="378" y="96"/>
      <point x="331" y="18"/>
      <point x="248" y="18" type="curve" smooth="yes"/>
      <point x="193" y="18"/>
      <point x="152" y="58"/>
      <point x="118" y="117" type="curve"/>
      <point x="116" y="80" type="line"/>
      <point x="142" y="35"/>
      <point x="186" y="-10"/>
      <point x="250" y="-10" type="curve" smooth="yes"/>
      <point x="349" y="-10"/>
      <point x="410" y="83"/>
      <point x="410" y="264" type="curve" smooth="yes"/>
      <point x="410" y="447"/>
      <point x="353" y="530"/>
    </contour>
    <contour>
      <point x="119" y="520" type="line"/>
      <point x="93" y="520" type="line"/>
      <point x="93" y="-199" type="line"/>
      <point x="123" y="-193" type="line"/>
      <point x="123" y="412" type="line"/>
      <point x="122" y="421" type="line"/>
    </contour>
  </outline>
</glyph>
<glyph name="q" format="2">
  <advance width="470"/>
  <unicode hex="0071"/>
  <anchor x="234" y="-193" name="bottom"/>
  <anchor x="234" y="520" name="top"/>
  <outline>
    <contour>
      <point x="347" y="418" type="line"/>
      <point x="347" y="-193" type="line"/>
      <point x="377" y="-199" type="line"/>
      <point x="377" y="520" type="line"/>
      <point x="351" y="520" type="line"/>
      <point x="348" y="445" type="line"/>
    </contour>
    <contour>
      <point x="224" y="530" type="curve" smooth="yes"/>
      <point x="120" y="530"/>
      <point x="56" y="425"/>
      <point x="56" y="258" type="curve" smooth="yes"/>
      <point x="56" y="86"/>
      <point x="120" y="-10"/>
      <point x="220" y="-10" type="curve" smooth="yes"/>
      <point x="288" y="-10"/>
      <point x="328" y="39"/>
      <point x="350" y="84" type="curve"/>
      <point x="352" y="134" type="line"/>
      <point x="321" y="63"/>
      <point x="281" y="18"/>
      <point x="219" y="18" type="curve" smooth="yes"/>
      <point x="139" y="18"/>
      <point x="89" y="101"/>
      <point x="88" y="258" type="curve" smooth="yes"/>
      <point x="87" y="419"/>
      <point x="144" y="502"/>
      <point x="224" y="502" type="curve" smooth="yes"/>
      <point x="290" y="502"/>
      <point x="327" y="455"/>
      <point x="353" y="403" type="curve"/>
      <point x="356" y="444" type="line"/>
      <point x="330" y="486"/>
      <point x="293" y="530"/>
    </contour>
  </outline>
</glyph>
<glyph name="r" format="2">
  <advance width="300"/>
  <unicode hex="0072"/>
  <anchor x="107" y="0" name="bottom"/>
  <anchor x="189" y="520" name="top"/>
  <outline>
    <contour>
      <point x="247" y="530" type="curve" smooth="yes"/>
      <point x="176" y="530"/>
      <point x="139" y="480"/>
      <point x="113" y="378" type="curve"/>
      <point x="118" y="321" type="line"/>
      <point x="144" y="439"/>
      <point x="178" y="504"/>
      <point x="246" y="504" type="curve" smooth="yes"/>
      <point x="260" y="504"/>
      <point x="271" y="502"/>
      <point x="282" y="499" type="curve"/>
      <point x="288" y="524" type="line"/>
      <point x="278" y="527"/>
      <point x="265" y="530"/>
    </contour>
    <contour>
      <point x="119" y="520" type="line"/>
      <point x="93" y="520" type="line"/>
      <point x="93" y="0" type="line"/>
      <point x="123" y="0" type="line"/>
      <point x="123" y="346" type="line"/>
      <point x="121" y="384" type="line"/>
    </contour>
  </outline>
</glyph>
<glyph name="s" format="2">
  <advance width="379"/>
  <unicode hex="0073"/>
  <anchor x="189" y="0" name="bottom"/>
  <anchor x="194" y="520" name="top"/>
  <outline>
    <contour>
      <point x="190" y="530" type="curve" smooth="yes"/>
      <point x="115" y="530"/>
      <point x="55" y="476"/>
      <point x="55" y="400" type="curve" smooth="yes"/>
      <point x="55" y="334"/>
      <point x="91" y="299"/>
      <point x="182" y="265" type="curve" smooth="yes"/>
      <point x="275" y="230"/>
      <point x="302" y="202"/>
      <point x="302" y="135" type="curve" smooth="yes"/>
      <point x="302" y="58"/>
      <point x="252" y="17"/>
      <point x="187" y="17" type="curve" smooth="yes"/>
      <point x="130" y="17"/>
      <point x="95" y="38"/>
      <point x="57" y="74" type="curve"/>
      <point x="39" y="56" type="line"/>
      <point x="76" y="18"/>
      <point x="119" y="-10"/>
      <point x="187" y="-10" type="curve" smooth="yes"/>
      <point x="271" y="-10"/>
      <point x="332" y="49"/>
      <point x="332" y="135" type="curve" smooth="yes"/>
      <point x="332" y="215"/>
      <point x="292" y="251"/>
      <point x="197" y="287" type="curve" smooth="yes"/>
      <point x="115" y="318"/>
      <point x="85" y="345"/>
      <point x="85" y="399" type="curve" smooth="yes"/>
      <point x="85" y="464"/>
      <point x="130" y="503"/>
      <point x="191" y="503" type="curve" smooth="yes"/>
      <point x="237" y="503"/>
      <point x="267" y="487"/>
      <point x="304" y="453" type="curve"/>
      <point x="321" y="473" type="line"/>
      <point x="281" y="512"/>
      <point x="241" y="530"/>
    </contour>
  </outline>
</glyph>
<glyph name="t" format="2">
  <advance width="269"/>
  <unicode hex="0074"/>
  <anchor x="183" y="0" name="bottom"/>
  <anchor x="131" y="260" name="center"/>
  <anchor x="104" y="650" name="top"/>
  <anchor x="131" y="735" name="topright"/>
  <outline>
    <contour>
      <point x="119" y="653" type="line"/>
      <point x="89" y="650" type="line"/>
      <point x="89" y="98" type="line" smooth="yes"/>
      <point x="89" y="31"/>
      <point x="127" y="-10"/>
      <point x="187" y="-10" type="curve" smooth="yes"/>
      <point x="221" y="-10"/>
      <point x="249" y="2"/>
      <point x="273" y="20" type="curve"/>
      <point x="259" y="41" type="line"/>
      <point x="239" y="28"/>
      <point x="216" y="18"/>
      <point x="189" y="18" type="curve" smooth="yes"/>
      <point x="142" y="18"/>
      <point x="119" y="50"/>
      <point x="119" y="100" type="curve" smooth="yes"/>
    </contour>
    <contour>
      <point x="235" y="520" type="line"/>
      <point x="19" y="520" type="line"/>
      <point x="19" y="493" type="line"/>
      <point x="230" y="493" type="line"/>
    </contour>
  </outline>
</glyph>
<glyph name="u" format="2">
  <advance width="474"/>
  <unicode hex="0075"/>
  <anchor x="234" y="0" name="bottom"/>
  <anchor x="389" y="0" name="ogonek"/>
  <anchor x="234" y="520" name="top"/>
  <anchor x="389" y="520" name="topright"/>
  <outline>
    <contour>
      <point x="381" y="520" type="line"/>
      <point x="351" y="520" type="line"/>
      <point x="351" y="138" type="line"/>
      <point x="318" y="68"/>
      <point x="276" y="18"/>
      <point x="212" y="18" type="curve" smooth="yes"/>
      <point x="154" y="18"/>
      <point x="118" y="57"/>
      <point x="118" y="137" type="curve" smooth="yes"/>
      <point x="118" y="520" type="line"/>
      <point x="88" y="520" type="line"/>
      <point x="88" y="135" type="line" smooth="yes"/>
      <point x="88" y="44"/>
      <point x="135" y="-10"/>
      <point x="212" y="-10" type="curve" smooth="yes"/>
      <point x="280" y="-10"/>
      <point x="326" y="41"/>
      <point x="353" y="97" type="curve"/>
      <point x="355" y="0" type="line"/>
      <point x="381" y="0" type="line"/>
    </contour>
  </outline>
</glyph>
<glyph name="v" format="2">
  <advance width="383"/>
  <unicode hex="0076"/>
  <anchor x="195" y="0" name="bottom"/>
  <anchor x="192" y="520" name="top"/>
  <outline>
    <contour>
      <point x="363" y="520" type="line"/>
      <point x="332" y="520" type="line"/>
      <point x="195" y="26" type="line"/>
      <point x="52" y="520" type="line"/>
      <point x="20" y="520" type="line"/>
      <point x="177" y="0" type="line"/>
      <point x="214" y="0" type="line"/>
    </contour>
  </outline>
</glyph>
<glyph name="w" format="2">
  <advance width="576"/>
  <unicode hex="0077"/>
  <anchor x="289" y="0" name="bottom"/>
  <anchor x="288" y="520" name="top"/>
  <outline>
    <contour>
      <point x="546" y="520" type="line"/>
      <point x="516" y="520" type="line"/>
      <point x="417" y="30" type="line"/>
      <point x="309" y="520" type="line"/>
      <point x="271" y="520" type="line"/>
      <point x="162" y="31" type="line"/>
      <point x="61" y="520" type="line"/>
      <point x="30" y="520" type="line"/>
      <point x="141" y="0" type="line"/>
      <point x="182" y="0" type="line"/>
      <point x="289" y="490" type="line"/>
      <point x="396" y="0" type="line"/>
      <point x="437" y="0" type="line"/>
    </contour>
  </outline>
</glyph>
<glyph name="x" format="2">
  <advance width="370"/>
  <unicode hex="0078"/>
  <anchor x="184" y="0" name="bottom"/>
  <anchor x="344" y="0" name="bottomright"/>
  <anchor x="185" y="520" name="top"/>
  <outline>
    <contour>
      <point x="68" y="520" type="line"/>
      <point x="35" y="520" type="line"/>
      <point x="166" y="278" type="line"/>
      <point x="184" y="261" type="line"/>
      <point x="320" y="0" type="line"/>
      <point x="355" y="0" type="line"/>
      <point x="202" y="279" type="line"/>
      <point x="184" y="296" type="line"/>
    </contour>
    <contour>
      <point x="335" y="520" type="line"/>
      <point x="302" y="520" type="line"/>
      <point x="184" y="296" type="line"/>
      <point x="166" y="278" type="line"/>
      <point x="15" y="0" type="line"/>
      <point x="48" y="0" type="line"/>
      <point x="184" y="261" type="line"/>
      <point x="202" y="279" type="line"/>
    </contour>
  </outline>
</glyph>
<glyph name="y" format="2">
  <advance width="379"/>
  <unicode hex="0079"/>
  <anchor x="192" y="-193" name="bottom"/>
  <anchor x="190" y="520" name="top"/>
  <outline>
    <contour>
      <point x="359" y="520" type="line"/>
      <point x="328" y="520" type="line"/>
      <point x="192" y="23" type="line"/>
      <point x="51" y="520" type="line"/>
      <point x="20" y="520" type="line"/>
      <point x="171" y="0" type="line"/>
      <point x="183" y="0" type="line"/>
      <point x="153" y="-100"/>
      <point x="134" y="-142"/>
      <point x="48" y="-173" type="curve"/>
      <point x="52" y="-197" type="line"/>
      <point x="147" y="-165"/>
      <point x="178" y="-117"/>
      <point x="210" y="-2" type="curve" smooth="yes"/>
    </contour>
  </outline>
</glyph>
<glyph name="z" format="2">
  <advance width="339"/>
  <unicode hex="007A"/>
  <anchor x="170" y="0" name="bottom"/>
  <anchor x="176" y="520" name="top"/>
  <outline>
    <contour>
      <point x="310" y="520" type="line"/>
      <point x="44" y="520" type="line"/>
      <point x="44" y="492" type="line"/>
      <point x="277" y="492" type="line"/>
      <point x="24" y="25" type="line"/>
      <point x="24" y="0" type="line"/>
      <point x="303" y="0" type="line"/>
      <point x="306" y="28" type="line"/>
      <point x="57" y="28" type="line"/>
      <point x="310" y="495" type="line"/>
    </contour>
  </outline>
</glyph>
<glyph name="braceleft" format="2">
  <advance width="269"/>
  <unicode hex="007B"/>
  <outline>
    <contour>
      <point x="206" y="822" type="line"/>
      <point x="146" y="822"/>
      <point x="111" y="790"/>
      <point x="111" y="716" type="curve" smooth="yes"/>
      <point x="111" y="434" type="line" smooth="yes"/>
      <point x="111" y="381"/>
      <point x="90" y="363"/>
      <point x="46" y="363" type="curve"/>
      <point x="46" y="335" type="line"/>
      <point x="90" y="335"/>
      <point x="111" y="317"/>
      <point x="111" y="264" type="curve" smooth="yes"/>
      <point x="111" y="-18" type="line" smooth="yes"/>
      <point x="111" y="-92"/>
      <point x="146" y="-124"/>
      <point x="206" y="-124" type="curve"/>
      <point x="206" y="-102" type="line"/>
      <point x="155" y="-102"/>
      <point x="137" y="-75"/>
      <point x="137" y="-19" type="curve" smooth="yes"/>
      <point x="137" y="252" type="line" smooth="yes"/>
      <point x="137" y="323"/>
      <point x="114" y="339"/>
      <point x="72" y="349" type="curve"/>
      <point x="114" y="359"/>
      <point x="137" y="375"/>
      <point x="137" y="446" type="curve" smooth="yes"/>
      <point x="137" y="717" type="line" smooth="yes"/>
      <point x="137" y="773"/>
      <point x="155" y="800"/>
      <point x="206" y="800" type="curve"/>
    </contour>
  </outline>
</glyph>
<glyph name="bar" format="2">
  <advance width="335"/>
  <unicode hex="007C"/>
  <outline>
    <contour>
      <point x="182" y="802" type="line"/>
      <point x="153" y="802" type="line"/>
      <point x="153" y="-99" type="line"/>
      <point x="182" y="-99" type="line"/>
    </contour>
  </outline>
</glyph>
<glyph name="braceright" format="2">
  <advance width="269"/>
  <unicode hex="007D"/>
  <outline>
    <contour>
      <point x="63" y="822" type="curve"/>
      <point x="63" y="800" type="line"/>
      <point x="115" y="800"/>
      <point x="133" y="773"/>
      <point x="133" y="717" type="curve" smooth="yes"/>
      <point x="133" y="436" type="line" smooth="yes"/>
      <point x="133" y="375"/>
      <point x="154" y="359"/>
      <point x="197" y="349" type="curve"/>
      <point x="154" y="339"/>
      <point x="133" y="323"/>
      <point x="133" y="262" type="curve" smooth="yes"/>
      <point x="133" y="-19" type="line" smooth="yes"/>
      <point x="133" y="-75"/>
      <point x="115" y="-102"/>
      <point x="63" y="-102" type="curve"/>
      <point x="63" y="-124" type="line"/>
      <point x="123" y="-124"/>
      <point x="158" y="-92"/>
      <point x="158" y="-18" type="curve" smooth="yes"/>
      <point x="158" y="264" type="line" smooth="yes"/>
      <point x="158" y="317"/>
      <point x="179" y="335"/>
      <point x="223" y="335" type="curve"/>
      <point x="223" y="363" type="line"/>
      <point x="179" y="363"/>
      <point x="158" y="381"/>
      <point x="158" y="434" type="curve" smooth="yes"/>
      <point x="158" y="716" type="line" smooth="yes"/>
      <point x="158" y="790"/>
      <point x="123" y="822"/>
    </contour>
  </outline>
</glyph>
<glyph name="asciitilde" format="2">
  <advance width="379"/>
  <unicode hex="007E"/>
  <anchor x="300" y="332" name="_center"/>
  <outline>
    <contour>
      <point x="255" y="277" type="curve" smooth="yes"/>
      <point x="289" y="277"/>
      <point x="308" y="298"/>
      <point x="328" y="334" type="curve"/>
      <point x="307" y="346" type="line"/>
      <point x="291" y="321"/>
      <point x="278" y="305"/>
      <point x="256" y="305" type="curve" smooth="yes"/>
      <point x="215" y="305"/>
      <point x="176" y="358"/>
      <point x="128" y="358" type="curve" smooth="yes"/>
      <point x="93" y="358"/>
      <point x="71" y="337"/>
      <point x="51" y="301" type="curve"/>
      <point x="73" y="289" type="line"/>
      <point x="89" y="314"/>
      <point x="102" y="330"/>
      <point x="128" y="330" type="curve" smooth="yes"/>
      <point x="165" y="330"/>
      <point x="208" y="277"/>
    </contour>
  </outline>
</glyph>
<glyph name="exclamdown" format="2">
  <advance width="218"/>
  <unicode hex="00A1"/>
  <outline>
    <contour>
      <point x="123" y="251" type="line"/>
      <point x="95" y="251" type="line"/>
      <point x="94" y="-193" type="line"/>
      <point x="124" y="-193" type="line"/>
    </contour>
    <contour>
      <point x="109" y="458" type="curve" smooth="yes"/>
      <point x="91" y="458"/>
      <point x="80" y="444"/>
      <point x="80" y="429" type="curve" smooth="yes"/>
      <point x="80" y="414"/>
      <point x="91" y="400"/>
      <point x="109" y="400" type="curve" smooth="yes"/>
      <point x="127" y="400"/>
      <point x="138" y="414"/>
      <point x="138" y="429" type="curve" smooth="yes"/>
      <point x="138" y="444"/>
      <point x="127" y="458"/>
    </contour>
  </outline>
</glyph>
<glyph name="cent" format="2">
  <advance width="374"/>
  <unicode hex="00A2"/>
  <anchor x="232" y="0" name="bottom"/>
  <anchor x="232" y="520" name="top"/>
  <outline>
    <contour>
      <point x="246" y="677" type="line"/>
      <point x="220" y="677" type="line"/>
      <point x="220" y="527" type="line"/>
      <point x="246" y="527" type="line"/>
    </contour>
    <contour>
      <point x="219" y="-7" type="line"/>
      <point x="219" y="-147" type="line"/>
      <point x="246" y="-147" type="line"/>
      <point x="246" y="-6" type="line"/>
    </contour>
    <component base="c"/>
  </outline>
</glyph>
<glyph name="sterling" format="2">
  <advance width="415"/>
  <unicode hex="00A3"/>
  <outline>
    <contour>
      <point x="248" y="674" type="curve" smooth="yes"/>
      <point x="164" y="674"/>
      <point x="116" y="606"/>
      <point x="116" y="515" type="curve" smooth="yes"/>
      <point x="116" y="142" type="line" smooth="yes"/>
      <point x="116" y="81"/>
      <point x="96" y="58"/>
      <point x="47" y="28" type="curve"/>
      <point x="47" y="0" type="line"/>
      <point x="358" y="0" type="line"/>
      <point x="362" y="29" type="line"/>
      <point x="85" y="29" type="line"/>
      <point x="128" y="53"/>
      <point x="146" y="77"/>
      <point x="146" y="144" type="curve" smooth="yes"/>
      <point x="146" y="515" type="line" smooth="yes"/>
      <point x="146" y="594"/>
      <point x="180" y="647"/>
      <point x="248" y="647" type="curve" smooth="yes"/>
      <point x="295" y="647"/>
      <point x="324" y="626"/>
      <point x="352" y="588" type="curve"/>
      <point x="372" y="605" type="line"/>
      <point x="338" y="651"/>
      <point x="300" y="674"/>
    </contour>
    <contour>
      <point x="324" y="367" type="line"/>
      <point x="62" y="367" type="line"/>
      <point x="62" y="339" type="line"/>
      <point x="324" y="339" type="line"/>
    </contour>
  </outline>
</glyph>
<glyph name="currency" format="2">
  <advance width="460"/>
  <unicode hex="00A4"/>
  <outline>
    <contour>
      <point x="229" y="524" type="curve" smooth="yes"/>
      <point x="139" y="524"/>
      <point x="82" y="452"/>
      <point x="82" y="341" type="curve" smooth="yes"/>
      <point x="82" y="229"/>
      <point x="138" y="157"/>
      <point x="229" y="157" type="curve" smooth="yes"/>
      <point x="322" y="157"/>
      <point x="377" y="229"/>
      <point x="377" y="341" type="curve" smooth="yes"/>
      <point x="377" y="452"/>
      <point x="322" y="524"/>
    </contour>
    <contour>
      <point x="70" y="115" type="line"/>
      <point x="149" y="210" type="line"/>
      <point x="132" y="230" type="line"/>
      <point x="50" y="132" type="line"/>
    </contour>
    <contour>
      <point x="391" y="115" type="line"/>
      <point x="412" y="132" type="line"/>
      <point x="329" y="230" type="line"/>
      <point x="312" y="210" type="line"/>
    </contour>
    <contour>
      <point x="68" y="566" type="line"/>
      <point x="47" y="549" type="line"/>
      <point x="130" y="451" type="line"/>
      <point x="147" y="471" type="line"/>
    </contour>
    <contour>
      <point x="389" y="566" type="line"/>
      <point x="310" y="471" type="line"/>
      <point x="327" y="451" type="line"/>
      <point x="409" y="549" type="line"/>
    </contour>
    <contour>
      <point x="229" y="498" type="curve" smooth="yes"/>
      <point x="309" y="498"/>
      <point x="348" y="441"/>
      <point x="348" y="340" type="curve" smooth="yes"/>
      <point x="348" y="241"/>
      <point x="309" y="183"/>
      <point x="229" y="183" type="curve" smooth="yes"/>
      <point x="151" y="183"/>
      <point x="111" y="240"/>
      <point x="111" y="340" type="curve" smooth="yes"/>
      <point x="111" y="441"/>
      <point x="151" y="498"/>
    </contour>
  </outline>
</glyph>
<glyph name="yen" format="2">
  <advance width="407"/>
  <unicode hex="00A5"/>
  <outline>
    <contour>
      <point x="392" y="662" type="line"/>
      <point x="360" y="662" type="line"/>
      <point x="205" y="333" type="line"/>
      <point x="48" y="662" type="line"/>
      <point x="15" y="662" type="line"/>
      <point x="189" y="310" type="line"/>
      <point x="189" y="0" type="line"/>
      <point x="220" y="0" type="line"/>
      <point x="220" y="309" type="line"/>
    </contour>
    <contour>
      <point x="330" y="191" type="line"/>
      <point x="80" y="191" type="line"/>
      <point x="80" y="162" type="line"/>
      <point x="330" y="162" type="line"/>
    </contour>
    <contour>
      <point x="330" y="332" type="line"/>
      <point x="80" y="332" type="line"/>
      <point x="80" y="304" type="line"/>
      <point x="330" y="304" type="line"/>
    </contour>
  </outline>
</glyph>
<glyph name="brokenbar" format="2">
  <advance width="335"/>
  <unicode hex="00A6"/>
  <outline>
    <contour>
      <point x="182" y="802" type="line"/>
      <point x="153" y="802" type="line"/>
      <point x="153" y="443" type="line"/>
      <point x="182" y="443" type="line"/>
    </contour>
    <contour>
      <point x="182" y="262" type="line"/>
      <point x="153" y="262" type="line"/>
      <point x="153" y="-99" type="line"/>
      <point x="182" y="-99" type="line"/>
    </contour>
  </outline>
</glyph>
<glyph name="section" format="2">
  <advance width="437"/>
  <unicode hex="00A7"/>
  <outline>
    <contour>
      <point x="228" y="673" type="curve" smooth="yes"/>
      <point x="151" y="673"/>
      <point x="98" y="622"/>
      <point x="98" y="545" type="curve" smooth="yes"/>
      <point x="98" y="477"/>
      <point x="128" y="448"/>
      <point x="228" y="406" type="curve" smooth="yes"/>
      <point x="313" y="370"/>
      <point x="330" y="334"/>
      <point x="330" y="288" type="curve" smooth="yes"/>
      <point x="330" y="236"/>
      <point x="315" y="202"/>
      <point x="265" y="165" type="curve"/>
      <point x="283" y="150" type="line"/>
      <point x="338" y="190"/>
      <point x="361" y="231"/>
      <point x="361" y="289" type="curve" smooth="yes"/>
      <point x="361" y="353"/>
      <point x="324" y="395"/>
      <point x="238" y="431" type="curve" smooth="yes"/>
      <point x="147" y="469"/>
      <point x="129" y="493"/>
      <point x="129" y="546" type="curve" smooth="yes"/>
      <point x="129" y="605"/>
      <point x="163" y="645"/>
      <point x="228" y="645" type="curve" smooth="yes"/>
      <point x="267" y="645"/>
      <point x="298" y="632"/>
      <point x="332" y="606" type="curve"/>
      <point x="347" y="628" type="line"/>
      <point x="313" y="654"/>
      <point x="279" y="673"/>
    </contour>
    <contour>
      <point x="154" y="459" type="line"/>
      <point x="103" y="419"/>
      <point x="76" y="375"/>
      <point x="76" y="322" type="curve" smooth="yes"/>
      <point x="76" y="241"/>
      <point x="119" y="213"/>
      <point x="208" y="175" type="curve" smooth="yes"/>
      <point x="294" y="138"/>
      <point x="311" y="112"/>
      <point x="311" y="61" type="curve" smooth="yes"/>
      <point x="311" y="5"/>
      <point x="274" y="-38"/>
      <point x="207" y="-38" type="curve" smooth="yes"/>
      <point x="163" y="-38"/>
      <point x="127" y="-25"/>
      <point x="95" y="1" type="curve"/>
      <point x="78" y="-21" type="line"/>
      <point x="115" y="-50"/>
      <point x="154" y="-66"/>
      <point x="207" y="-66" type="curve" smooth="yes"/>
      <point x="285" y="-66"/>
      <point x="341" y="-16"/>
      <point x="341" y="63" type="curve" smooth="yes"/>
      <point x="341" y="134"/>
      <point x="304" y="164"/>
      <point x="217" y="201" type="curve" smooth="yes"/>
      <point x="127" y="239"/>
      <point x="106" y="263"/>
      <point x="106" y="323" type="curve" smooth="yes"/>
      <point x="106" y="370"/>
      <point x="126" y="407"/>
      <point x="172" y="444" type="curve"/>
    </contour>
  </outline>
</glyph>
<glyph name="copyright" format="2">
  <advance width="663"/>
  <unicode hex="00A9"/>
  <outline>
    <contour>
      <point x="332" y="726" type="curve"/>
      <point x="198" y="726"/>
      <point x="97" y="620"/>
      <point x="97" y="435" type="curve" smooth="yes"/>
      <point x="97" y="248"/>
      <point x="198" y="144"/>
      <point x="332" y="144" type="curve"/>
      <point x="466" y="144"/>
      <point x="566" y="250"/>
      <point x="566" y="435" type="curve" smooth="yes"/>
      <point x="566" y="622"/>
      <point x="466" y="726"/>
    </contour>
    <contour>
      <point x="331" y="608" type="curve" smooth="yes"/>
      <point x="277" y="608"/>
      <point x="219" y="562"/>
      <point x="219" y="437" type="curve" smooth="yes"/>
      <point x="219" y="316"/>
      <point x="266" y="262"/>
      <point x="333" y="262" type="curve" smooth="yes"/>
      <point x="369" y="262"/>
      <point x="396" y="278"/>
      <point x="415" y="296" type="curve"/>
      <point x="401" y="317" type="line"/>
      <point x="384" y="303"/>
      <point x="365" y="290"/>
      <point x="334" y="290" type="curve" smooth="yes"/>
      <point x="285" y="290"/>
      <point x="248" y="327"/>
      <point x="248" y="437" type="curve" smooth="yes"/>
      <point x="248" y="549"/>
      <point x="294" y="580"/>
      <point x="331" y="580" type="curve" smooth="yes"/>
      <point x="360" y="580"/>
      <point x="376" y="572"/>
      <point x="393" y="558" type="curve"/>
      <point x="408" y="578" type="line"/>
      <point x="387" y="597"/>
      <point x="365" y="608"/>
    </contour>
    <contour>
      <point x="332" y="698" type="curve"/>
      <point x="451" y="698"/>
      <point x="538" y="608"/>
      <point x="538" y="435" type="curve" smooth="yes"/>
      <point x="538" y="265"/>
      <point x="451" y="172"/>
      <point x="332" y="172" type="curve"/>
      <point x="212" y="172"/>
      <point x="125" y="262"/>
      <point x="125" y="435" type="curve" smooth="yes"/>
      <point x="125" y="605"/>
      <point x="212" y="698"/>
    </contour>
  </outline>
</glyph>
<glyph name="ordfeminine" format="2">
  <advance width="500"/>
  <unicode hex="00AA"/>
  <outline>
    <contour>
      <point x="201" y="682" type="curve" smooth="yes"/>
      <point x="165" y="682"/>
      <point x="133" y="672"/>
      <point x="99" y="657" type="curve"/>
      <point x="107" y="631" type="line"/>
      <point x="140" y="645"/>
      <point x="170" y="654"/>
      <point x="199" y="654" type="curve" smooth="yes"/>
      <point x="261" y="654"/>
      <point x="281" y="624"/>
      <point x="281" y="560" type="curve"/>
      <point x="281" y="369" type="line"/>
      <point x="285" y="355" type="line"/>
      <point x="285" y="306"/>
      <point x="302" y="286"/>
      <point x="332" y="276" type="curve"/>
      <point x="339" y="297" type="line"/>
      <point x="321" y="306"/>
      <point x="311" y="317"/>
      <point x="311" y="367" type="curve" smooth="yes"/>
      <point x="311" y="563" type="line" smooth="yes"/>
      <point x="311" y="643"/>
      <point x="277" y="682"/>
    </contour>
    <contour>
      <point x="287" y="518" type="line"/>
      <point x="209" y="518" type="line" smooth="yes"/>
      <point x="127" y="518"/>
      <point x="72" y="474"/>
      <point x="72" y="392" type="curve" smooth="yes"/>
      <point x="72" y="321"/>
      <point x="112" y="276"/>
      <point x="178" y="276" type="curve" smooth="yes"/>
      <point x="227" y="276"/>
      <point x="264" y="302"/>
      <point x="290" y="351" type="curve"/>
      <point x="285" y="387" type="line"/>
      <point x="263" y="337"/>
      <point x="230" y="304"/>
      <point x="180" y="304" type="curve" smooth="yes"/>
      <point x="134" y="304"/>
      <point x="104" y="334"/>
      <point x="104" y="392" type="curve" smooth="yes"/>
      <point x="104" y="460"/>
      <point x="146" y="490"/>
      <point x="215" y="490" type="curve" smooth="yes"/>
      <point x="287" y="490" type="line"/>
    </contour>
    <component base="minus" xOffset="11" yOffset="-316"/>
  </outline>
</glyph>
<glyph name="logicalnot" format="2">
  <advance width="408"/>
  <unicode hex="00AC"/>
  <outline>
    <contour>
      <point x="348" y="334" type="line"/>
      <point x="60" y="334" type="line"/>
      <point x="60" y="306" type="line"/>
      <point x="317" y="306" type="line"/>
      <point x="317" y="191" type="line"/>
      <point x="348" y="191" type="line"/>
    </contour>
  </outline>
</glyph>
<glyph name="registered" format="2">
  <advance width="524"/>
  <unicode hex="00AE"/>
  <outline>
    <contour>
      <point x="262" y="726" type="curve"/>
      <point x="156" y="726"/>
      <point x="72" y="638"/>
      <point x="72" y="497" type="curve" smooth="yes"/>
      <point x="72" y="352"/>
      <point x="156" y="272"/>
      <point x="262" y="272" type="curve"/>
      <point x="368" y="272"/>
      <point x="452" y="360"/>
      <point x="452" y="501" type="curve" smooth="yes"/>
      <point x="452" y="646"/>
      <point x="368" y="726"/>
    </contour>
    <contour>
      <point x="284" y="494" type="line"/>
      <point x="256" y="492" type="line"/>
      <point x="317" y="368" type="line"/>
      <point x="348" y="368" type="line"/>
    </contour>
    <contour>
      <point x="262" y="701" type="curve"/>
      <point x="355" y="701"/>
      <point x="427" y="633"/>
      <point x="427" y="501" type="curve" smooth="yes"/>
      <point x="427" y="371"/>
      <point x="353" y="297"/>
      <point x="262" y="297" type="curve"/>
      <point x="171" y="297"/>
      <point x="97" y="365"/>
      <point x="97" y="497" type="curve" smooth="yes"/>
      <point x="97" y="627"/>
      <point x="171" y="701"/>
    </contour>
    <contour>
      <point x="250" y="637" type="curve" smooth="yes"/>
      <point x="198" y="637" type="line"/>
      <point x="198" y="368" type="line"/>
      <point x="225" y="368" type="line"/>
      <point x="225" y="611" type="line"/>
      <point x="255" y="611" type="line" smooth="yes"/>
      <point x="291" y="611"/>
      <point x="312" y="594"/>
      <point x="312" y="561" type="curve" smooth="yes"/>
      <point x="312" y="522"/>
      <point x="292" y="509"/>
      <point x="261" y="509" type="curve" smooth="yes"/>
      <point x="219" y="509" type="line"/>
      <point x="219" y="484" type="line"/>
      <point x="260" y="484" type="line"/>
      <point x="272" y="484" type="line"/>
      <point x="312" y="490"/>
      <point x="339" y="512"/>
      <point x="339" y="561" type="curve" smooth="yes"/>
      <point x="339" y="608"/>
      <point x="308" y="637"/>
    </contour>
  </outline>
</glyph>
<glyph name="degree" format="2">
  <advance width="409"/>
  <unicode hex="00B0"/>
  <outline>
    <contour>
      <point x="179" y="434" type="curve" smooth="yes"/>
      <point x="131" y="434"/>
      <point x="92" y="475"/>
      <point x="92" y="550" type="curve" smooth="yes"/>
      <point x="92" y="626"/>
      <point x="131" y="665"/>
      <point x="179" y="665" type="curve" smooth="yes"/>
      <point x="233" y="665"/>
      <point x="267" y="626"/>
      <point x="267" y="549" type="curve" smooth="yes"/>
      <point x="267" y="475"/>
      <point x="233" y="434"/>
    </contour>
    <contour>
      <point x="179" y="407" type="curve" smooth="yes"/>
      <point x="247" y="407"/>
      <point x="298" y="460"/>
      <point x="298" y="549" type="curve" smooth="yes"/>
      <point x="298" y="641"/>
      <point x="247" y="692"/>
      <point x="179" y="692" type="curve" smooth="yes"/>
      <point x="117" y="692"/>
      <point x="61" y="640"/>
      <point x="61" y="550" type="curve" smooth="yes"/>
      <point x="61" y="456"/>
      <point x="117" y="407"/>
    </contour>
  </outline>
</glyph>
<glyph name="paragraph" format="2">
  <advance width="567"/>
  <unicode hex="00B6"/>
  <outline>
    <contour>
      <point x="438" y="682" type="line"/>
      <point x="271" y="681" type="line"/>
      <point x="267" y="648" type="line"/>
      <point x="267" y="-199" type="line"/>
      <point x="296" y="-193" type="line"/>
      <point x="296" y="654" type="line"/>
      <point x="408" y="654" type="line"/>
      <point x="408" y="-199" type="line"/>
      <point x="438" y="-193" type="line"/>
    </contour>
    <contour>
      <point x="271" y="681" type="line"/>
      <point x="154" y="681"/>
      <point x="88" y="613"/>
      <point x="88" y="493" type="curve" smooth="yes"/>
      <point x="88" y="390"/>
      <point x="135" y="304"/>
      <point x="279" y="304" type="curve"/>
    </contour>
  </outline>
</glyph>
<glyph name="ordmasculine" format="2">
  <advance width="414"/>
  <unicode hex="00BA"/>
  <outline>
    <contour>
      <point x="207" y="682" type="curve" smooth="yes"/>
      <point x="121" y="682"/>
      <point x="65" y="617"/>
      <point x="65" y="479" type="curve" smooth="yes"/>
      <point x="65" y="342"/>
      <point x="119" y="276"/>
      <point x="206" y="276" type="curve" smooth="yes"/>
      <point x="293" y="276"/>
      <point x="349" y="341"/>
      <point x="349" y="481" type="curve" smooth="yes"/>
      <point x="349" y="623"/>
      <point x="295" y="682"/>
    </contour>
    <contour>
      <point x="208" y="655" type="curve" smooth="yes"/>
      <point x="279" y="655"/>
      <point x="319" y="605"/>
      <point x="319" y="481" type="curve" smooth="yes"/>
      <point x="319" y="354"/>
      <point x="276" y="303"/>
      <point x="206" y="303" type="curve" smooth="yes"/>
      <point x="137" y="303"/>
      <point x="95" y="356"/>
      <point x="95" y="479" type="curve" smooth="yes"/>
      <point x="95" y="606"/>
      <point x="139" y="655"/>
    </contour>
    <component base="minus" xOffset="7" yOffset="-317"/>
  </outline>
</glyph>
<glyph name="questiondown" format="2">
  <advance width="372"/>
  <unicode hex="00BF"/>
  <outline>
    <contour>
      <point x="179" y="-199" type="curve" smooth="yes"/>
      <point x="240" y="-199"/>
      <point x="285" y="-171"/>
      <point x="327" y="-112" type="curve"/>
      <point x="305" y="-95" type="line"/>
      <point x="268" y="-147"/>
      <point x="234" y="-171"/>
      <point x="179" y="-171" type="curve" smooth="yes"/>
      <point x="116" y="-171"/>
      <point x="75" y="-127"/>
      <point x="75" y="-61" type="curve" smooth="yes"/>
      <point x="75" y="75"/>
      <point x="223" y="54"/>
      <point x="223" y="219" type="curve" smooth="yes"/>
      <point x="223" y="251" type="line"/>
      <point x="195" y="251" type="line"/>
      <point x="195" y="222" type="line" smooth="yes"/>
      <point x="195" y="67"/>
      <point x="45" y="86"/>
      <point x="45" y="-61" type="curve" smooth="yes"/>
      <point x="45" y="-137"/>
      <point x="95" y="-199"/>
    </contour>
    <contour>
      <point x="209" y="400" type="curve" smooth="yes"/>
      <point x="227" y="400"/>
      <point x="238" y="414"/>
      <point x="238" y="429" type="curve" smooth="yes"/>
      <point x="238" y="444"/>
      <point x="227" y="458"/>
      <point x="209" y="458" type="curve" smooth="yes"/>
      <point x="191" y="458"/>
      <point x="180" y="444"/>
      <point x="180" y="429" type="curve" smooth="yes"/>
      <point x="180" y="414"/>
      <point x="191" y="400"/>
    </contour>
  </outline>
</glyph>
<glyph name="AE" format="2">
  <advance width="626"/>
  <unicode hex="00C6"/>
  <anchor x="313" y="0" name="bottom"/>
  <anchor x="366" y="682" name="top"/>
  <outline>
    <contour>
      <point x="550" y="682" type="line"/>
      <point x="223" y="682" type="line"/>
      <point x="6" y="0" type="line"/>
      <point x="37" y="0" type="line"/>
      <point x="241" y="657" type="line"/>
      <point x="380" y="0" type="line"/>
      <point x="592" y="0" type="line"/>
      <point x="592" y="29" type="line"/>
      <point x="404" y="29" type="line"/>
      <point x="272" y="653" type="line"/>
      <point x="546" y="653" type="line"/>
    </contour>
    <contour>
      <point x="339" y="222" type="line"/>
      <point x="102" y="222" type="line"/>
      <point x="90" y="193" type="line"/>
      <point x="346" y="193" type="line"/>
    </contour>
    <contour>
      <point x="544" y="373" type="line"/>
      <point x="323" y="373" type="line"/>
      <point x="331" y="345" type="line"/>
      <point x="544" y="345" type="line"/>
    </contour>
  </outline>
</glyph>
<glyph name="Eth" format="2">
  <advance width="513"/>
  <unicode hex="00D0"/>
  <anchor x="246" y="0" name="bottom"/>
  <anchor x="261" y="341" name="center"/>
  <anchor x="244" y="682" name="top"/>
  <outline>
    <contour>
      <point x="281" y="367" type="line"/>
      <point x="97" y="367" type="line"/>
      <point x="20" y="367" type="line"/>
      <point x="20" y="337" type="line"/>
      <point x="281" y="337" type="line"/>
    </contour>
    <component base="D"/>
  </outline>
</glyph>
<glyph name="multiply" format="2">
  <advance width="401"/>
  <unicode hex="00D7"/>
  <outline>
    <contour>
      <point x="305" y="459" type="line"/>
      <point x="200" y="325" type="line"/>
      <point x="97" y="459" type="line"/>
      <point x="74" y="442" type="line"/>
      <point x="180" y="307" type="line"/>
      <point x="74" y="173" type="line"/>
      <point x="96" y="156" type="line"/>
      <point x="200" y="289" type="line"/>
      <point x="304" y="156" type="line"/>
      <point x="327" y="173" type="line"/>
      <point x="220" y="307" type="line"/>
      <point x="327" y="442" type="line"/>
    </contour>
  </outline>
</glyph>
<glyph name="Oslash" format="2">
  <advance width="566"/>
  <unicode hex="00D8"/>
  <anchor x="283" y="0" name="bottom"/>
  <anchor x="277" y="692" name="top"/>
  <outline>
    <contour>
      <point x="283" y="692" type="curve" smooth="yes"/>
      <point x="152" y="692"/>
      <point x="60" y="574"/>
      <point x="60" y="339" type="curve" smooth="yes"/>
      <point x="60" y="105"/>
      <point x="151" y="-10"/>
      <point x="283" y="-10" type="curve" smooth="yes"/>
      <point x="420" y="-10"/>
      <point x="506" y="109"/>
      <point x="506" y="340" type="curve" smooth="yes"/>
      <point x="506" y="580"/>
      <point x="416" y="692"/>
    </contour>
    <contour>
      <point x="283" y="663" type="curve"/>
      <point x="398" y="663"/>
      <point x="474" y="569"/>
      <point x="474" y="340" type="curve" smooth="yes"/>
      <point x="474" y="119"/>
      <point x="402" y="19"/>
      <point x="283" y="19" type="curve" smooth="yes"/>
      <point x="171" y="19"/>
      <point x="92" y="115"/>
      <point x="92" y="339" type="curve" smooth="yes"/>
      <point x="92" y="564"/>
      <point x="170" y="663"/>
    </contour>
    <contour>
      <point x="381" y="803" type="line"/>
      <point x="351" y="678" type="line"/>
      <point x="346" y="654" type="line"/>
      <point x="198" y="38" type="line"/>
      <point x="189" y="18" type="line"/>
      <point x="155" y="-105" type="line"/>
      <point x="185" y="-114" type="line"/>
      <point x="214" y="7" type="line"/>
      <point x="220" y="27" type="line"/>
      <point x="369" y="647" type="line"/>
      <point x="376" y="667" type="line"/>
      <point x="411" y="794" type="line"/>
    </contour>
  </outline>
</glyph>
<glyph name="Thorn" format="2">
  <advance width="457"/>
  <unicode hex="00DE"/>
  <anchor x="231" y="0" name="bottom"/>
  <anchor x="231" y="682" name="top"/>
  <outline>
    <contour>
      <point x="193" y="556" type="curve" smooth="yes"/>
      <point x="111" y="556" type="line"/>
      <point x="128" y="527" type="line"/>
      <point x="193" y="527" type="line" smooth="yes"/>
      <point x="326" y="527"/>
      <point x="387" y="480"/>
      <point x="387" y="356" type="curve" smooth="yes"/>
      <point x="387" y="217"/>
      <point x="316" y="173"/>
      <point x="190" y="173" type="curve" smooth="yes"/>
      <point x="121" y="173" type="line"/>
      <point x="121" y="144" type="line"/>
      <point x="190" y="144" type="line" smooth="yes"/>
      <point x="334" y="144"/>
      <point x="419" y="203"/>
      <point x="419" y="357" type="curve" smooth="yes"/>
      <point x="419" y="494"/>
      <point x="346" y="556"/>
    </contour>
    <contour>
      <point x="128" y="682" type="line"/>
      <point x="97" y="682" type="line"/>
      <point x="97" y="0" type="line"/>
      <point x="128" y="0" type="line"/>
    </contour>
  </outline>
</glyph>
<glyph name="germandbls" format="2">
  <advance width="472"/>
  <unicode hex="00DF"/>
  <outline>
    <contour>
      <point x="240" y="738" type="curve" smooth="yes"/>
      <point x="155" y="738"/>
      <point x="93" y="674"/>
      <point x="93" y="571" type="curve" smooth="yes"/>
      <point x="93" y="0" type="line"/>
      <point x="123" y="0" type="line"/>
      <point x="123" y="567" type="line" smooth="yes"/>
      <point x="123" y="662"/>
      <point x="173" y="710"/>
      <point x="240" y="710" type="curve" smooth="yes"/>
      <point x="297" y="710"/>
      <point x="336" y="676"/>
      <point x="336" y="610" type="curve" smooth="yes"/>
      <point x="336" y="510"/>
      <point x="239" y="499"/>
      <point x="239" y="421" type="curve" smooth="yes"/>
      <point x="239" y="314"/>
      <point x="397" y="317"/>
      <point x="397" y="150" type="curve" smooth="yes"/>
      <point x="397" y="65"/>
      <point x="359" y="18"/>
      <point x="301" y="18" type="curve" smooth="yes"/>
      <point x="271" y="18"/>
      <point x="253" y="25"/>
      <point x="238" y="33" type="curve"/>
      <point x="227" y="10" type="line"/>
      <point x="246" y="-1"/>
      <point x="268" y="-10"/>
      <point x="303" y="-10" type="curve" smooth="yes"/>
      <point x="380" y="-10"/>
      <point x="428" y="56"/>
      <point x="428" y="150" type="curve" smooth="yes"/>
      <point x="428" y="326"/>
      <point x="268" y="334"/>
      <point x="268" y="421" type="curve" smooth="yes"/>
      <point x="268" y="489"/>
      <point x="367" y="505"/>
      <point x="367" y="610" type="curve" smooth="yes"/>
      <point x="367" y="689"/>
      <point x="314" y="738"/>
    </contour>
  </outline>
</glyph>
<glyph name="ae" format="2">
  <advance width="693"/>
  <unicode hex="00E6"/>
  <anchor x="342" y="0" name="bottom"/>
  <anchor x="348" y="520" name="top"/>
  <outline>
    <contour>
      <point x="484" y="530" type="curve" smooth="yes"/>
      <point x="392" y="530"/>
      <point x="337" y="450"/>
      <point x="319" y="295" type="curve"/>
      <point x="315" y="256" type="line"/>
      <point x="315" y="88"/>
      <point x="383" y="-10"/>
      <point x="490" y="-10" type="curve" smooth="yes"/>
      <point x="546" y="-10"/>
      <point x="586" y="13"/>
      <point x="624" y="52" type="curve"/>
      <point x="607" y="71" type="line"/>
      <point x="572" y="38"/>
      <point x="540" y="18"/>
      <point x="491" y="18" type="curve" smooth="yes"/>
      <point x="408" y="18"/>
      <point x="348" y="91"/>
      <point x="346" y="256" type="curve"/>
      <point x="346" y="428"/>
      <point x="407" y="502"/>
      <point x="485" y="502" type="curve" smooth="yes"/>
      <point x="571" y="502"/>
      <point x="612" y="426"/>
      <point x="612" y="294" type="curve" smooth="yes"/>
      <point x="612" y="280"/>
      <point x="612" y="276"/>
      <point x="612" y="270" type="curve"/>
      <point x="341" y="270" type="line"/>
      <point x="341" y="244" type="line"/>
      <point x="640" y="244" type="line"/>
      <point x="641" y="253"/>
      <point x="642" y="268"/>
      <point x="642" y="283" type="curve" smooth="yes"/>
      <point x="642" y="441"/>
      <point x="589" y="530"/>
    </contour>
    <contour>
      <point x="321" y="309" type="line"/>
      <point x="229" y="309" type="line" smooth="yes"/>
      <point x="121" y="309"/>
      <point x="52" y="251"/>
      <point x="52" y="144" type="curve" smooth="yes"/>
      <point x="52" y="51"/>
      <point x="101" y="-10"/>
      <point x="183" y="-10" type="curve" smooth="yes"/>
      <point x="249" y="-10"/>
      <point x="298" y="26"/>
      <point x="351" y="122" type="curve"/>
      <point x="342" y="160" type="line"/>
      <point x="293" y="61"/>
      <point x="249" y="18"/>
      <point x="185" y="18" type="curve" smooth="yes"/>
      <point x="123" y="18"/>
      <point x="83" y="64"/>
      <point x="83" y="144" type="curve" smooth="yes"/>
      <point x="83" y="237"/>
      <point x="138" y="282"/>
      <point x="227" y="282" type="curve" smooth="yes"/>
      <point x="321" y="282" type="line"/>
    </contour>
    <contour>
      <point x="211" y="530" type="curve" smooth="yes"/>
      <point x="168" y="530"/>
      <point x="129" y="517"/>
      <point x="85" y="496" type="curve"/>
      <point x="94" y="472" type="line"/>
      <point x="135" y="490"/>
      <point x="173" y="502"/>
      <point x="210" y="502" type="curve" smooth="yes"/>
      <point x="287" y="502"/>
      <point x="315" y="457"/>
      <point x="315" y="369" type="curve"/>
      <point x="315" y="256" type="line"/>
      <point x="345" y="256" type="line"/>
      <point x="343" y="372" type="line"/>
      <point x="341" y="476"/>
      <point x="305" y="530"/>
    </contour>
  </outline>
</glyph>
<glyph name="eth" format="2">
  <advance width="449"/>
  <unicode hex="00F0"/>
  <anchor x="221" y="0" name="bottom"/>
  <anchor x="238" y="734" name="top"/>
  <outline>
    <contour>
      <point x="120" y="739" type="curve"/>
      <point x="113" y="713" type="line"/>
      <point x="155" y="703"/>
      <point x="200" y="676"/>
      <point x="230" y="651" type="curve"/>
      <point x="316" y="570"/>
      <point x="348" y="478"/>
      <point x="355" y="350" type="curve"/>
      <point x="356" y="340" type="line"/>
      <point x="357" y="328"/>
      <point x="357" y="317"/>
      <point x="357" y="295" type="curve" smooth="yes"/>
      <point x="357" y="113"/>
      <point x="306" y="18"/>
      <point x="221" y="18" type="curve" smooth="yes"/>
      <point x="136" y="18"/>
      <point x="88" y="97"/>
      <point x="88" y="229" type="curve" smooth="yes"/>
      <point x="88" y="345"/>
      <point x="133" y="435"/>
      <point x="216" y="435" type="curve" smooth="yes"/>
      <point x="275" y="435"/>
      <point x="321" y="394"/>
      <point x="361" y="328" type="curve"/>
      <point x="364" y="361" type="line"/>
      <point x="322" y="425"/>
      <point x="278" y="463"/>
      <point x="215" y="463" type="curve" smooth="yes"/>
      <point x="112" y="463"/>
      <point x="56" y="353"/>
      <point x="56" y="231" type="curve" smooth="yes"/>
      <point x="56" y="85"/>
      <point x="116" y="-10"/>
      <point x="221" y="-10" type="curve" smooth="yes"/>
      <point x="320" y="-10"/>
      <point x="388" y="86"/>
      <point x="388" y="292" type="curve" smooth="yes"/>
      <point x="388" y="482"/>
      <point x="339" y="588"/>
      <point x="253" y="665" type="curve"/>
      <point x="211" y="702"/>
      <point x="165" y="728"/>
    </contour>
    <contour>
      <point x="293" y="750" type="line"/>
      <point x="229" y="670" type="line"/>
      <point x="220" y="660" type="line"/>
      <point x="148" y="571" type="line"/>
      <point x="171" y="562" type="line"/>
      <point x="239" y="645" type="line"/>
      <point x="249" y="655" type="line"/>
      <point x="313" y="735" type="line"/>
    </contour>
  </outline>
</glyph>
<glyph name="oslash" format="2">
  <advance width="461"/>
  <unicode hex="00F8"/>
  <anchor x="230" y="0" name="bottom"/>
  <anchor x="231" y="520" name="top"/>
  <outline>
    <contour>
      <point x="231" y="530" type="curve" smooth="yes"/>
      <point x="125" y="530"/>
      <point x="56" y="440"/>
      <point x="56" y="259" type="curve" smooth="yes"/>
      <point x="56" y="82"/>
      <point x="122" y="-10"/>
      <point x="230" y="-10" type="curve" smooth="yes"/>
      <point x="337" y="-10"/>
      <point x="405" y="80"/>
      <point x="405" y="262" type="curve" smooth="yes"/>
      <point x="405" y="445"/>
      <point x="339" y="530"/>
    </contour>
    <contour>
      <point x="231" y="502" type="curve" smooth="yes"/>
      <point x="321" y="502"/>
      <point x="374" y="433"/>
      <point x="374" y="262" type="curve" smooth="yes"/>
      <point x="374" y="93"/>
      <point x="319" y="18"/>
      <point x="230" y="18" type="curve" smooth="yes"/>
      <point x="141" y="18"/>
      <point x="87" y="90"/>
      <point x="87" y="259" type="curve" smooth="yes"/>
      <point x="87" y="429"/>
      <point x="144" y="502"/>
    </contour>
    <contour>
      <point x="323" y="642" type="line"/>
      <point x="288" y="518" type="line"/>
      <point x="281" y="494" type="line"/>
      <point x="158" y="32" type="line"/>
      <point x="153" y="22" type="line"/>
      <point x="112" y="-114" type="line"/>
      <point x="139" y="-121" type="line"/>
      <point x="177" y="11" type="line"/>
      <point x="181" y="24" type="line"/>
      <point x="304" y="486" type="line"/>
      <point x="313" y="507" type="line"/>
      <point x="349" y="635" type="line"/>
    </contour>
  </outline>
</glyph>
<glyph name="thorn" format="2">
  <advance width="466"/>
  <unicode hex="00FE"/>
  <anchor x="235" y="-193" name="bottom"/>
  <anchor x="235" y="734" name="top"/>
  <outline>
    <contour>
      <point x="255" y="530" type="curve" smooth="yes"/>
      <point x="193" y="530"/>
      <point x="148" y="490"/>
      <point x="116" y="433" type="curve"/>
      <point x="118" y="398" type="line"/>
      <point x="154" y="460"/>
      <point x="194" y="502"/>
      <point x="255" y="502" type="curve" smooth="yes"/>
      <point x="334" y="502"/>
      <point x="378" y="429"/>
      <point x="378" y="264" type="curve" smooth="yes"/>
      <point x="378" y="96"/>
      <point x="331" y="18"/>
      <point x="248" y="18" type="curve" smooth="yes"/>
      <point x="193" y="18"/>
      <point x="152" y="58"/>
      <point x="118" y="117" type="curve"/>
      <point x="116" y="81" type="line"/>
      <point x="142" y="35"/>
      <point x="186" y="-10"/>
      <point x="250" y="-10" type="curve" smooth="yes"/>
      <point x="349" y="-10"/>
      <point x="410" y="83"/>
      <point x="410" y="264" type="curve" smooth="yes"/>
      <point x="410" y="447"/>
      <point x="353" y="530"/>
    </contour>
    <contour>
      <point x="123" y="738" type="line"/>
      <point x="93" y="734" type="line"/>
      <point x="93" y="-199" type="line"/>
      <point x="123" y="-193" type="line"/>
    </contour>
  </outline>
</glyph>
<glyph name="dcroat" format="2">
  <advance width="479"/>
  <unicode hex="0111"/>
  <anchor x="241" y="0" name="bottom"/>
  <anchor x="237" y="260" name="center"/>
  <anchor x="226" y="734" name="top"/>
  <anchor x="399" y="734" name="topright"/>
  <outline>
    <contour>
      <point x="444" y="652" type="line"/>
      <point x="214" y="652" type="line"/>
      <point x="214" y="625" type="line"/>
      <point x="382" y="625" type="line"/>
      <point x="444" y="625" type="line"/>
    </contour>
    <component base="d"/>
  </outline>
</glyph>
<glyph name="Hbar" format="2">
  <advance width="545"/>
  <unicode hex="0126"/>
  <anchor x="274" y="0" name="bottom"/>
  <anchor x="457" y="0" name="bottomright"/>
  <anchor x="272" y="341" name="center"/>
  <anchor x="272" y="682" name="top"/>
  <anchor x="75" y="682" name="topleft"/>
  <outline>
    <contour>
      <point x="500" y="542" type="line"/>
      <point x="448" y="542" type="line"/>
      <point x="45" y="542" type="line"/>
      <point x="45" y="518" type="line"/>
      <point x="97" y="518" type="line"/>
      <point x="500" y="518" type="line"/>
    </contour>
    <component base="H" xOffset="1"/>
  </outline>
</glyph>
<glyph name="hbar" format="2">
  <advance width="482"/>
  <unicode hex="0127"/>
  <anchor x="246" y="0" name="bottom"/>
  <anchor x="247" y="260" name="center"/>
  <anchor x="247" y="734" name="top"/>
  <outline>
    <contour>
      <point x="271" y="652" type="line"/>
      <point x="35" y="652" type="line"/>
      <point x="35" y="625" type="line"/>
      <point x="97" y="625" type="line"/>
      <point x="271" y="625" type="line"/>
    </contour>
    <component base="h" xOffset="4"/>
  </outline>
</glyph>
<glyph name="dotlessi" format="2">
  <advance width="216"/>
  <unicode hex="0131"/>
  <anchor x="108" y="0" name="bottom"/>
  <anchor x="131" y="0" name="ogonek"/>
  <anchor x="108" y="520" name="top"/>
  <outline>
    <contour>
      <point x="123" y="520" type="line"/>
      <point x="93" y="520" type="line"/>
      <point x="93" y="0" type="line"/>
      <point x="123" y="0" type="line"/>
    </contour>
  </outline>
</glyph>
<glyph name="kgreenlandic" format="2">
  <advance width="389"/>
  <unicode hex="0138"/>
  <anchor x="194" y="0" name="bottom"/>
  <anchor x="194" y="520" name="top"/>
  <outline>
    <contour>
      <point x="358" y="520" type="line"/>
      <point x="321" y="520" type="line"/>
      <point x="128" y="274" type="line"/>
      <point x="341" y="0" type="line"/>
      <point x="378" y="0" type="line"/>
      <point x="164" y="275" type="line"/>
    </contour>
    <contour>
      <point x="123" y="520" type="line"/>
      <point x="93" y="520" type="line"/>
      <point x="93" y="0" type="line"/>
      <point x="123" y="0" type="line"/>
    </contour>
  </outline>
</glyph>
<glyph name="Lslash" format="2">
  <advance width="386"/>
  <unicode hex="0141"/>
  <anchor x="237" y="0" name="bottom"/>
  <anchor x="298" y="354" name="center"/>
  <anchor x="119" y="682" name="top"/>
  <anchor x="158" y="682" name="topright"/>
  <outline>
    <contour>
      <point x="293" y="475" type="line"/>
      <point x="103" y="331" type="line"/>
      <point x="33" y="279" type="line"/>
      <point x="46" y="257" type="line"/>
      <point x="306" y="453" type="line"/>
    </contour>
    <component base="L" xOffset="6"/>
  </outline>
</glyph>
<glyph name="lslash" format="2">
  <advance width="239"/>
  <unicode hex="0142"/>
  <anchor x="152" y="0" name="bottom"/>
  <anchor x="223" y="375" name="center"/>
  <anchor x="109" y="734" name="top"/>
  <anchor x="147" y="734" name="topright"/>
  <outline>
    <contour>
      <point x="43" y="303" type="line"/>
      <point x="220" y="432" type="line"/>
      <point x="207" y="452" type="line"/>
      <point x="94" y="370" type="line"/>
      <point x="30" y="322" type="line"/>
    </contour>
    <component base="l" xOffset="6"/>
  </outline>
</glyph>
<glyph name="napostrophe" format="2">
  <advance width="538"/>
  <unicode hex="0149"/>
  <anchor x="298" y="0" name="bottom"/>
  <anchor x="304" y="520" name="top"/>
  <anchor x="145" y="520" name="topleft"/>
  <outline>
    <contour>
      <point x="83" y="738" type="curve" smooth="yes"/>
      <point x="63" y="738"/>
      <point x="52" y="724"/>
      <point x="52" y="707" type="curve" smooth="yes"/>
      <point x="52" y="691"/>
      <point x="61" y="682"/>
      <point x="73" y="677" type="curve"/>
      <point x="49" y="558" type="line"/>
      <point x="69" y="558" type="line"/>
      <point x="98" y="650" type="line" smooth="yes"/>
      <point x="108" y="681"/>
      <point x="113" y="692"/>
      <point x="113" y="707" type="curve" smooth="yes"/>
      <point x="113" y="725"/>
      <point x="102" y="738"/>
    </contour>
    <component base="n" xOffset="60"/>
  </outline>
</glyph>
<glyph name="OE" format="2">
  <advance width="700"/>
  <unicode hex="0152"/>
  <anchor x="351" y="0" name="bottom"/>
  <anchor x="351" y="682" name="top"/>
  <outline>
    <contour>
      <point x="275" y="692" type="curve" smooth="yes"/>
      <point x="152" y="692"/>
      <point x="60" y="565"/>
      <point x="60" y="339" type="curve" smooth="yes"/>
      <point x="60" y="114"/>
      <point x="151" y="-10"/>
      <point x="275" y="-10" type="curve" smooth="yes"/>
      <point x="307" y="-10"/>
      <point x="339" y="-1"/>
      <point x="363" y="20" type="curve"/>
      <point x="443" y="61"/>
      <point x="490" y="172"/>
      <point x="490" y="349" type="curve" smooth="yes"/>
      <point x="490" y="513"/>
      <point x="444" y="619"/>
      <point x="365" y="664" type="curve"/>
      <point x="342" y="683"/>
      <point x="309" y="692"/>
    </contour>
    <contour>
      <point x="666" y="29" type="line"/>
      <point x="366" y="29" type="line"/>
      <point x="326" y="0" type="line"/>
      <point x="666" y="0" type="line"/>
    </contour>
    <contour>
      <point x="625" y="373" type="line"/>
      <point x="476" y="373" type="line"/>
      <point x="476" y="344" type="line"/>
      <point x="625" y="344" type="line"/>
    </contour>
    <contour>
      <point x="661" y="682" type="line"/>
      <point x="328" y="682" type="line"/>
      <point x="360" y="653" type="line"/>
      <point x="657" y="653" type="line"/>
    </contour>
    <contour>
      <point x="275" y="663" type="curve"/>
      <point x="382" y="663"/>
      <point x="458" y="556"/>
      <point x="458" y="349" type="curve" smooth="yes"/>
      <point x="458" y="129"/>
      <point x="385" y="19"/>
      <point x="275" y="19" type="curve" smooth="yes"/>
      <point x="171" y="19"/>
      <point x="92" y="129"/>
      <point x="92" y="339" type="curve" smooth="yes"/>
      <point x="92" y="554"/>
      <point x="170" y="663"/>
    </contour>
  </outline>
</glyph>
<glyph name="oe" format="2">
  <advance width="752"/>
  <unicode hex="0153"/>
  <anchor x="393" y="0" name="bottom"/>
  <anchor x="390" y="520" name="top"/>
  <outline>
    <contour>
      <point x="231" y="530" type="curve" smooth="yes"/>
      <point x="125" y="530"/>
      <point x="56" y="439"/>
      <point x="56" y="259" type="curve" smooth="yes"/>
      <point x="56" y="84"/>
      <point x="122" y="-10"/>
      <point x="230" y="-10" type="curve" smooth="yes"/>
      <point x="338" y="-10"/>
      <point x="401" y="99"/>
      <point x="405" y="262" type="curve"/>
      <point x="401" y="426"/>
      <point x="340" y="530"/>
    </contour>
    <contour>
      <point x="231" y="502" type="curve" smooth="yes"/>
      <point x="321" y="502"/>
      <point x="374" y="418"/>
      <point x="374" y="262" type="curve" smooth="yes"/>
      <point x="374" y="103"/>
      <point x="319" y="18"/>
      <point x="230" y="18" type="curve" smooth="yes"/>
      <point x="141" y="18"/>
      <point x="87" y="95"/>
      <point x="87" y="259" type="curve" smooth="yes"/>
      <point x="87" y="429"/>
      <point x="144" y="502"/>
    </contour>
    <contour>
      <point x="545" y="530" type="curve" smooth="yes"/>
      <point x="438" y="530"/>
      <point x="379" y="416"/>
      <point x="374" y="256" type="curve"/>
      <point x="379" y="98"/>
      <point x="440" y="-10"/>
      <point x="550" y="-10" type="curve"/>
      <point x="604" y="-10"/>
      <point x="644" y="13"/>
      <point x="683" y="52" type="curve"/>
      <point x="666" y="71" type="line"/>
      <point x="630" y="38"/>
      <point x="599" y="18"/>
      <point x="550" y="18" type="curve" smooth="yes"/>
      <point x="467" y="18"/>
      <point x="408" y="91"/>
      <point x="405" y="256" type="curve"/>
      <point x="405" y="428"/>
      <point x="467" y="503"/>
      <point x="544" y="503" type="curve" smooth="yes"/>
      <point x="631" y="503"/>
      <point x="671" y="421"/>
      <point x="671" y="294" type="curve" smooth="yes"/>
      <point x="671" y="280"/>
      <point x="671" y="276"/>
      <point x="671" y="270" type="curve"/>
      <point x="400" y="270" type="line"/>
      <point x="400" y="244" type="line"/>
      <point x="699" y="244" type="line"/>
      <point x="700" y="253"/>
      <point x="701" y="268"/>
      <point x="701" y="283" type="curve" smooth="yes"/>
      <point x="701" y="436"/>
      <point x="648" y="530"/>
    </contour>
  </outline>
</glyph>
<glyph name="Tbar" format="2">
  <advance width="394"/>
  <unicode hex="0166"/>
  <anchor x="197" y="0" name="bottom"/>
  <anchor x="221" y="0" name="bottomright"/>
  <anchor x="197" y="348" name="center"/>
  <anchor x="197" y="682" name="top"/>
  <outline>
    <contour>
      <point x="315" y="382" type="line"/>
      <point x="80" y="382" type="line"/>
      <point x="80" y="354" type="line"/>
      <point x="182" y="354" type="line"/>
      <point x="315" y="354" type="line"/>
    </contour>
    <component base="T"/>
  </outline>
</glyph>
<glyph name="tbar" format="2">
  <advance width="269"/>
  <unicode hex="0167"/>
  <anchor x="183" y="0" name="bottom"/>
  <anchor x="131" y="260" name="center"/>
  <anchor x="104" y="650" name="top"/>
  <anchor x="131" y="735" name="topright"/>
  <outline>
    <contour>
      <point x="228" y="344" type="line"/>
      <point x="89" y="344" type="line"/>
      <point x="20" y="344" type="line"/>
      <point x="20" y="317" type="line"/>
      <point x="228" y="317" type="line"/>
    </contour>
    <component base="t"/>
  </outline>
</glyph>
<glyph name="bstroke" format="2">
  <advance width="575"/>
  <unicode hex="0180"/>
  <anchor x="250" y="0" name="bottom"/>
  <anchor x="247" y="734" name="top"/>
  <outline>
    <contour>
      <point x="271" y="652" type="line"/>
      <point x="35" y="652" type="line"/>
      <point x="35" y="625" type="line"/>
      <point x="97" y="625" type="line"/>
      <point x="271" y="625" type="line"/>
    </contour>
    <component base="b" xOffset="4"/>
  </outline>
</glyph>
<glyph name="Tonesix" format="2">
  <advance width="454"/>
  <unicode hex="0184"/>
  <anchor x="227" y="0" name="bottom"/>
  <anchor x="227" y="682" name="top"/>
  <outline>
    <contour>
      <point x="97" y="0" type="line"/>
      <point x="227" y="0" type="line" smooth="yes"/>
      <point x="339" y="0"/>
      <point x="419" y="64"/>
      <point x="419" y="213" type="curve" smooth="yes"/>
      <point x="419" y="348"/>
      <point x="347" y="412"/>
      <point x="227" y="412" type="curve" smooth="yes"/>
      <point x="121" y="412" type="line"/>
      <point x="121" y="383" type="line"/>
      <point x="229" y="383" type="line" smooth="yes"/>
      <point x="328" y="383"/>
      <point x="386" y="331"/>
      <point x="386" y="214" type="curve" smooth="yes"/>
      <point x="386" y="83"/>
      <point x="326" y="29"/>
      <point x="233" y="29" type="curve" smooth="yes"/>
      <point x="128" y="29" type="line"/>
      <point x="128" y="682" type="line"/>
      <point x="101" y="682" type="line"/>
      <point x="97" y="612" type="line"/>
    </contour>
    <contour>
      <point x="97" y="570" type="line"/>
      <point x="101" y="682" type="line"/>
      <point x="93" y="645"/>
      <point x="78" y="618"/>
      <point x="62" y="599" type="curve"/>
    </contour>
  </outline>
</glyph>
<glyph name="tonesix" format="2">
  <advance width="404"/>
  <unicode hex="0185"/>
  <anchor x="202" y="0" name="bottom"/>
  <anchor x="202" y="520" name="top"/>
  <outline>
    <contour>
      <point x="93" y="0" type="line"/>
      <point x="216" y="0" type="line"/>
      <point x="307" y="0"/>
      <point x="372" y="54"/>
      <point x="372" y="175" type="curve" smooth="yes"/>
      <point x="372" y="276"/>
      <point x="326" y="338"/>
      <point x="210" y="338" type="curve" smooth="yes"/>
      <point x="116" y="338" type="line"/>
      <point x="116" y="310" type="line"/>
      <point x="211" y="310" type="line" smooth="yes"/>
      <point x="307" y="310"/>
      <point x="341" y="260"/>
      <point x="341" y="175" type="curve" smooth="yes"/>
      <point x="341" y="69"/>
      <point x="292" y="28"/>
      <point x="213" y="28" type="curve" smooth="yes"/>
      <point x="123" y="28" type="line"/>
      <point x="123" y="520" type="line"/>
      <point x="97" y="520" type="line"/>
      <point x="93" y="489" type="line"/>
    </contour>
    <contour>
      <point x="93" y="418" type="line"/>
      <point x="97" y="520" type="line"/>
      <point x="86" y="485"/>
      <point x="75" y="466"/>
      <point x="58" y="447" type="curve"/>
    </contour>
  </outline>
</glyph>
<glyph name="Oopen" format="2">
  <advance width="446"/>
  <unicode hex="0186"/>
  <anchor x="178" y="0" name="bottom"/>
  <anchor x="176" y="344" name="center"/>
  <anchor x="178" y="682" name="top"/>
  <outline>
    <contour>
      <point x="178" y="692" type="curve" smooth="yes"/>
      <point x="114" y="692"/>
      <point x="66" y="668"/>
      <point x="27" y="633" type="curve"/>
      <point x="43" y="611" type="line"/>
      <point x="84" y="646"/>
      <point x="124" y="663"/>
      <point x="176" y="663" type="curve" smooth="yes"/>
      <point x="278" y="663"/>
      <point x="354" y="568"/>
      <point x="354" y="341" type="curve" smooth="yes"/>
      <point x="354" y="126"/>
      <point x="270" y="20"/>
      <point x="167" y="20" type="curve" smooth="yes"/>
      <point x="109" y="20"/>
      <point x="74" y="44"/>
      <point x="38" y="77" type="curve"/>
      <point x="20" y="55" type="line"/>
      <point x="55" y="19"/>
      <point x="100" y="-10"/>
      <point x="168" y="-10" type="curve" smooth="yes"/>
      <point x="291" y="-10"/>
      <point x="386" y="112"/>
      <point x="386" y="341" type="curve" smooth="yes"/>
      <point x="386" y="577"/>
      <point x="300" y="692"/>
    </contour>
  </outline>
</glyph>
<glyph name="Chook" format="2">
  <advance width="447"/>
  <unicode hex="0187"/>
  <anchor x="223" y="0" name="bottom"/>
  <anchor x="223" y="682" name="top"/>
  <outline>
    <contour>
      <point x="281" y="-10" type="curve" smooth="yes"/>
      <point x="346" y="-10"/>
      <point x="391" y="17"/>
      <point x="426" y="55" type="curve"/>
      <point x="408" y="78" type="line"/>
      <point x="375" y="44"/>
      <point x="342" y="20"/>
      <point x="282" y="20" type="curve" smooth="yes"/>
      <point x="176" y="20"/>
      <point x="92" y="126"/>
      <point x="92" y="341" type="curve" smooth="yes"/>
      <point x="92" y="568"/>
      <point x="179" y="663"/>
      <point x="285" y="663" type="curve" smooth="yes"/>
      <point x="334" y="663"/>
      <point x="365" y="647"/>
      <point x="404" y="613" type="curve"/>
      <point x="420" y="633" type="line"/>
      <point x="411" y="640"/>
      <point x="402" y="647"/>
      <point x="393" y="651" type="curve"/>
      <point x="365" y="676"/>
      <point x="331" y="692"/>
      <point x="283" y="692" type="curve" smooth="yes"/>
      <point x="160" y="692"/>
      <point x="60" y="577"/>
      <point x="60" y="341" type="curve" smooth="yes"/>
      <point x="60" y="112"/>
      <point x="155" y="-10"/>
    </contour>
    <contour>
      <point x="390" y="638" type="line"/>
      <point x="420" y="633" type="line"/>
      <point x="420" y="700" type="line" smooth="yes"/>
      <point x="420" y="769"/>
      <point x="446" y="791"/>
      <point x="479" y="791" type="curve" smooth="yes"/>
      <point x="507" y="791"/>
      <point x="525" y="780"/>
      <point x="542" y="767" type="curve"/>
      <point x="556" y="787" type="line"/>
      <point x="539" y="802"/>
      <point x="514" y="818"/>
      <point x="478" y="818" type="curve" smooth="yes"/>
      <point x="425" y="818"/>
      <point x="390" y="780"/>
      <point x="390" y="701" type="curve" smooth="yes"/>
    </contour>
  </outline>
</glyph>
<glyph name="chook" format="2">
  <advance width="380"/>
  <unicode hex="0188"/>
  <anchor x="190" y="0" name="bottom"/>
  <anchor x="190" y="734" name="top"/>
  <outline>
    <contour>
      <point x="406" y="738" type="curve" smooth="yes"/>
      <point x="353" y="738"/>
      <point x="317" y="700"/>
      <point x="317" y="621" type="curve" smooth="yes"/>
      <point x="317" y="496" type="line"/>
      <point x="347" y="480" type="line"/>
      <point x="347" y="620" type="line" smooth="yes"/>
      <point x="347" y="689"/>
      <point x="374" y="711"/>
      <point x="406" y="711" type="curve" smooth="yes"/>
      <point x="435" y="711"/>
      <point x="453" y="700"/>
      <point x="469" y="687" type="curve"/>
      <point x="483" y="707" type="line"/>
      <point x="467" y="722"/>
      <point x="442" y="738"/>
    </contour>
    <contour>
      <point x="233" y="530" type="curve" smooth="yes"/>
      <point x="127" y="530"/>
      <point x="56" y="426"/>
      <point x="56" y="257" type="curve" smooth="yes"/>
      <point x="56" y="87"/>
      <point x="127" y="-10"/>
      <point x="234" y="-10" type="curve" smooth="yes"/>
      <point x="281" y="-10"/>
      <point x="320" y="11"/>
      <point x="352" y="44" type="curve"/>
      <point x="335" y="66" type="line"/>
      <point x="307" y="36"/>
      <point x="275" y="18"/>
      <point x="233" y="18" type="curve" smooth="yes"/>
      <point x="149" y="18"/>
      <point x="88" y="98"/>
      <point x="88" y="257" type="curve" smooth="yes"/>
      <point x="88" y="419"/>
      <point x="150" y="502"/>
      <point x="234" y="502" type="curve" smooth="yes"/>
      <point x="276" y="502"/>
      <point x="305" y="485"/>
      <point x="333" y="462" type="curve"/>
      <point x="347" y="480" type="line"/>
      <point x="340" y="487"/>
      <point x="331" y="493"/>
      <point x="322" y="498" type="curve"/>
      <point x="296" y="520"/>
      <point x="269" y="530"/>
    </contour>
  </outline>
</glyph>
<glyph name="Dtopbar" format="2">
  <advance width="561"/>
  <unicode hex="018B"/>
  <anchor x="231" y="0" name="bottom"/>
  <anchor x="231" y="682" name="top"/>
  <outline>
    <contour>
      <point x="98" y="682" type="line"/>
      <point x="98" y="653" type="line"/>
      <point x="343" y="653" type="line"/>
      <point x="365" y="682" type="line"/>
    </contour>
    <component base="Komide-cy" xOffset="8"/>
  </outline>
</glyph>
<glyph name="dtopbar" format="2">
  <advance width="474"/>
  <unicode hex="018C"/>
  <anchor x="236" y="0" name="bottom"/>
  <anchor x="236" y="734" name="top"/>
  <outline>
    <contour>
      <point x="219" y="-10" type="curve" smooth="yes"/>
      <point x="290" y="-10"/>
      <point x="331" y="39"/>
      <point x="354" y="91" type="curve"/>
      <point x="355" y="141" type="line"/>
      <point x="325" y="63"/>
      <point x="288" y="18"/>
      <point x="221" y="18" type="curve" smooth="yes"/>
      <point x="142" y="18"/>
      <point x="93" y="106"/>
      <point x="92" y="258" type="curve" smooth="yes"/>
      <point x="91" y="412"/>
      <point x="148" y="502"/>
      <point x="230" y="502" type="curve" smooth="yes"/>
      <point x="294" y="502"/>
      <point x="331" y="454"/>
      <point x="356" y="403" type="curve"/>
      <point x="356" y="445" type="line"/>
      <point x="334" y="484"/>
      <point x="296" y="530"/>
      <point x="228" y="530" type="curve" smooth="yes"/>
      <point x="122" y="530"/>
      <point x="60" y="419"/>
      <point x="60" y="258" type="curve" smooth="yes"/>
      <point x="60" y="90"/>
      <point x="123" y="-10"/>
    </contour>
    <contour>
      <point x="354" y="0" type="line"/>
      <point x="381" y="0" type="line"/>
      <point x="381" y="734" type="line"/>
      <point x="351" y="734" type="line"/>
      <point x="351" y="117" type="line"/>
      <point x="351" y="96" type="line"/>
    </contour>
    <contour>
      <point x="153" y="706" type="line"/>
      <point x="351" y="706" type="line"/>
      <point x="372" y="734" type="line"/>
      <point x="153" y="734" type="line"/>
    </contour>
  </outline>
</glyph>
<glyph name="deltaturned" format="2">
  <advance width="459"/>
  <unicode hex="018D"/>
  <anchor x="229" y="-193" name="bottom"/>
  <anchor x="229" y="520" name="top"/>
  <outline>
    <contour>
      <point x="100" y="-89" type="curve" smooth="yes"/>
      <point x="100" y="-154"/>
      <point x="149" y="-199"/>
      <point x="225" y="-199" type="curve" smooth="yes"/>
      <point x="284" y="-199"/>
      <point x="321" y="-183"/>
      <point x="358" y="-154" type="curve"/>
      <point x="341" y="-133" type="line"/>
      <point x="306" y="-159"/>
      <point x="278" y="-171"/>
      <point x="226" y="-171" type="curve" smooth="yes"/>
      <point x="167" y="-171"/>
      <point x="131" y="-140"/>
      <point x="131" y="-89" type="curve" smooth="yes"/>
      <point x="131" y="-39"/>
      <point x="154" y="-11"/>
      <point x="246" y="32" type="curve" smooth="yes"/>
      <point x="353" y="82"/>
      <point x="403" y="147"/>
      <point x="403" y="285" type="curve" smooth="yes"/>
      <point x="403" y="446"/>
      <point x="341" y="530"/>
      <point x="230" y="530" type="curve" smooth="yes"/>
      <point x="123" y="530"/>
      <point x="56" y="443"/>
      <point x="56" y="284" type="curve" smooth="yes"/>
      <point x="56" y="153"/>
      <point x="114" y="70"/>
      <point x="204" y="30" type="curve"/>
      <point x="233" y="41" type="line"/>
      <point x="154" y="72"/>
      <point x="87" y="148"/>
      <point x="87" y="284" type="curve" smooth="yes"/>
      <point x="87" y="427"/>
      <point x="142" y="502"/>
      <point x="230" y="502" type="curve" smooth="yes"/>
      <point x="323" y="502"/>
      <point x="372" y="430"/>
      <point x="372" y="285" type="curve" smooth="yes"/>
      <point x="372" y="156"/>
      <point x="333" y="101"/>
      <point x="214" y="46" type="curve" smooth="yes"/>
      <point x="135" y="10"/>
      <point x="100" y="-27"/>
    </contour>
  </outline>
</glyph>
<glyph name="Ereversed" format="2">
  <advance width="408"/>
  <unicode hex="018E"/>
  <outline>
    <contour>
      <point x="40" y="682" type="line"/>
      <point x="40" y="653" type="line"/>
      <point x="280" y="653" type="line"/>
      <point x="280" y="373" type="line"/>
      <point x="75" y="373" type="line"/>
      <point x="75" y="345" type="line"/>
      <point x="280" y="345" type="line"/>
      <point x="280" y="29" type="line"/>
      <point x="34" y="29" type="line"/>
      <point x="34" y="0" type="line"/>
      <point x="311" y="0" type="line"/>
      <point x="311" y="682" type="line"/>
    </contour>
  </outline>
</glyph>
<glyph name="Eopen" format="2">
  <advance width="426"/>
  <unicode hex="0190"/>
  <anchor x="213" y="0" name="bottom"/>
  <anchor x="213" y="682" name="top"/>
  <outline>
    <contour>
      <point x="223" y="692" type="curve" smooth="yes"/>
      <point x="125" y="692"/>
      <point x="65" y="625"/>
      <point x="65" y="525" type="curve" smooth="yes"/>
      <point x="65" y="435"/>
      <point x="110" y="386"/>
      <point x="172" y="370" type="curve"/>
      <point x="105" y="361"/>
      <point x="48" y="306"/>
      <point x="48" y="195" type="curve" smooth="yes"/>
      <point x="48" y="66"/>
      <point x="125" y="-10"/>
      <point x="231" y="-10" type="curve" smooth="yes"/>
      <point x="297" y="-10"/>
      <point x="354" y="21"/>
      <point x="403" y="82" type="curve"/>
      <point x="383" y="101" type="line"/>
      <point x="343" y="51"/>
      <point x="294" y="19"/>
      <point x="231" y="19" type="curve" smooth="yes"/>
      <point x="143" y="19"/>
      <point x="80" y="83"/>
      <point x="80" y="194" type="curve" smooth="yes"/>
      <point x="80" y="297"/>
      <point x="133" y="357"/>
      <point x="230" y="355" type="curve" smooth="yes"/>
      <point x="275" y="354" type="line"/>
      <point x="280" y="383" type="line"/>
      <point x="233" y="383" type="line" smooth="yes"/>
      <point x="153" y="383"/>
      <point x="97" y="432"/>
      <point x="97" y="527" type="curve" smooth="yes"/>
      <point x="97" y="610"/>
      <point x="147" y="663"/>
      <point x="224" y="663" type="curve" smooth="yes"/>
      <point x="282" y="663"/>
      <point x="328" y="633"/>
      <point x="368" y="589" type="curve"/>
      <point x="386" y="609" type="line"/>
      <point x="339" y="662"/>
      <point x="289" y="692"/>
    </contour>
  </outline>
</glyph>
<glyph name="florin" format="2">
  <advance width="256"/>
  <unicode hex="0192"/>
  <outline>
    <contour>
      <point x="205" y="738" type="curve" smooth="yes"/>
      <point x="140" y="738"/>
      <point x="96" y="698"/>
      <point x="96" y="627" type="curve" smooth="yes"/>
      <point x="96" y="0" type="line" smooth="yes"/>
      <point x="126" y="44" type="line"/>
      <point x="126" y="623" type="line" smooth="yes"/>
      <point x="126" y="687"/>
      <point x="158" y="710"/>
      <point x="207" y="710" type="curve" smooth="yes"/>
      <point x="237" y="710"/>
      <point x="261" y="702"/>
      <point x="289" y="686" type="curve"/>
      <point x="302" y="709" type="line"/>
      <point x="273" y="727"/>
      <point x="240" y="738"/>
    </contour>
    <contour>
      <point x="244" y="520" type="line"/>
      <point x="23" y="520" type="line"/>
      <point x="23" y="493" type="line"/>
      <point x="239" y="493" type="line"/>
    </contour>
    <contour>
      <point x="126" y="320" type="line"/>
      <point x="96" y="320" type="line"/>
      <point x="96" y="9" type="line"/>
      <point x="96" y="-108"/>
      <point x="73" y="-138"/>
      <point x="16" y="-174" type="curve"/>
      <point x="25" y="-196" type="line"/>
      <point x="93" y="-156"/>
      <point x="126" y="-124"/>
      <point x="126" y="8" type="curve" smooth="yes"/>
    </contour>
  </outline>
</glyph>
<glyph name="Ghook" format="2">
  <advance width="459"/>
  <unicode hex="0193"/>
  <anchor x="230" y="0" name="bottom"/>
  <anchor x="230" y="682" name="top"/>
  <outline>
    <contour>
      <point x="288" y="-10" type="curve" smooth="yes"/>
      <point x="343" y="-10"/>
      <point x="397" y="8"/>
      <point x="444" y="42" type="curve"/>
      <point x="444" y="359" type="line"/>
      <point x="294" y="359" type="line"/>
      <point x="298" y="330" type="line"/>
      <point x="413" y="330" type="line"/>
      <point x="413" y="58" type="line"/>
      <point x="377" y="33"/>
      <point x="341" y="19"/>
      <point x="289" y="19" type="curve" smooth="yes"/>
      <point x="171" y="19"/>
      <point x="92" y="125"/>
      <point x="92" y="345" type="curve" smooth="yes"/>
      <point x="92" y="574"/>
      <point x="193" y="663"/>
      <point x="286" y="663" type="curve" smooth="yes"/>
      <point x="338" y="663"/>
      <point x="375" y="648"/>
      <point x="416" y="613" type="curve"/>
      <point x="432" y="631" type="line"/>
      <point x="424" y="638"/>
      <point x="415" y="644"/>
      <point x="408" y="649" type="curve" smooth="yes"/>
      <point x="371" y="676"/>
      <point x="336" y="692"/>
      <point x="285" y="692" type="curve" smooth="yes"/>
      <point x="175" y="692"/>
      <point x="60" y="583"/>
      <point x="60" y="345" type="curve" smooth="yes"/>
      <point x="60" y="109"/>
      <point x="153" y="-10"/>
    </contour>
    <contour>
      <point x="402" y="638" type="line"/>
      <point x="432" y="631" type="line"/>
      <point x="432" y="700" type="line" smooth="yes"/>
      <point x="432" y="769"/>
      <point x="459" y="791"/>
      <point x="491" y="791" type="curve" smooth="yes"/>
      <point x="520" y="791"/>
      <point x="538" y="780"/>
      <point x="554" y="767" type="curve"/>
      <point x="568" y="787" type="line"/>
      <point x="552" y="802"/>
      <point x="527" y="818"/>
      <point x="491" y="818" type="curve" smooth="yes"/>
      <point x="438" y="818"/>
      <point x="402" y="780"/>
      <point x="402" y="701" type="curve" smooth="yes"/>
    </contour>
  </outline>
</glyph>
<glyph name="Gammaafrican" format="2">
  <advance width="443"/>
  <unicode hex="0194"/>
  <anchor x="221" y="-193" name="bottom"/>
  <anchor x="221" y="682" name="top"/>
  <outline>
    <contour>
      <point x="222" y="-199" type="curve" smooth="yes"/>
      <point x="264" y="-199"/>
      <point x="287" y="-165"/>
      <point x="287" y="-121" type="curve" smooth="yes"/>
      <point x="287" y="-73"/>
      <point x="270" y="-28"/>
      <point x="240" y="52" type="curve"/>
      <point x="222" y="76" type="line"/>
      <point x="52" y="682" type="line"/>
      <point x="19" y="682" type="line"/>
      <point x="203" y="52" type="line"/>
      <point x="222" y="29" type="line"/>
      <point x="244" y="-39"/>
      <point x="257" y="-78"/>
      <point x="257" y="-120" type="curve" smooth="yes"/>
      <point x="257" y="-152"/>
      <point x="245" y="-171"/>
      <point x="222" y="-171" type="curve" smooth="yes"/>
      <point x="198" y="-171"/>
      <point x="186" y="-152"/>
      <point x="186" y="-120" type="curve" smooth="yes"/>
      <point x="186" y="-77"/>
      <point x="199" y="-39"/>
      <point x="222" y="29" type="curve"/>
      <point x="240" y="52" type="line"/>
      <point x="424" y="682" type="line"/>
      <point x="391" y="682" type="line"/>
      <point x="222" y="76" type="line"/>
      <point x="203" y="52" type="line"/>
      <point x="174" y="-29"/>
      <point x="156" y="-75"/>
      <point x="156" y="-121" type="curve" smooth="yes"/>
      <point x="156" y="-167"/>
      <point x="182" y="-199"/>
    </contour>
  </outline>
</glyph>
<glyph name="hv" format="2">
  <advance width="730"/>
  <unicode hex="0195"/>
  <anchor x="365" y="0" name="bottom"/>
  <anchor x="365" y="734" name="top"/>
  <outline>
    <contour>
      <point x="493" y="-10" type="curve" smooth="yes"/>
      <point x="582" y="-10"/>
      <point x="658" y="73"/>
      <point x="658" y="265" type="curve" smooth="yes"/>
      <point x="658" y="357"/>
      <point x="647" y="444"/>
      <point x="636" y="520" type="curve"/>
      <point x="606" y="520" type="line"/>
      <point x="617" y="444"/>
      <point x="627" y="356"/>
      <point x="627" y="265" type="curve" smooth="yes"/>
      <point x="627" y="76"/>
      <point x="559" y="18"/>
      <point x="494" y="18" type="curve" smooth="yes"/>
      <point x="435" y="18"/>
      <point x="390" y="58"/>
      <point x="390" y="157" type="curve" smooth="yes"/>
      <point x="390" y="318" type="line"/>
      <point x="360" y="318" type="line"/>
      <point x="360" y="156" type="line" smooth="yes"/>
      <point x="360" y="45"/>
      <point x="418" y="-10"/>
    </contour>
    <contour>
      <point x="93" y="0" type="line"/>
      <point x="123" y="0" type="line"/>
      <point x="123" y="739" type="line"/>
      <point x="93" y="734" type="line"/>
    </contour>
    <contour>
      <point x="360" y="311" type="line"/>
      <point x="390" y="311" type="line"/>
      <point x="390" y="370" type="line" smooth="yes"/>
      <point x="390" y="470"/>
      <point x="350" y="530"/>
      <point x="274" y="530" type="curve" smooth="yes"/>
      <point x="204" y="530"/>
      <point x="153" y="480"/>
      <point x="115" y="408" type="curve"/>
      <point x="123" y="383" type="line"/>
      <point x="162" y="453"/>
      <point x="206" y="503"/>
      <point x="271" y="503" type="curve" smooth="yes"/>
      <point x="329" y="503"/>
      <point x="360" y="457"/>
      <point x="360" y="366" type="curve" smooth="yes"/>
    </contour>
  </outline>
</glyph>
<glyph name="Iotaafrican" format="2">
  <advance width="325"/>
  <unicode hex="0196"/>
  <anchor x="159" y="0" name="bottom"/>
  <anchor x="104" y="682" name="top"/>
  <outline>
    <contour>
      <point x="119" y="682" type="line"/>
      <point x="88" y="682" type="line"/>
      <point x="88" y="189" type="line"/>
      <point x="119" y="189" type="line"/>
    </contour>
    <component base="hookHELPER.case" xScale="-1" xOffset="285" yOffset="189"/>
  </outline>
</glyph>
<glyph name="Khook" format="2">
  <advance width="454"/>
  <unicode hex="0198"/>
  <anchor x="227" y="0" name="bottom"/>
  <anchor x="227" y="682" name="top"/>
  <outline>
    <contour>
      <point x="128" y="682" type="line"/>
      <point x="97" y="682" type="line"/>
      <point x="97" y="0" type="line"/>
      <point x="128" y="0" type="line"/>
    </contour>
    <contour>
      <point x="305" y="600" type="line" smooth="yes"/>
      <point x="340" y="660"/>
      <point x="358" y="664"/>
      <point x="384" y="664" type="curve" smooth="yes"/>
      <point x="407" y="664"/>
      <point x="424" y="651"/>
      <point x="438" y="636" type="curve"/>
      <point x="454" y="654" type="line"/>
      <point x="437" y="674"/>
      <point x="412" y="692"/>
      <point x="383" y="692" type="curve" smooth="yes"/>
      <point x="343" y="692"/>
      <point x="319" y="676"/>
      <point x="284" y="620" type="curve" smooth="yes"/>
      <point x="130" y="367" type="line"/>
      <point x="390" y="0" type="line"/>
      <point x="428" y="0" type="line"/>
      <point x="169" y="367" type="line"/>
    </contour>
  </outline>
</glyph>
<glyph name="khook" format="2">
  <advance width="469"/>
  <unicode hex="0199"/>
  <outline>
    <contour>
      <point x="358" y="520" type="line"/>
      <point x="321" y="520" type="line"/>
      <point x="128" y="284" type="line"/>
      <point x="341" y="0" type="line"/>
      <point x="378" y="0" type="line"/>
      <point x="165" y="285" type="line"/>
    </contour>
    <contour>
      <point x="123" y="524" type="line"/>
      <point x="93" y="520" type="line"/>
      <point x="93" y="0" type="line"/>
      <point x="123" y="0" type="line"/>
    </contour>
    <component base="hookaboveHELPER" xOffset="62"/>
  </outline>
</glyph>
<glyph name="lambdastroke" format="2">
  <advance width="375"/>
  <unicode hex="019B"/>
  <anchor x="188" y="0" name="bottom"/>
  <anchor x="188" y="734" name="top"/>
  <outline>
    <contour>
      <point x="60" y="-6" type="line"/>
      <point x="198" y="490" type="line"/>
      <point x="250" y="165"/>
      <point x="301" y="82"/>
      <point x="352" y="-6" type="curve"/>
      <point x="380" y="5" type="line"/>
      <point x="329" y="93"/>
      <point x="278" y="171"/>
      <point x="223" y="510" type="curve" smooth="yes"/>
      <point x="200" y="649"/>
      <point x="170" y="712"/>
      <point x="71" y="738" type="curve"/>
      <point x="67" y="715" type="line"/>
      <point x="148" y="691"/>
      <point x="173" y="633"/>
      <point x="193" y="520" type="curve"/>
      <point x="179" y="520" type="line"/>
      <point x="31" y="1" type="line"/>
    </contour>
    <contour>
      <point x="102" y="562" type="line"/>
      <point x="169" y="645" type="line"/>
      <point x="180" y="655" type="line"/>
      <point x="242" y="733" type="line"/>
      <point x="223" y="750" type="line"/>
      <point x="159" y="670" type="line"/>
      <point x="150" y="660" type="line"/>
      <point x="79" y="571" type="line"/>
    </contour>
  </outline>
</glyph>
<glyph name="Mturned" format="2">
  <advance width="759"/>
  <unicode hex="019C"/>
  <anchor x="379" y="0" name="bottom"/>
  <anchor x="379" y="682" name="top"/>
  <outline>
    <contour>
      <point x="486" y="-10" type="curve" smooth="yes"/>
      <point x="556" y="-10"/>
      <point x="609" y="50"/>
      <point x="639" y="121" type="curve"/>
      <point x="631" y="149" type="line"/>
      <point x="600" y="79"/>
      <point x="554" y="19"/>
      <point x="489" y="19" type="curve" smooth="yes"/>
      <point x="426" y="19"/>
      <point x="391" y="73"/>
      <point x="391" y="175" type="curve" smooth="yes"/>
      <point x="391" y="682" type="line"/>
      <point x="360" y="682" type="line"/>
      <point x="360" y="180" type="line" smooth="yes"/>
      <point x="360" y="58"/>
      <point x="405" y="-10"/>
    </contour>
    <contour>
      <point x="635" y="0" type="line"/>
      <point x="662" y="0" type="line"/>
      <point x="662" y="682" type="line"/>
      <point x="631" y="682" type="line"/>
      <point x="631" y="141" type="line"/>
    </contour>
    <contour>
      <point x="215" y="-10" type="curve" smooth="yes"/>
      <point x="285" y="-10"/>
      <point x="338" y="50"/>
      <point x="372" y="122" type="curve"/>
      <point x="363" y="153" type="line"/>
      <point x="329" y="79"/>
      <point x="283" y="19"/>
      <point x="217" y="19" type="curve" smooth="yes"/>
      <point x="154" y="19"/>
      <point x="119" y="73"/>
      <point x="119" y="175" type="curve" smooth="yes"/>
      <point x="119" y="682" type="line"/>
      <point x="88" y="682" type="line"/>
      <point x="88" y="180" type="line" smooth="yes"/>
      <point x="88" y="58"/>
      <point x="134" y="-10"/>
    </contour>
  </outline>
</glyph>
<glyph name="Nhookleft" format="2">
  <advance width="664"/>
  <unicode hex="019D"/>
  <anchor x="274" y="0" name="bottom"/>
  <anchor x="280" y="682" name="top"/>
  <outline>
    <contour>
      <point x="38" y="-199" type="curve" smooth="yes"/>
      <point x="89" y="-199"/>
      <point x="127" y="-161"/>
      <point x="127" y="-82" type="curve" smooth="yes"/>
      <point x="127" y="1" type="line"/>
      <point x="97" y="1" type="line"/>
      <point x="97" y="-81" type="line" smooth="yes"/>
      <point x="97" y="-150"/>
      <point x="70" y="-172"/>
      <point x="37" y="-172" type="curve" smooth="yes"/>
      <point x="9" y="-172"/>
      <point x="-9" y="-161"/>
      <point x="-25" y="-148" type="curve"/>
      <point x="-39" y="-168" type="line"/>
      <point x="-22" y="-183"/>
      <point x="3" y="-199"/>
    </contour>
    <component base="N"/>
  </outline>
</glyph>
<glyph name="nlegrightlong" format="2">
  <advance width="582"/>
  <unicode hex="019E"/>
  <anchor x="238" y="0" name="bottom"/>
  <anchor x="244" y="520" name="top"/>
  <anchor x="85" y="520" name="topleft"/>
  <outline>
    <contour>
      <point x="389" y="1" type="line"/>
      <point x="359" y="1" type="line"/>
      <point x="359" y="-193" type="line"/>
      <point x="389" y="-199" type="line"/>
    </contour>
    <component base="n"/>
  </outline>
</glyph>
<glyph name="Oi" format="2">
  <advance width="729"/>
  <unicode hex="01A2"/>
  <anchor x="365" y="-193" name="bottom"/>
  <anchor x="365" y="682" name="top"/>
  <outline>
    <contour>
      <point x="526" y="692" type="curve" smooth="yes"/>
      <point x="476" y="692"/>
      <point x="436" y="666"/>
      <point x="402" y="641" type="curve"/>
      <point x="417" y="621" type="line"/>
      <point x="449" y="644"/>
      <point x="482" y="665"/>
      <point x="526" y="665" type="curve" smooth="yes"/>
      <point x="572" y="665"/>
      <point x="601" y="643"/>
      <point x="601" y="560" type="curve" smooth="yes"/>
      <point x="601" y="-193" type="line"/>
      <point x="632" y="-193" type="line"/>
      <point x="632" y="561" type="line" smooth="yes"/>
      <point x="632" y="654"/>
      <point x="592" y="692"/>
    </contour>
    <contour>
      <point x="283" y="692" type="curve" smooth="yes"/>
      <point x="152" y="692"/>
      <point x="60" y="565"/>
      <point x="60" y="339" type="curve" smooth="yes"/>
      <point x="60" y="114"/>
      <point x="151" y="-10"/>
      <point x="283" y="-10" type="curve" smooth="yes"/>
      <point x="420" y="-10"/>
      <point x="506" y="118"/>
      <point x="506" y="340" type="curve" smooth="yes"/>
      <point x="506" y="571"/>
      <point x="415" y="692"/>
    </contour>
    <contour>
      <point x="283" y="663" type="curve"/>
      <point x="398" y="663"/>
      <point x="474" y="556"/>
      <point x="474" y="340" type="curve" smooth="yes"/>
      <point x="474" y="129"/>
      <point x="402" y="19"/>
      <point x="283" y="19" type="curve" smooth="yes"/>
      <point x="171" y="19"/>
      <point x="92" y="129"/>
      <point x="92" y="339" type="curve" smooth="yes"/>
      <point x="92" y="554"/>
      <point x="170" y="663"/>
    </contour>
  </outline>
</glyph>
<glyph name="oi" format="2">
  <advance width="615"/>
  <unicode hex="01A3"/>
  <anchor x="307" y="-193" name="bottom"/>
  <anchor x="307" y="520" name="top"/>
  <outline>
    <contour>
      <point x="492" y="-193" type="line"/>
      <point x="522" y="-199" type="line"/>
      <point x="522" y="397" type="line" smooth="yes"/>
      <point x="522" y="487"/>
      <point x="482" y="530"/>
      <point x="417" y="530" type="curve" smooth="yes"/>
      <point x="374" y="530"/>
      <point x="341" y="516"/>
      <point x="312" y="498" type="curve"/>
      <point x="334" y="482" type="line"/>
      <point x="357" y="494"/>
      <point x="382" y="503"/>
      <point x="416" y="503" type="curve" smooth="yes"/>
      <point x="462" y="503"/>
      <point x="492" y="476"/>
      <point x="492" y="396" type="curve" smooth="yes"/>
    </contour>
    <contour>
      <point x="231" y="530" type="curve" smooth="yes"/>
      <point x="125" y="530"/>
      <point x="56" y="431"/>
      <point x="56" y="259" type="curve" smooth="yes"/>
      <point x="56" y="91"/>
      <point x="122" y="-10"/>
      <point x="230" y="-10" type="curve" smooth="yes"/>
      <point x="337" y="-10"/>
      <point x="405" y="89"/>
      <point x="405" y="262" type="curve" smooth="yes"/>
      <point x="405" y="436"/>
      <point x="337" y="530"/>
    </contour>
    <contour>
      <point x="231" y="502" type="curve" smooth="yes"/>
      <point x="321" y="502"/>
      <point x="374" y="418"/>
      <point x="374" y="262" type="curve" smooth="yes"/>
      <point x="374" y="103"/>
      <point x="319" y="18"/>
      <point x="230" y="18" type="curve" smooth="yes"/>
      <point x="141" y="18"/>
      <point x="87" y="105"/>
      <point x="87" y="259" type="curve" smooth="yes"/>
      <point x="87" y="419"/>
      <point x="144" y="502"/>
    </contour>
  </outline>
</glyph>
<glyph name="phook" format="2">
  <advance width="570"/>
  <unicode hex="01A5"/>
  <anchor x="235" y="-193" name="bottom"/>
  <anchor x="235" y="734" name="top"/>
  <outline>
    <contour>
      <point x="256" y="530" type="curve" smooth="yes"/>
      <point x="194" y="530"/>
      <point x="148" y="488"/>
      <point x="116" y="432" type="curve"/>
      <point x="118" y="398" type="line"/>
      <point x="154" y="460"/>
      <point x="191" y="502"/>
      <point x="254" y="502" type="curve" smooth="yes"/>
      <point x="335" y="502"/>
      <point x="378" y="422"/>
      <point x="378" y="264" type="curve" smooth="yes"/>
      <point x="378" y="105"/>
      <point x="332" y="18"/>
      <point x="248" y="18" type="curve" smooth="yes"/>
      <point x="190" y="18"/>
      <point x="147" y="60"/>
      <point x="118" y="119" type="curve"/>
      <point x="116" y="84" type="line"/>
      <point x="141" y="36"/>
      <point x="187" y="-10"/>
      <point x="251" y="-10" type="curve" smooth="yes"/>
      <point x="354" y="-10"/>
      <point x="410" y="94"/>
      <point x="410" y="264" type="curve" smooth="yes"/>
      <point x="410" y="436"/>
      <point x="356" y="530"/>
    </contour>
    <contour>
      <point x="123" y="520" type="line"/>
      <point x="93" y="520" type="line"/>
      <point x="93" y="-199" type="line"/>
      <point x="123" y="-193" type="line"/>
      <point x="123" y="412" type="line"/>
    </contour>
    <component base="hookaboveHELPER" xOffset="62"/>
  </outline>
</glyph>
<glyph name="Yr" format="2">
  <advance width="475"/>
  <unicode hex="01A6"/>
  <anchor x="238" y="-193" name="bottom"/>
  <anchor x="238" y="682" name="top"/>
  <outline>
    <contour>
      <point x="128" y="682" type="line"/>
      <point x="97" y="682" type="line"/>
      <point x="97" y="0" type="line"/>
      <point x="128" y="0" type="line"/>
    </contour>
    <contour>
      <point x="286" y="202" type="line"/>
      <point x="252" y="197" type="line"/>
      <point x="406" y="-130" type="line"/>
      <point x="444" y="-130" type="line"/>
    </contour>
    <contour>
      <point x="119" y="552" type="line"/>
      <point x="119" y="523" type="line"/>
      <point x="223" y="523" type="line" smooth="yes"/>
      <point x="340" y="523"/>
      <point x="383" y="469"/>
      <point x="383" y="373" type="curve" smooth="yes"/>
      <point x="383" y="267"/>
      <point x="327" y="219"/>
      <point x="231" y="219" type="curve" smooth="yes"/>
      <point x="121" y="219" type="line"/>
      <point x="121" y="190" type="line"/>
      <point x="259" y="190" type="line"/>
      <point x="353" y="206"/>
      <point x="416" y="255"/>
      <point x="416" y="373" type="curve" smooth="yes"/>
      <point x="416" y="488"/>
      <point x="357" y="552"/>
      <point x="226" y="552" type="curve" smooth="yes"/>
    </contour>
  </outline>
</glyph>
<glyph name="Tonetwo" format="2">
  <advance width="432"/>
  <unicode hex="01A7"/>
  <anchor x="216" y="0" name="bottom"/>
  <anchor x="216" y="682" name="top"/>
  <outline>
    <contour>
      <point x="230" y="692" type="curve" smooth="yes"/>
      <point x="158" y="692"/>
      <point x="115" y="664"/>
      <point x="68" y="620" type="curve"/>
      <point x="87" y="599" type="line"/>
      <point x="133" y="644"/>
      <point x="172" y="663"/>
      <point x="230" y="663" type="curve" smooth="yes"/>
      <point x="305" y="663"/>
      <point x="346" y="612"/>
      <point x="346" y="538" type="curve" smooth="yes"/>
      <point x="346" y="453"/>
      <point x="311" y="421"/>
      <point x="211" y="381" type="curve" smooth="yes"/>
      <point x="102" y="337"/>
      <point x="51" y="285"/>
      <point x="51" y="177" type="curve" smooth="yes"/>
      <point x="51" y="63"/>
      <point x="124" y="-10"/>
      <point x="219" y="-10" type="curve" smooth="yes"/>
      <point x="294" y="-10"/>
      <point x="347" y="23"/>
      <point x="393" y="73" type="curve"/>
      <point x="373" y="94" type="line"/>
      <point x="333" y="49"/>
      <point x="289" y="19"/>
      <point x="220" y="19" type="curve" smooth="yes"/>
      <point x="141" y="19"/>
      <point x="83" y="77"/>
      <point x="83" y="176" type="curve" smooth="yes"/>
      <point x="83" y="272"/>
      <point x="119" y="312"/>
      <point x="222" y="355" type="curve" smooth="yes"/>
      <point x="335" y="402"/>
      <point x="378" y="445"/>
      <point x="378" y="538" type="curve" smooth="yes"/>
      <point x="378" y="626"/>
      <point x="323" y="692"/>
    </contour>
  </outline>
</glyph>
<glyph name="tonetwo" format="2">
  <advance width="370"/>
  <unicode hex="01A8"/>
  <anchor x="185" y="0" name="bottom"/>
  <anchor x="185" y="520" name="top"/>
  <outline>
    <contour>
      <point x="195" y="530" type="curve" smooth="yes"/>
      <point x="142" y="530"/>
      <point x="99" y="512"/>
      <point x="58" y="473" type="curve"/>
      <point x="74" y="453" type="line"/>
      <point x="112" y="487"/>
      <point x="147" y="502"/>
      <point x="194" y="502" type="curve" smooth="yes"/>
      <point x="252" y="502"/>
      <point x="293" y="466"/>
      <point x="293" y="403" type="curve" smooth="yes"/>
      <point x="293" y="344"/>
      <point x="263" y="318"/>
      <point x="182" y="288" type="curve" smooth="yes"/>
      <point x="86" y="253"/>
      <point x="47" y="215"/>
      <point x="47" y="130" type="curve" smooth="yes"/>
      <point x="47" y="46"/>
      <point x="106" y="-10"/>
      <point x="183" y="-10" type="curve" smooth="yes"/>
      <point x="250" y="-10"/>
      <point x="295" y="19"/>
      <point x="331" y="56" type="curve"/>
      <point x="314" y="76" type="line"/>
      <point x="277" y="40"/>
      <point x="239" y="18"/>
      <point x="183" y="18" type="curve" smooth="yes"/>
      <point x="125" y="18"/>
      <point x="78" y="56"/>
      <point x="78" y="130" type="curve" smooth="yes"/>
      <point x="78" y="202"/>
      <point x="103" y="232"/>
      <point x="196" y="265" type="curve" smooth="yes"/>
      <point x="286" y="297"/>
      <point x="324" y="334"/>
      <point x="324" y="403" type="curve" smooth="yes"/>
      <point x="324" y="480"/>
      <point x="269" y="530"/>
    </contour>
  </outline>
</glyph>
<glyph name="eshreversedloop" format="2">
  <advance width="268"/>
  <unicode hex="01AA"/>
  <anchor x="112" y="-193" name="bottom"/>
  <anchor x="112" y="734" name="top"/>
  <outline>
    <contour>
      <point x="46" y="738" type="curve" smooth="yes"/>
      <point x="-3" y="738"/>
      <point x="-39" y="691"/>
      <point x="-39" y="626" type="curve" smooth="yes"/>
      <point x="-39" y="559"/>
      <point x="-3" y="519"/>
      <point x="47" y="519" type="curve" smooth="yes"/>
      <point x="76" y="519"/>
      <point x="100" y="531"/>
      <point x="117" y="550" type="curve"/>
      <point x="111" y="570" type="line"/>
      <point x="94" y="557"/>
      <point x="76" y="546"/>
      <point x="48" y="546" type="curve" smooth="yes"/>
      <point x="15" y="546"/>
      <point x="-9" y="570"/>
      <point x="-9" y="627" type="curve" smooth="yes"/>
      <point x="-9" y="678"/>
      <point x="12" y="711"/>
      <point x="46" y="711" type="curve" smooth="yes"/>
      <point x="80" y="711"/>
      <point x="98" y="681"/>
      <point x="98" y="632" type="curve" smooth="yes"/>
      <point x="98" y="0" type="line"/>
      <point x="128" y="0" type="line"/>
      <point x="128" y="633" type="line" smooth="yes"/>
      <point x="128" y="692"/>
      <point x="99" y="738"/>
    </contour>
    <component base="hookHELPER" xScale="-1" xOffset="295"/>
  </outline>
</glyph>
<glyph name="tpalatalhook" format="2">
  <advance width="269"/>
  <unicode hex="01AB"/>
  <anchor x="135" y="-193" name="bottom"/>
  <anchor x="104" y="650" name="top"/>
  <outline>
    <contour>
      <point x="183" y="-199" type="curve" smooth="yes"/>
      <point x="237" y="-199"/>
      <point x="273" y="-161"/>
      <point x="273" y="-82" type="curve" smooth="yes"/>
      <point x="273" y="20" type="line"/>
      <point x="243" y="18" type="line"/>
      <point x="243" y="-81" type="line" smooth="yes"/>
      <point x="243" y="-150"/>
      <point x="217" y="-172"/>
      <point x="183" y="-172" type="curve" smooth="yes"/>
      <point x="156" y="-172"/>
      <point x="138" y="-161"/>
      <point x="121" y="-148" type="curve"/>
      <point x="107" y="-168" type="line"/>
      <point x="124" y="-183"/>
      <point x="148" y="-199"/>
    </contour>
    <contour>
      <point x="119" y="653" type="line"/>
      <point x="89" y="650" type="line"/>
      <point x="89" y="118" type="line" smooth="yes"/>
      <point x="89" y="32"/>
      <point x="127" y="-10"/>
      <point x="186" y="-10" type="curve" smooth="yes"/>
      <point x="211" y="-10"/>
      <point x="231" y="-3"/>
      <point x="250" y="8" type="curve"/>
      <point x="258" y="11"/>
      <point x="266" y="15"/>
      <point x="273" y="20" type="curve"/>
      <point x="263" y="38" type="line"/>
      <point x="239" y="25"/>
      <point x="216" y="18"/>
      <point x="189" y="18" type="curve" smooth="yes"/>
      <point x="142" y="18"/>
      <point x="119" y="53"/>
      <point x="119" y="120" type="curve" smooth="yes"/>
    </contour>
    <contour>
      <point x="235" y="520" type="line"/>
      <point x="19" y="520" type="line"/>
      <point x="19" y="493" type="line"/>
      <point x="230" y="493" type="line"/>
    </contour>
  </outline>
</glyph>
<glyph name="Thook" format="2">
  <advance width="413"/>
  <unicode hex="01AC"/>
  <anchor x="207" y="0" name="bottom"/>
  <anchor x="207" y="682" name="top"/>
  <outline>
    <contour>
      <point x="405" y="682" type="line"/>
      <point x="134" y="682" type="line"/>
      <point x="134" y="652" type="line"/>
      <point x="200" y="652" type="line"/>
      <point x="200" y="0" type="line"/>
      <point x="231" y="0" type="line"/>
      <point x="231" y="652" type="line"/>
      <point x="400" y="652" type="line"/>
    </contour>
    <contour>
      <point x="16" y="580" type="curve" smooth="yes"/>
      <point x="16" y="538"/>
      <point x="29" y="514"/>
      <point x="42" y="490" type="curve"/>
      <point x="65" y="504" type="line"/>
      <point x="55" y="525"/>
      <point x="46" y="547"/>
      <point x="46" y="580" type="curve" smooth="yes"/>
      <point x="46" y="621"/>
      <point x="65" y="652"/>
      <point x="112" y="652" type="curve" smooth="yes"/>
      <point x="135" y="652" type="line"/>
      <point x="135" y="682" type="line"/>
      <point x="118" y="682" type="line" smooth="yes"/>
      <point x="50" y="682"/>
      <point x="16" y="640"/>
    </contour>
  </outline>
</glyph>
<glyph name="thook" format="2">
  <advance width="269"/>
  <unicode hex="01AD"/>
  <anchor x="135" y="0" name="bottom"/>
  <anchor x="135" y="734" name="top"/>
  <outline>
    <contour>
      <point x="187" y="-10" type="curve" smooth="yes"/>
      <point x="221" y="-10"/>
      <point x="249" y="2"/>
      <point x="273" y="20" type="curve"/>
      <point x="260" y="43" type="line"/>
      <point x="239" y="28"/>
      <point x="216" y="18"/>
      <point x="189" y="18" type="curve" smooth="yes"/>
      <point x="142" y="18"/>
      <point x="119" y="53"/>
      <point x="119" y="120" type="curve" smooth="yes"/>
      <point x="119" y="562" type="line"/>
      <point x="89" y="559" type="line"/>
      <point x="89" y="118" type="line" smooth="yes"/>
      <point x="89" y="32"/>
      <point x="127" y="-10"/>
    </contour>
    <contour>
      <point x="19" y="493" type="line"/>
      <point x="230" y="493" type="line"/>
      <point x="235" y="520" type="line"/>
      <point x="19" y="520" type="line"/>
    </contour>
    <contour>
      <point x="89" y="529" type="line"/>
      <point x="119" y="529" type="line"/>
      <point x="119" y="609" type="line" smooth="yes"/>
      <point x="119" y="679"/>
      <point x="143" y="711"/>
      <point x="189" y="711" type="curve" smooth="yes"/>
      <point x="217" y="711"/>
      <point x="239" y="701"/>
      <point x="260" y="686" type="curve"/>
      <point x="273" y="708" type="line"/>
      <point x="250" y="726"/>
      <point x="222" y="738"/>
      <point x="188" y="738" type="curve" smooth="yes"/>
      <point x="129" y="738"/>
      <point x="89" y="696"/>
      <point x="89" y="610" type="curve" smooth="yes"/>
    </contour>
  </outline>
</glyph>
<glyph name="Upsilonafrican" format="2">
  <advance width="566"/>
  <unicode hex="01B1"/>
  <anchor x="283" y="0" name="bottom"/>
  <anchor x="283" y="682" name="top"/>
  <outline>
    <contour>
      <point x="283" y="-10" type="curve" smooth="yes"/>
      <point x="416" y="-10"/>
      <point x="506" y="115"/>
      <point x="506" y="322" type="curve" smooth="yes"/>
      <point x="506" y="504"/>
      <point x="453" y="594"/>
      <point x="391" y="653" type="curve"/>
      <point x="489" y="653" type="line"/>
      <point x="489" y="682" type="line"/>
      <point x="346" y="682" type="line"/>
      <point x="346" y="654" type="line"/>
      <point x="417" y="599"/>
      <point x="474" y="501"/>
      <point x="474" y="322" type="curve" smooth="yes"/>
      <point x="474" y="127"/>
      <point x="397" y="19"/>
      <point x="283" y="19" type="curve" smooth="yes"/>
      <point x="169" y="19"/>
      <point x="92" y="127"/>
      <point x="92" y="322" type="curve" smooth="yes"/>
      <point x="92" y="502"/>
      <point x="151" y="600"/>
      <point x="220" y="654" type="curve"/>
      <point x="220" y="682" type="line"/>
      <point x="78" y="682" type="line"/>
      <point x="78" y="653" type="line"/>
      <point x="176" y="653" type="line"/>
      <point x="120" y="597"/>
      <point x="60" y="504"/>
      <point x="60" y="322" type="curve" smooth="yes"/>
      <point x="60" y="115"/>
      <point x="149" y="-10"/>
    </contour>
  </outline>
</glyph>
<glyph name="Vhook" format="2">
  <advance width="520"/>
  <unicode hex="01B2"/>
  <anchor x="253" y="0" name="bottom"/>
  <anchor x="253" y="682" name="top"/>
  <outline>
    <contour>
      <point x="440" y="599" type="line"/>
      <point x="409" y="599" type="line"/>
      <point x="409" y="291" type="line" smooth="yes"/>
      <point x="409" y="109"/>
      <point x="339" y="19"/>
      <point x="243" y="19" type="curve" smooth="yes"/>
      <point x="168" y="19"/>
      <point x="119" y="77"/>
      <point x="119" y="181" type="curve" smooth="yes"/>
      <point x="119" y="682" type="line"/>
      <point x="88" y="682" type="line"/>
      <point x="88" y="178" type="line" smooth="yes"/>
      <point x="88" y="61"/>
      <point x="149" y="-10"/>
      <point x="243" y="-10" type="curve" smooth="yes"/>
      <point x="356" y="-10"/>
      <point x="440" y="90"/>
      <point x="440" y="288" type="curve" smooth="yes"/>
    </contour>
    <contour>
      <point x="409" y="599" type="curve"/>
      <point x="440" y="599" type="line"/>
      <point x="440" y="663"/>
      <point x="413" y="692"/>
      <point x="370" y="692" type="curve" smooth="yes"/>
      <point x="351" y="692"/>
      <point x="334" y="685"/>
      <point x="322" y="676" type="curve"/>
      <point x="333" y="654" type="line"/>
      <point x="343" y="661"/>
      <point x="354" y="665"/>
      <point x="368" y="665" type="curve" smooth="yes"/>
      <point x="397" y="665"/>
      <point x="409" y="641"/>
    </contour>
  </outline>
</glyph>
<glyph name="Yhook" format="2">
  <advance width="430"/>
  <unicode hex="01B3"/>
  <anchor x="215" y="0" name="bottom"/>
  <anchor x="215" y="682" name="top"/>
  <anchor x="11" y="682" name="topleft"/>
  <outline>
    <contour>
      <point x="193" y="0" type="line"/>
      <point x="224" y="0" type="line"/>
      <point x="224" y="270" type="line"/>
      <point x="350" y="601" type="line" smooth="yes"/>
      <point x="370" y="652"/>
      <point x="383" y="665"/>
      <point x="410" y="665" type="curve" smooth="yes"/>
      <point x="434" y="665"/>
      <point x="447" y="654"/>
      <point x="464" y="637" type="curve"/>
      <point x="479" y="655" type="line"/>
      <point x="461" y="675"/>
      <point x="440" y="692"/>
      <point x="409" y="692" type="curve" smooth="yes"/>
      <point x="369" y="692"/>
      <point x="346" y="667"/>
      <point x="326" y="614" type="curve" smooth="yes"/>
      <point x="209" y="297" type="line"/>
      <point x="50" y="682" type="line"/>
      <point x="15" y="682" type="line"/>
      <point x="193" y="270" type="line"/>
    </contour>
  </outline>
</glyph>
<glyph name="yhook" format="2">
  <advance width="380"/>
  <unicode hex="01B4"/>
  <anchor x="190" y="-193" name="bottom"/>
  <anchor x="190" y="520" name="top"/>
  <outline>
    <contour>
      <point x="48" y="-197" type="line"/>
      <point x="143" y="-165"/>
      <point x="177" y="-116"/>
      <point x="206" y="-2" type="curve" smooth="yes"/>
      <point x="330" y="481" type="line" smooth="yes"/>
      <point x="342" y="526"/>
      <point x="353" y="541"/>
      <point x="377" y="541" type="curve" smooth="yes"/>
      <point x="389" y="541"/>
      <point x="399" y="538"/>
      <point x="409" y="533" type="curve"/>
      <point x="418" y="557" type="line"/>
      <point x="406" y="563"/>
      <point x="393" y="568"/>
      <point x="375" y="568" type="curve" smooth="yes"/>
      <point x="339" y="568"/>
      <point x="318" y="547"/>
      <point x="301" y="483" type="curve" smooth="yes"/>
      <point x="187" y="23" type="line"/>
      <point x="49" y="520" type="line"/>
      <point x="16" y="520" type="line"/>
      <point x="167" y="0" type="line"/>
      <point x="178" y="0" type="line"/>
      <point x="152" y="-97"/>
      <point x="130" y="-142"/>
      <point x="44" y="-173" type="curve"/>
    </contour>
  </outline>
</glyph>
<glyph name="Zstroke" format="2">
  <advance width="511"/>
  <unicode hex="01B5"/>
  <anchor x="210" y="0" name="bottom"/>
  <anchor x="210" y="682" name="top"/>
  <outline>
    <contour>
      <point x="379" y="682" type="line"/>
      <point x="63" y="682" type="line"/>
      <point x="63" y="653" type="line"/>
      <point x="344" y="653" type="line"/>
      <point x="32" y="28" type="line"/>
      <point x="32" y="0" type="line"/>
      <point x="367" y="0" type="line"/>
      <point x="371" y="30" type="line"/>
      <point x="68" y="30" type="line"/>
      <point x="379" y="655" type="line"/>
    </contour>
    <component base="hyphen" xScale="1.1" xOffset="28" yOffset="30"/>
  </outline>
</glyph>
<glyph name="zstroke" format="2">
  <advance width="339"/>
  <unicode hex="01B6"/>
  <anchor x="169" y="0" name="bottom"/>
  <anchor x="169" y="520" name="top"/>
  <outline>
    <contour>
      <point x="310" y="520" type="line"/>
      <point x="44" y="520" type="line"/>
      <point x="44" y="492" type="line"/>
      <point x="274" y="492" type="line"/>
      <point x="24" y="25" type="line"/>
      <point x="24" y="0" type="line"/>
      <point x="303" y="0" type="line"/>
      <point x="306" y="28" type="line"/>
      <point x="61" y="28" type="line"/>
      <point x="310" y="495" type="line"/>
    </contour>
    <component base="hyphen" xOffset="6" yOffset="-43"/>
  </outline>
</glyph>
<glyph name="Ezh" format="2">
  <advance width="394"/>
  <unicode hex="01B7"/>
  <anchor x="197" y="0" name="bottom"/>
  <anchor x="182" y="682" name="top"/>
  <outline>
    <contour>
      <point x="178" y="-10" type="curve" smooth="yes"/>
      <point x="289" y="-10"/>
      <point x="353" y="72"/>
      <point x="353" y="183" type="curve" smooth="yes"/>
      <point x="353" y="307"/>
      <point x="292" y="377"/>
      <point x="173" y="377" type="curve" smooth="yes"/>
      <point x="135" y="377" type="line"/>
      <point x="105" y="348" type="line"/>
      <point x="172" y="348" type="line" smooth="yes"/>
      <point x="264" y="348"/>
      <point x="321" y="301"/>
      <point x="321" y="182" type="curve" smooth="yes"/>
      <point x="321" y="89"/>
      <point x="274" y="19"/>
      <point x="177" y="19" type="curve" smooth="yes"/>
      <point x="118" y="19"/>
      <point x="75" y="39"/>
      <point x="35" y="91" type="curve"/>
      <point x="16" y="73" type="line"/>
      <point x="56" y="20"/>
      <point x="106" y="-10"/>
    </contour>
    <contour>
      <point x="105" y="377" type="line"/>
      <point x="105" y="348" type="line"/>
      <point x="137" y="377" type="line"/>
      <point x="333" y="656" type="line"/>
      <point x="333" y="682" type="line"/>
      <point x="31" y="682" type="line"/>
      <point x="31" y="654" type="line"/>
      <point x="293" y="654" type="line"/>
    </contour>
  </outline>
</glyph>
<glyph name="Ezhreversed" format="2">
  <advance width="394"/>
  <unicode hex="01B8"/>
  <anchor x="197" y="0" name="bottom"/>
  <anchor x="197" y="682" name="top"/>
  <outline>
    <contour>
      <point x="208" y="-10" type="curve" smooth="yes"/>
      <point x="288" y="-10"/>
      <point x="335" y="20"/>
      <point x="378" y="73" type="curve"/>
      <point x="359" y="91" type="line"/>
      <point x="317" y="39"/>
      <point x="276" y="19"/>
      <point x="209" y="19" type="curve" smooth="yes"/>
      <point x="122" y="19"/>
      <point x="72" y="79"/>
      <point x="72" y="177" type="curve" smooth="yes"/>
      <point x="72" y="296"/>
      <point x="129" y="348"/>
      <point x="222" y="348" type="curve" smooth="yes"/>
      <point x="289" y="348" type="line"/>
      <point x="259" y="377" type="line"/>
      <point x="221" y="377" type="line" smooth="yes"/>
      <point x="104" y="377"/>
      <point x="41" y="302"/>
      <point x="41" y="178" type="curve" smooth="yes"/>
      <point x="41" y="63"/>
      <point x="106" y="-10"/>
    </contour>
    <contour>
      <point x="289" y="378" type="line"/>
      <point x="101" y="654" type="line"/>
      <point x="363" y="654" type="line"/>
      <point x="363" y="682" type="line"/>
      <point x="61" y="682" type="line"/>
      <point x="61" y="656" type="line"/>
      <point x="257" y="377" type="line"/>
      <point x="289" y="348" type="line"/>
    </contour>
  </outline>
</glyph>
<glyph name="ezhreversed" format="2">
  <advance width="368"/>
  <unicode hex="01B9"/>
  <anchor x="184" y="-193" name="bottom"/>
  <anchor x="184" y="520" name="top"/>
  <outline>
    <contour>
      <point x="194" y="-199" type="curve" smooth="yes"/>
      <point x="264" y="-199"/>
      <point x="313" y="-169"/>
      <point x="353" y="-116" type="curve"/>
      <point x="334" y="-99" type="line"/>
      <point x="295" y="-151"/>
      <point x="252" y="-171"/>
      <point x="194" y="-171" type="curve" smooth="yes"/>
      <point x="106" y="-171"/>
      <point x="59" y="-101"/>
      <point x="59" y="-6" type="curve" smooth="yes"/>
      <point x="59" y="105"/>
      <point x="109" y="167"/>
      <point x="220" y="167" type="curve" smooth="yes"/>
      <point x="264" y="167" type="line"/>
      <point x="235" y="195" type="line"/>
      <point x="220" y="195" type="line" smooth="yes"/>
      <point x="86" y="195"/>
      <point x="28" y="111"/>
      <point x="28" y="-5" type="curve" smooth="yes"/>
      <point x="28" y="-116"/>
      <point x="91" y="-199"/>
    </contour>
    <contour>
      <point x="264" y="195" type="line"/>
      <point x="86" y="492" type="line"/>
      <point x="338" y="492" type="line"/>
      <point x="338" y="520" type="line"/>
      <point x="48" y="520" type="line"/>
      <point x="48" y="495" type="line"/>
      <point x="233" y="195" type="line"/>
      <point x="264" y="167" type="line"/>
    </contour>
  </outline>
</glyph>
<glyph name="ezhtail" format="2">
  <advance width="366"/>
  <unicode hex="01BA"/>
  <anchor x="183" y="-193" name="bottom"/>
  <anchor x="171" y="520" name="top"/>
  <outline>
    <contour>
      <point x="115" y="-199" type="curve"/>
      <point x="125" y="-176" type="line"/>
      <point x="80" y="-148"/>
      <point x="60" y="-127"/>
      <point x="60" y="-86" type="curve" smooth="yes"/>
      <point x="60" y="-36"/>
      <point x="99" y="-18"/>
      <point x="180" y="-5" type="curve" smooth="yes"/>
      <point x="283" y="12"/>
      <point x="338" y="45"/>
      <point x="338" y="146" type="curve" smooth="yes"/>
      <point x="338" y="223"/>
      <point x="293" y="269"/>
      <point x="216" y="269" type="curve" smooth="yes"/>
      <point x="130" y="269" type="line"/>
      <point x="313" y="495" type="line"/>
      <point x="313" y="520" type="line"/>
      <point x="28" y="520" type="line"/>
      <point x="28" y="492" type="line"/>
      <point x="272" y="492" type="line"/>
      <point x="95" y="269" type="line"/>
      <point x="95" y="241" type="line"/>
      <point x="214" y="241" type="line" smooth="yes"/>
      <point x="272" y="241"/>
      <point x="307" y="213"/>
      <point x="307" y="146" type="curve" smooth="yes"/>
      <point x="307" y="61"/>
      <point x="266" y="36"/>
      <point x="171" y="22" type="curve" smooth="yes"/>
      <point x="76" y="8"/>
      <point x="28" y="-25"/>
      <point x="28" y="-86" type="curve" smooth="yes"/>
      <point x="28" y="-140"/>
      <point x="61" y="-171"/>
    </contour>
  </outline>
</glyph>
<glyph name="tonefive" format="2">
  <advance width="348"/>
  <unicode hex="01BD"/>
  <anchor x="174" y="0" name="bottom"/>
  <anchor x="174" y="520" name="top"/>
  <outline>
    <contour>
      <point x="289" y="520" type="line"/>
      <point x="68" y="520" type="line"/>
      <point x="68" y="272" type="line"/>
      <point x="91" y="272" type="line"/>
      <point x="119" y="291"/>
      <point x="139" y="300"/>
      <point x="177" y="300" type="curve" smooth="yes"/>
      <point x="232" y="300"/>
      <point x="272" y="257"/>
      <point x="272" y="167" type="curve" smooth="yes"/>
      <point x="272" y="76"/>
      <point x="230" y="18"/>
      <point x="163" y="18" type="curve" smooth="yes"/>
      <point x="115" y="18"/>
      <point x="86" y="36"/>
      <point x="54" y="70" type="curve"/>
      <point x="36" y="51" type="line"/>
      <point x="69" y="14"/>
      <point x="107" y="-10"/>
      <point x="163" y="-10" type="curve" smooth="yes"/>
      <point x="250" y="-10"/>
      <point x="304" y="64"/>
      <point x="304" y="167" type="curve" smooth="yes"/>
      <point x="304" y="267"/>
      <point x="257" y="328"/>
      <point x="179" y="328" type="curve" smooth="yes"/>
      <point x="142" y="328"/>
      <point x="116" y="315"/>
      <point x="98" y="301" type="curve"/>
      <point x="98" y="492" type="line"/>
      <point x="284" y="492" type="line"/>
    </contour>
  </outline>
</glyph>
<glyph name="glottalinvertedstroke" format="2">
  <advance width="492"/>
  <unicode hex="01BE"/>
  <anchor x="180" y="0" name="bottom"/>
  <anchor x="154" y="734" name="top"/>
  <outline>
    <contour>
      <point x="81" y="595" type="line"/>
      <point x="81" y="568" type="line"/>
      <point x="138" y="568" type="line"/>
      <point x="265" y="568" type="line"/>
      <point x="265" y="595" type="line"/>
    </contour>
    <component base="glottalstopinverted"/>
  </outline>
</glyph>
<glyph name="wynn" format="2">
  <advance width="466"/>
  <unicode hex="01BF"/>
  <anchor x="233" y="-193" name="bottom"/>
  <anchor x="233" y="520" name="top"/>
  <outline>
    <contour>
      <point x="119" y="520" type="line"/>
      <point x="93" y="520" type="line"/>
      <point x="93" y="-199" type="line"/>
      <point x="123" y="-193" type="line"/>
      <point x="123" y="412" type="line"/>
      <point x="122" y="421" type="line"/>
    </contour>
    <contour>
      <point x="116" y="430" type="curve"/>
      <point x="119" y="401" type="line"/>
      <point x="159" y="460"/>
      <point x="205" y="502"/>
      <point x="269" y="502" type="curve" smooth="yes"/>
      <point x="335" y="502"/>
      <point x="378" y="453"/>
      <point x="378" y="360" type="curve" smooth="yes"/>
      <point x="378" y="225"/>
      <point x="311" y="140"/>
      <point x="166" y="46" type="curve" smooth="yes"/>
      <point x="121" y="17" type="line"/>
      <point x="121" y="-12" type="line"/>
      <point x="175" y="21" type="line" smooth="yes"/>
      <point x="328" y="116"/>
      <point x="410" y="210"/>
      <point x="410" y="361" type="curve" smooth="yes"/>
      <point x="410" y="467"/>
      <point x="354" y="530"/>
      <point x="271" y="530" type="curve" smooth="yes"/>
      <point x="202" y="530"/>
      <point x="157" y="489"/>
    </contour>
  </outline>
</glyph>
<glyph name="clickdental" format="2">
  <advance width="223"/>
  <unicode hex="01C0"/>
  <outline>
    <contour>
      <point x="126" y="738" type="line"/>
      <point x="97" y="734" type="line"/>
      <point x="97" y="0" type="line"/>
      <point x="126" y="0" type="line"/>
    </contour>
  </outline>
</glyph>
